# MagicaVoxel @ Ephtracy

# group
o 

# material
mtllib SlowPlace.mtl
usemtl palette

# normals
vn -1 0 0
vn 1 0 0
vn 0 0 1
vn 0 0 -1
vn 0 -1 0
vn 0 1 0

# texcoords
vt 0.177734 0.5
vt 0.181641 0.5
vt 0.302734 0.5
vt 0.341797 0.5
vt 0.435547 0.5
vt 0.466797 0.5
vt 0.654297 0.5
vt 0.748047 0.5

# verts
v -0.9 0 1.4
v -0.9 0 -0.1
v -0.9 0 -0.2
v -0.9 0 -1.7
v -0.9 0.1 1.4
v -0.9 0.1 -0.1
v -0.9 0.1 -0.2
v -0.9 0.1 -1.7
v 1.3 0 1.4
v 1.3 0 0.8
v 1.3 0 -0.2
v 1.3 0 -0.8
v 1.3 0 -1.3
v 1.3 0 -1.7
v 1.3 0.1 1.4
v 1.3 0.1 0.8
v 1.3 0.1 -0.2
v 1.3 0.1 -0.8
v 1.3 0.1 -1.3
v 1.3 0.1 -1.7
v -0.9 0 1.4
v -0.9 0.1 1.4
v 0.7 0 1.4
v 0.7 0.1 1.4
v 0.9 0 1.4
v 0.9 0.1 1.4
v 1.3 0 1.4
v 1.3 0.1 1.4
v -0.9 0 -1.7
v -0.9 0.1 -1.7
v 0 0 -1.7
v 0 0.1 -1.7
v 0.2 0 -1.7
v 0.2 0.1 -1.7
v 1.3 0 -1.7
v 1.3 0.1 -1.7
v -0.9 0 1.4
v 0.7 0 1.4
v 0.9 0 1.4
v 1.3 0 1.4
v 0.1 0 1.3
v 0.2 0 1.3
v 0.7 0 1.2
v 0.9 0 1.2
v -0.5 0 1.1
v -0.3 0 1.1
v 0.1 0 1.1
v 0.2 0 1.1
v 0.4 0 1.1
v 0.6 0 1.1
v 0.1 0 1
v 0.4 0 1
v 0.5 0 1
v 0.6 0 1
v 0.8 0 1
v 0.7 0 0.9
v 0.8 0 0.9
v 0.9 0 0.9
v 0.4 0 0.8
v 0.5 0 0.8
v 1.2 0 0.8
v 1.3 0 0.8
v -0.1 0 0.7
v 0 0 0.7
v 0.5 0 0.7
v 0.7 0 0.7
v -0.6 0 0.6
v -0.5 0 0.6
v -0.3 0 0.6
v -0.1 0 0.6
v -0.5 0 0.5
v -0.4 0 0.5
v -0.3 0 0.5
v -0.1 0 0.5
v 0.7 0 0.5
v 0.9 0 0.5
v 1.2 0 0.5
v -0.4 0 0.4
v -0.3 0 0.4
v -0.1 0 0.3
v 0 0 0.3
v -0.2 0 0.2
v -0.1 0 0.2
v 0.4 0 0.2
v 0.5 0 0.2
v 0.7 0 0.2
v 0.8 0 0.2
v 0.9 0 0.2
v -0.6 0 0.1
v -0.5 0 0.1
v -0.4 0 0.1
v 0.4 0 0.1
v 0.5 0 0.1
v 0.6 0 0.1
v 0.1 0 0
v 0.4 0 0
v -0.9 0 -0.1
v -0.8 0 -0.1
v -0.5 0 -0.1
v -0.3 0 -0.1
v -0.1 0 -0.1
v 0 0 -0.1
v 0.2 0 -0.1
v 0.7 0 -0.1
v 0.8 0 -0.1
v 0.9 0 -0.1
v -0.9 0 -0.2
v -0.8 0 -0.2
v 1.1 0 -0.2
v 1.3 0 -0.2
v -0.2 0 -0.3
v -0.1 0 -0.3
v 0.4 0 -0.3
v 0.5 0 -0.3
v 0.6 0 -0.3
v 0.9 0 -0.3
v 1 0 -0.3
v -0.3 0 -0.4
v -0.2 0 -0.4
v 0.5 0 -0.4
v 0.6 0 -0.4
v 0.7 0 -0.4
v 0.9 0 -0.4
v 1 0 -0.4
v -0.7 0 -0.5
v -0.5 0 -0.5
v -0.3 0 -0.5
v -0.2 0 -0.5
v 0.6 0 -0.5
v 0.8 0 -0.5
v -0.4 0 -0.6
v -0.3 0 -0.6
v -0.1 0 -0.6
v 0 0 -0.6
v -0.5 0 -0.7
v -0.4 0 -0.7
v 0.3 0 -0.7
v 0.4 0 -0.7
v 0.6 0 -0.7
v 0.7 0 -0.7
v 0.8 0 -0.7
v 0.9 0 -0.7
v -0.7 0 -0.8
v -0.6 0 -0.8
v -0.5 0 -0.8
v -0.4 0 -0.8
v -0.3 0 -0.8
v -0.2 0 -0.8
v -0.1 0 -0.8
v 0 0 -0.8
v 0.2 0 -0.8
v 0.3 0 -0.8
v 0.4 0 -0.8
v 0.5 0 -0.8
v 0.6 0 -0.8
v 0.7 0 -0.8
v 1.1 0 -0.8
v 1.3 0 -0.8
v -0.7 0 -0.9
v -0.6 0 -0.9
v -0.7 0 -1
v -0.6 0 -1
v 0.7 0 -1
v 0.8 0 -1
v 0.9 0 -1
v 1 0 -1
v 1.1 0 -1
v -0.6 0 -1.1
v -0.4 0 -1.1
v -0.2 0 -1.1
v 0.7 0 -1.1
v 0.8 0 -1.1
v 1 0 -1.1
v 1.2 0 -1.1
v -0.6 0 -1.2
v -0.5 0 -1.2
v -0.7 0 -1.3
v -0.6 0 -1.3
v -0.5 0 -1.3
v -0.4 0 -1.3
v 0.4 0 -1.3
v 0.5 0 -1.3
v 0.8 0 -1.3
v 0.9 0 -1.3
v 1 0 -1.3
v 1.1 0 -1.3
v 1.2 0 -1.3
v 1.3 0 -1.3
v -0.6 0 -1.4
v -0.5 0 -1.4
v -0.4 0 -1.4
v -0.2 0 -1.4
v -0.1 0 -1.4
v 0 0 -1.4
v 0.2 0 -1.4
v 0.3 0 -1.4
v 0.4 0 -1.4
v 0.7 0 -1.4
v 0.8 0 -1.4
v 1 0 -1.4
v 1.1 0 -1.4
v -0.7 0 -1.5
v -0.5 0 -1.5
v -0.4 0 -1.5
v -0.1 0 -1.5
v 0 0 -1.5
v 0.3 0 -1.5
v 0.4 0 -1.5
v 0.7 0 -1.5
v 0.8 0 -1.5
v 0.9 0 -1.5
v 1 0 -1.5
v 1.2 0 -1.5
v -0.5 0 -1.6
v -0.4 0 -1.6
v 0.4 0 -1.6
v 0.8 0 -1.6
v 0.9 0 -1.6
v 1 0 -1.6
v 1.2 0 -1.6
v -0.9 0 -1.7
v 0 0 -1.7
v 0.2 0 -1.7
v 1.3 0 -1.7
v -0.9 0.1 1.4
v 0.7 0.1 1.4
v 0.9 0.1 1.4
v 1.3 0.1 1.4
v 0.1 0.1 1.3
v 0.2 0.1 1.3
v 0.7 0.1 1.2
v 0.9 0.1 1.2
v -0.5 0.1 1.1
v -0.3 0.1 1.1
v 0.1 0.1 1.1
v 0.2 0.1 1.1
v 0.4 0.1 1.1
v 0.6 0.1 1.1
v 0.1 0.1 1
v 0.4 0.1 1
v 0.5 0.1 1
v 0.6 0.1 1
v 0.8 0.1 1
v 0.7 0.1 0.9
v 0.8 0.1 0.9
v 0.9 0.1 0.9
v 0.4 0.1 0.8
v 0.5 0.1 0.8
v 1.2 0.1 0.8
v 1.3 0.1 0.8
v -0.1 0.1 0.7
v 0 0.1 0.7
v 0.5 0.1 0.7
v 0.7 0.1 0.7
v -0.6 0.1 0.6
v -0.5 0.1 0.6
v -0.3 0.1 0.6
v -0.1 0.1 0.6
v -0.5 0.1 0.5
v -0.4 0.1 0.5
v -0.3 0.1 0.5
v -0.1 0.1 0.5
v 0.7 0.1 0.5
v 0.9 0.1 0.5
v 1.2 0.1 0.5
v -0.4 0.1 0.4
v -0.3 0.1 0.4
v -0.1 0.1 0.3
v 0 0.1 0.3
v -0.2 0.1 0.2
v -0.1 0.1 0.2
v 0.4 0.1 0.2
v 0.5 0.1 0.2
v 0.7 0.1 0.2
v 0.8 0.1 0.2
v 0.9 0.1 0.2
v -0.6 0.1 0.1
v -0.5 0.1 0.1
v -0.4 0.1 0.1
v 0.4 0.1 0.1
v 0.5 0.1 0.1
v 0.6 0.1 0.1
v 0.1 0.1 0
v 0.4 0.1 0
v -0.9 0.1 -0.1
v -0.8 0.1 -0.1
v -0.5 0.1 -0.1
v -0.3 0.1 -0.1
v -0.1 0.1 -0.1
v 0 0.1 -0.1
v 0.2 0.1 -0.1
v 0.7 0.1 -0.1
v 0.8 0.1 -0.1
v 0.9 0.1 -0.1
v -0.9 0.1 -0.2
v -0.8 0.1 -0.2
v 1.1 0.1 -0.2
v 1.3 0.1 -0.2
v -0.2 0.1 -0.3
v -0.1 0.1 -0.3
v 0.4 0.1 -0.3
v 0.5 0.1 -0.3
v 0.6 0.1 -0.3
v 0.9 0.1 -0.3
v 1 0.1 -0.3
v -0.3 0.1 -0.4
v -0.2 0.1 -0.4
v 0.5 0.1 -0.4
v 0.6 0.1 -0.4
v 0.7 0.1 -0.4
v 0.9 0.1 -0.4
v 1 0.1 -0.4
v -0.7 0.1 -0.5
v -0.5 0.1 -0.5
v -0.3 0.1 -0.5
v -0.2 0.1 -0.5
v 0.6 0.1 -0.5
v 0.8 0.1 -0.5
v -0.4 0.1 -0.6
v -0.3 0.1 -0.6
v -0.1 0.1 -0.6
v 0 0.1 -0.6
v -0.5 0.1 -0.7
v -0.4 0.1 -0.7
v 0.3 0.1 -0.7
v 0.4 0.1 -0.7
v 0.6 0.1 -0.7
v 0.7 0.1 -0.7
v 0.8 0.1 -0.7
v 0.9 0.1 -0.7
v -0.7 0.1 -0.8
v -0.6 0.1 -0.8
v -0.5 0.1 -0.8
v -0.4 0.1 -0.8
v -0.3 0.1 -0.8
v -0.2 0.1 -0.8
v -0.1 0.1 -0.8
v 0 0.1 -0.8
v 0.2 0.1 -0.8
v 0.3 0.1 -0.8
v 0.4 0.1 -0.8
v 0.5 0.1 -0.8
v 0.6 0.1 -0.8
v 0.7 0.1 -0.8
v 1.1 0.1 -0.8
v 1.3 0.1 -0.8
v -0.7 0.1 -0.9
v -0.6 0.1 -0.9
v -0.7 0.1 -1
v -0.6 0.1 -1
v 0.7 0.1 -1
v 0.8 0.1 -1
v 0.9 0.1 -1
v 1 0.1 -1
v 1.1 0.1 -1
v -0.6 0.1 -1.1
v -0.4 0.1 -1.1
v -0.2 0.1 -1.1
v 0.7 0.1 -1.1
v 0.8 0.1 -1.1
v 1 0.1 -1.1
v 1.2 0.1 -1.1
v -0.6 0.1 -1.2
v -0.5 0.1 -1.2
v -0.7 0.1 -1.3
v -0.6 0.1 -1.3
v -0.5 0.1 -1.3
v -0.4 0.1 -1.3
v 0.4 0.1 -1.3
v 0.5 0.1 -1.3
v 0.8 0.1 -1.3
v 0.9 0.1 -1.3
v 1 0.1 -1.3
v 1.1 0.1 -1.3
v 1.2 0.1 -1.3
v 1.3 0.1 -1.3
v -0.6 0.1 -1.4
v -0.5 0.1 -1.4
v -0.4 0.1 -1.4
v -0.2 0.1 -1.4
v -0.1 0.1 -1.4
v 0 0.1 -1.4
v 0.2 0.1 -1.4
v 0.3 0.1 -1.4
v 0.4 0.1 -1.4
v 0.7 0.1 -1.4
v 0.8 0.1 -1.4
v 1 0.1 -1.4
v 1.1 0.1 -1.4
v -0.7 0.1 -1.5
v -0.5 0.1 -1.5
v -0.4 0.1 -1.5
v -0.1 0.1 -1.5
v 0 0.1 -1.5
v 0.3 0.1 -1.5
v 0.4 0.1 -1.5
v 0.7 0.1 -1.5
v 0.8 0.1 -1.5
v 0.9 0.1 -1.5
v 1 0.1 -1.5
v 1.2 0.1 -1.5
v -0.5 0.1 -1.6
v -0.4 0.1 -1.6
v 0.4 0.1 -1.6
v 0.8 0.1 -1.6
v 0.9 0.1 -1.6
v 1 0.1 -1.6
v 1.2 0.1 -1.6
v -0.9 0.1 -1.7
v 0 0.1 -1.7
v 0.2 0.1 -1.7
v 1.3 0.1 -1.7

# faces
f 5/8/1 2/8/1 1/8/1
f 6/3/1 3/3/1 2/3/1
f 6/8/1 2/8/1 5/8/1
f 7/8/1 4/8/1 3/8/1
f 7/3/1 3/3/1 6/3/1
f 8/8/1 4/8/1 7/8/1
f 9/8/2 10/8/2 15/8/2
f 10/4/2 11/4/2 16/4/2
f 15/8/2 10/8/2 16/8/2
f 11/8/2 12/8/2 17/8/2
f 16/4/2 11/4/2 17/4/2
f 12/1/2 13/1/2 18/1/2
f 17/8/2 12/8/2 18/8/2
f 13/8/2 14/8/2 19/8/2
f 18/1/2 13/1/2 19/1/2
f 19/8/2 14/8/2 20/8/2
f 23/8/3 22/8/3 21/8/3
f 24/8/3 22/8/3 23/8/3
f 25/1/3 24/1/3 23/1/3
f 26/1/3 24/1/3 25/1/3
f 27/8/3 26/8/3 25/8/3
f 28/8/3 26/8/3 27/8/3
f 29/8/4 30/8/4 31/8/4
f 31/8/4 30/8/4 32/8/4
f 31/3/4 32/3/4 33/3/4
f 33/3/4 32/3/4 34/3/4
f 33/8/4 34/8/4 35/8/4
f 35/8/4 34/8/4 36/8/4
f 41/8/5 38/8/5 37/8/5
f 42/8/5 38/8/5 41/8/5
f 43/1/5 39/1/5 38/1/5
f 43/8/5 38/8/5 42/8/5
f 44/8/5 40/8/5 39/8/5
f 44/1/5 39/1/5 43/1/5
f 45/8/5 41/8/5 37/8/5
f 46/8/5 41/8/5 45/8/5
f 47/6/5 42/6/5 41/6/5
f 47/8/5 41/8/5 46/8/5
f 48/8/5 43/8/5 42/8/5
f 48/6/5 42/6/5 47/6/5
f 48/8/5 44/8/5 43/8/5
f 49/8/5 44/8/5 48/8/5
f 50/8/5 44/8/5 49/8/5
f 51/8/5 47/8/5 46/8/5
f 51/8/5 48/8/5 47/8/5
f 51/8/5 49/8/5 48/8/5
f 52/1/5 50/1/5 49/1/5
f 52/8/5 49/8/5 51/8/5
f 53/1/5 50/1/5 52/1/5
f 54/8/5 44/8/5 50/8/5
f 54/1/5 50/1/5 53/1/5
f 55/8/5 44/8/5 54/8/5
f 56/4/5 54/4/5 53/4/5
f 56/4/5 55/4/5 54/4/5
f 57/8/5 44/8/5 55/8/5
f 57/4/5 55/4/5 56/4/5
f 58/8/5 40/8/5 44/8/5
f 58/8/5 44/8/5 57/8/5
f 59/1/5 53/1/5 52/1/5
f 59/3/5 52/3/5 51/3/5
f 60/4/5 56/4/5 53/4/5
f 60/1/5 53/1/5 59/1/5
f 61/8/5 40/8/5 58/8/5
f 62/8/5 40/8/5 61/8/5
f 63/8/5 51/8/5 46/8/5
f 64/8/5 51/8/5 63/8/5
f 65/4/5 56/4/5 60/4/5
f 65/8/5 60/8/5 59/8/5
f 66/7/5 57/7/5 56/7/5
f 66/4/5 56/4/5 65/4/5
f 66/7/5 58/7/5 57/7/5
f 67/8/5 45/8/5 37/8/5
f 68/4/5 46/4/5 45/4/5
f 68/8/5 45/8/5 67/8/5
f 69/8/5 63/8/5 46/8/5
f 69/4/5 46/4/5 68/4/5
f 70/6/5 64/6/5 63/6/5
f 70/8/5 63/8/5 69/8/5
f 71/3/5 68/3/5 67/3/5
f 71/4/5 69/4/5 68/4/5
f 72/4/5 69/4/5 71/4/5
f 73/1/5 70/1/5 69/1/5
f 73/4/5 69/4/5 72/4/5
f 74/6/5 64/6/5 70/6/5
f 74/1/5 70/1/5 73/1/5
f 75/7/5 58/7/5 66/7/5
f 75/8/5 66/8/5 65/8/5
f 76/8/5 61/8/5 58/8/5
f 76/7/5 58/7/5 75/7/5
f 77/4/5 62/4/5 61/4/5
f 77/8/5 61/8/5 76/8/5
f 78/8/5 73/8/5 72/8/5
f 78/3/5 72/3/5 71/3/5
f 78/8/5 74/8/5 73/8/5
f 79/8/5 74/8/5 78/8/5
f 80/6/5 64/6/5 74/6/5
f 80/8/5 74/8/5 79/8/5
f 81/8/5 51/8/5 64/8/5
f 81/6/5 64/6/5 80/6/5
f 82/8/5 80/8/5 79/8/5
f 82/8/5 81/8/5 80/8/5
f 83/8/5 81/8/5 82/8/5
f 84/8/5 65/8/5 59/8/5
f 84/3/5 59/3/5 51/3/5
f 84/8/5 75/8/5 65/8/5
f 84/8/5 76/8/5 75/8/5
f 85/8/5 76/8/5 84/8/5
f 86/8/5 76/8/5 85/8/5
f 87/8/5 76/8/5 86/8/5
f 88/4/5 77/4/5 76/4/5
f 88/8/5 76/8/5 87/8/5
f 89/8/5 67/8/5 37/8/5
f 89/3/5 78/3/5 71/3/5
f 89/3/5 71/3/5 67/3/5
f 90/3/5 78/3/5 89/3/5
f 91/1/5 79/1/5 78/1/5
f 91/3/5 78/3/5 90/3/5
f 92/3/5 84/3/5 51/3/5
f 92/1/5 85/1/5 84/1/5
f 93/3/5 86/3/5 85/3/5
f 93/1/5 85/1/5 92/1/5
f 94/3/5 86/3/5 93/3/5
f 95/8/5 51/8/5 81/8/5
f 95/8/5 81/8/5 83/8/5
f 95/3/5 92/3/5 51/3/5
f 96/4/5 94/4/5 93/4/5
f 96/3/5 92/3/5 95/3/5
f 96/4/5 93/4/5 92/4/5
f 97/8/5 90/8/5 89/8/5
f 97/8/5 89/8/5 37/8/5
f 98/8/5 90/8/5 97/8/5
f 99/1/5 91/1/5 90/1/5
f 99/8/5 90/8/5 98/8/5
f 100/8/5 82/8/5 79/8/5
f 100/1/5 91/1/5 99/1/5
f 100/1/5 79/1/5 91/1/5
f 101/8/5 95/8/5 83/8/5
f 101/6/5 83/6/5 82/6/5
f 101/8/5 96/8/5 95/8/5
f 102/8/5 96/8/5 101/8/5
f 103/8/5 96/8/5 102/8/5
f 104/3/5 86/3/5 94/3/5
f 104/8/5 87/8/5 86/8/5
f 105/1/5 88/1/5 87/1/5
f 105/8/5 87/8/5 104/8/5
f 106/4/5 77/4/5 88/4/5
f 106/1/5 88/1/5 105/1/5
f 107/3/5 98/3/5 97/3/5
f 108/8/5 100/8/5 99/8/5
f 108/3/5 98/3/5 107/3/5
f 108/8/5 99/8/5 98/8/5
f 109/4/5 77/4/5 106/4/5
f 110/4/5 62/4/5 77/4/5
f 110/4/5 77/4/5 109/4/5
f 111/8/5 82/8/5 100/8/5
f 111/8/5 100/8/5 108/8/5
f 111/6/5 101/6/5 82/6/5
f 111/8/5 108/8/5 107/8/5
f 112/5/5 102/5/5 101/5/5
f 112/6/5 101/6/5 111/6/5
f 113/8/5 96/8/5 103/8/5
f 113/4/5 94/4/5 96/4/5
f 114/4/5 94/4/5 113/4/5
f 115/3/5 104/3/5 94/3/5
f 115/4/5 94/4/5 114/4/5
f 116/4/5 109/4/5 106/4/5
f 116/8/5 106/8/5 105/8/5
f 117/4/5 109/4/5 116/4/5
f 118/8/5 112/8/5 111/8/5
f 118/8/5 111/8/5 107/8/5
f 119/8/5 112/8/5 118/8/5
f 120/3/5 115/3/5 114/3/5
f 120/8/5 114/8/5 113/8/5
f 121/3/5 104/3/5 115/3/5
f 121/3/5 115/3/5 120/3/5
f 122/1/5 105/1/5 104/1/5
f 122/3/5 104/3/5 121/3/5
f 123/5/5 117/5/5 116/5/5
f 123/8/5 116/8/5 105/8/5
f 124/4/5 109/4/5 117/4/5
f 124/5/5 117/5/5 123/5/5
f 125/8/5 118/8/5 107/8/5
f 126/8/5 118/8/5 125/8/5
f 127/1/5 119/1/5 118/1/5
f 127/8/5 118/8/5 126/8/5
f 128/8/5 112/8/5 119/8/5
f 128/1/5 119/1/5 127/1/5
f 129/8/5 121/8/5 120/8/5
f 129/1/5 122/1/5 121/1/5
f 130/8/5 123/8/5 105/8/5
f 130/1/5 122/1/5 129/1/5
f 130/1/5 105/1/5 122/1/5
f 131/8/5 127/8/5 126/8/5
f 131/8/5 128/8/5 127/8/5
f 132/8/5 128/8/5 131/8/5
f 133/5/5 102/5/5 112/5/5
f 133/8/5 128/8/5 132/8/5
f 133/8/5 112/8/5 128/8/5
f 134/3/5 103/3/5 102/3/5
f 134/5/5 102/5/5 133/5/5
f 135/8/5 131/8/5 126/8/5
f 135/1/5 126/1/5 125/1/5
f 136/3/5 132/3/5 131/3/5
f 136/8/5 131/8/5 135/8/5
f 137/8/5 129/8/5 120/8/5
f 137/8/5 120/8/5 113/8/5
f 137/8/5 113/8/5 103/8/5
f 137/8/5 130/8/5 129/8/5
f 138/8/5 130/8/5 137/8/5
f 139/8/5 130/8/5 138/8/5
f 140/8/5 130/8/5 139/8/5
f 141/8/5 123/8/5 130/8/5
f 141/8/5 130/8/5 140/8/5
f 142/4/5 124/4/5 123/4/5
f 142/8/5 123/8/5 141/8/5
f 143/1/5 135/1/5 125/1/5
f 143/8/5 125/8/5 107/8/5
f 144/1/5 135/1/5 143/1/5
f 145/3/5 136/3/5 135/3/5
f 145/1/5 135/1/5 144/1/5
f 146/3/5 132/3/5 136/3/5
f 146/3/5 136/3/5 145/3/5
f 147/8/5 133/8/5 132/8/5
f 147/3/5 132/3/5 146/3/5
f 148/8/5 133/8/5 147/8/5
f 149/1/5 134/1/5 133/1/5
f 149/8/5 133/8/5 148/8/5
f 150/3/5 103/3/5 134/3/5
f 150/1/5 134/1/5 149/1/5
f 151/8/5 137/8/5 103/8/5
f 151/3/5 103/3/5 150/3/5
f 152/5/5 138/5/5 137/5/5
f 152/8/5 137/8/5 151/8/5
f 153/8/5 139/8/5 138/8/5
f 153/5/5 138/5/5 152/5/5
f 154/8/5 139/8/5 153/8/5
f 155/5/5 140/5/5 139/5/5
f 155/8/5 139/8/5 154/8/5
f 156/8/5 141/8/5 140/8/5
f 156/5/5 140/5/5 155/5/5
f 157/4/5 124/4/5 142/4/5
f 157/8/5 110/8/5 109/8/5
f 157/4/5 109/4/5 124/4/5
f 158/8/5 110/8/5 157/8/5
f 159/4/5 144/4/5 143/4/5
f 159/8/5 143/8/5 107/8/5
f 160/6/5 145/6/5 144/6/5
f 160/4/5 144/4/5 159/4/5
f 160/6/5 146/6/5 145/6/5
f 161/8/5 159/8/5 107/8/5
f 161/1/5 160/1/5 159/1/5
f 162/6/5 146/6/5 160/6/5
f 162/1/5 160/1/5 161/1/5
f 163/8/5 141/8/5 156/8/5
f 163/8/5 156/8/5 155/8/5
f 163/8/5 155/8/5 154/8/5
f 164/3/5 142/3/5 141/3/5
f 164/8/5 141/8/5 163/8/5
f 165/4/5 157/4/5 142/4/5
f 165/3/5 142/3/5 164/3/5
f 166/4/5 157/4/5 165/4/5
f 167/1/5 158/1/5 157/1/5
f 167/4/5 157/4/5 166/4/5
f 168/6/5 146/6/5 162/6/5
f 168/8/5 162/8/5 161/8/5
f 169/7/5 148/7/5 147/7/5
f 169/6/5 146/6/5 168/6/5
f 169/7/5 147/7/5 146/7/5
f 170/8/5 149/8/5 148/8/5
f 170/7/5 148/7/5 169/7/5
f 170/8/5 150/8/5 149/8/5
f 170/8/5 151/8/5 150/8/5
f 171/1/5 164/1/5 163/1/5
f 171/8/5 163/8/5 154/8/5
f 172/3/5 165/3/5 164/3/5
f 172/1/5 164/1/5 171/1/5
f 172/3/5 166/3/5 165/3/5
f 173/1/5 167/1/5 166/1/5
f 173/3/5 166/3/5 172/3/5
f 174/1/5 158/1/5 167/1/5
f 174/1/5 167/1/5 173/1/5
f 175/8/5 169/8/5 168/8/5
f 175/8/5 168/8/5 161/8/5
f 176/8/5 169/8/5 175/8/5
f 177/8/5 161/8/5 107/8/5
f 177/8/5 175/8/5 161/8/5
f 178/6/5 176/6/5 175/6/5
f 178/8/5 175/8/5 177/8/5
f 179/8/5 169/8/5 176/8/5
f 179/6/5 176/6/5 178/6/5
f 180/4/5 170/4/5 169/4/5
f 180/8/5 169/8/5 179/8/5
f 181/3/5 154/3/5 153/3/5
f 181/3/5 153/3/5 152/3/5
f 181/3/5 152/3/5 151/3/5
f 182/8/5 172/8/5 171/8/5
f 182/3/5 154/3/5 181/3/5
f 182/8/5 171/8/5 154/8/5
f 183/3/5 173/3/5 172/3/5
f 183/8/5 172/8/5 182/8/5
f 184/3/5 173/3/5 183/3/5
f 185/4/5 174/4/5 173/4/5
f 185/3/5 173/3/5 184/3/5
f 186/4/5 174/4/5 185/4/5
f 187/1/5 158/1/5 174/1/5
f 187/4/5 174/4/5 186/4/5
f 188/1/5 158/1/5 187/1/5
f 189/1/5 178/1/5 177/1/5
f 189/6/5 179/6/5 178/6/5
f 190/1/5 180/1/5 179/1/5
f 190/6/5 179/6/5 189/6/5
f 191/4/5 170/4/5 180/4/5
f 191/1/5 180/1/5 190/1/5
f 192/8/5 151/8/5 170/8/5
f 192/4/5 170/4/5 191/4/5
f 193/8/5 151/8/5 192/8/5
f 194/8/5 151/8/5 193/8/5
f 195/3/5 181/3/5 151/3/5
f 195/8/5 151/8/5 194/8/5
f 196/3/5 181/3/5 195/3/5
f 197/4/5 182/4/5 181/4/5
f 197/3/5 181/3/5 196/3/5
f 197/4/5 183/4/5 182/4/5
f 198/4/5 183/4/5 197/4/5
f 199/8/5 184/8/5 183/8/5
f 199/4/5 183/4/5 198/4/5
f 200/4/5 186/4/5 185/4/5
f 200/2/5 185/2/5 184/2/5
f 201/7/5 187/7/5 186/7/5
f 201/4/5 186/4/5 200/4/5
f 202/1/5 191/1/5 190/1/5
f 202/1/5 190/1/5 189/1/5
f 202/8/5 177/8/5 107/8/5
f 202/1/5 189/1/5 177/1/5
f 203/1/5 191/1/5 202/1/5
f 204/8/5 193/8/5 192/8/5
f 204/1/5 191/1/5 203/1/5
f 204/8/5 192/8/5 191/8/5
f 205/1/5 194/1/5 193/1/5
f 205/8/5 193/8/5 204/8/5
f 206/3/5 195/3/5 194/3/5
f 206/1/5 194/1/5 205/1/5
f 207/8/5 196/8/5 195/8/5
f 207/1/5 197/1/5 196/1/5
f 208/4/5 198/4/5 197/4/5
f 208/1/5 197/1/5 207/1/5
f 209/7/5 199/7/5 198/7/5
f 209/4/5 198/4/5 208/4/5
f 210/8/5 184/8/5 199/8/5
f 210/7/5 199/7/5 209/7/5
f 211/2/5 200/2/5 184/2/5
f 211/8/5 184/8/5 210/8/5
f 212/7/5 201/7/5 200/7/5
f 212/2/5 200/2/5 211/2/5
f 213/7/5 187/7/5 201/7/5
f 213/7/5 201/7/5 212/7/5
f 213/8/5 188/8/5 187/8/5
f 214/7/5 204/7/5 203/7/5
f 214/8/5 203/8/5 202/8/5
f 215/8/5 206/8/5 205/8/5
f 215/7/5 204/7/5 214/7/5
f 215/8/5 205/8/5 204/8/5
f 216/4/5 209/4/5 208/4/5
f 216/4/5 210/4/5 209/4/5
f 216/8/5 208/8/5 207/8/5
f 217/2/5 211/2/5 210/2/5
f 217/4/5 210/4/5 216/4/5
f 218/8/5 212/8/5 211/8/5
f 218/2/5 211/2/5 217/2/5
f 219/4/5 213/4/5 212/4/5
f 219/8/5 212/8/5 218/8/5
f 220/8/5 188/8/5 213/8/5
f 220/4/5 213/4/5 219/4/5
f 221/8/5 202/8/5 107/8/5
f 221/8/5 214/8/5 202/8/5
f 221/8/5 215/8/5 214/8/5
f 222/3/5 195/3/5 206/3/5
f 222/8/5 215/8/5 221/8/5
f 222/8/5 206/8/5 215/8/5
f 223/8/5 218/8/5 217/8/5
f 223/3/5 195/3/5 222/3/5
f 223/8/5 217/8/5 216/8/5
f 223/8/5 220/8/5 219/8/5
f 223/8/5 216/8/5 207/8/5
f 223/8/5 207/8/5 195/8/5
f 223/8/5 219/8/5 218/8/5
f 224/8/5 188/8/5 220/8/5
f 224/8/5 220/8/5 223/8/5
f 225/8/6 226/8/6 229/8/6
f 229/8/6 226/8/6 230/8/6
f 226/1/6 227/1/6 231/1/6
f 230/8/6 226/8/6 231/8/6
f 227/8/6 228/8/6 232/8/6
f 231/1/6 227/1/6 232/1/6
f 225/8/6 229/8/6 233/8/6
f 233/8/6 229/8/6 234/8/6
f 229/6/6 230/6/6 235/6/6
f 234/8/6 229/8/6 235/8/6
f 230/8/6 231/8/6 236/8/6
f 235/6/6 230/6/6 236/6/6
f 231/8/6 232/8/6 236/8/6
f 236/8/6 232/8/6 237/8/6
f 237/8/6 232/8/6 238/8/6
f 234/8/6 235/8/6 239/8/6
f 235/8/6 236/8/6 239/8/6
f 236/8/6 237/8/6 239/8/6
f 237/1/6 238/1/6 240/1/6
f 239/8/6 237/8/6 240/8/6
f 240/1/6 238/1/6 241/1/6
f 238/8/6 232/8/6 242/8/6
f 241/1/6 238/1/6 242/1/6
f 242/8/6 232/8/6 243/8/6
f 241/4/6 242/4/6 244/4/6
f 242/4/6 243/4/6 244/4/6
f 243/8/6 232/8/6 245/8/6
f 244/4/6 243/4/6 245/4/6
f 232/8/6 228/8/6 246/8/6
f 245/8/6 232/8/6 246/8/6
f 240/1/6 241/1/6 247/1/6
f 239/3/6 240/3/6 247/3/6
f 241/4/6 244/4/6 248/4/6
f 247/1/6 241/1/6 248/1/6
f 246/8/6 228/8/6 249/8/6
f 249/8/6 228/8/6 250/8/6
f 234/8/6 239/8/6 251/8/6
f 251/8/6 239/8/6 252/8/6
f 248/4/6 244/4/6 253/4/6
f 247/8/6 248/8/6 253/8/6
f 244/7/6 245/7/6 254/7/6
f 253/4/6 244/4/6 254/4/6
f 245/7/6 246/7/6 254/7/6
f 225/8/6 233/8/6 255/8/6
f 233/4/6 234/4/6 256/4/6
f 255/8/6 233/8/6 256/8/6
f 234/8/6 251/8/6 257/8/6
f 256/4/6 234/4/6 257/4/6
f 251/6/6 252/6/6 258/6/6
f 257/8/6 251/8/6 258/8/6
f 255/3/6 256/3/6 259/3/6
f 256/4/6 257/4/6 259/4/6
f 259/4/6 257/4/6 260/4/6
f 257/1/6 258/1/6 261/1/6
f 260/4/6 257/4/6 261/4/6
f 258/6/6 252/6/6 262/6/6
f 261/1/6 258/1/6 262/1/6
f 254/7/6 246/7/6 263/7/6
f 253/8/6 254/8/6 263/8/6
f 246/8/6 249/8/6 264/8/6
f 263/7/6 246/7/6 264/7/6
f 249/4/6 250/4/6 265/4/6
f 264/8/6 249/8/6 265/8/6
f 260/8/6 261/8/6 266/8/6
f 259/3/6 260/3/6 266/3/6
f 261/8/6 262/8/6 266/8/6
f 266/8/6 262/8/6 267/8/6
f 262/6/6 252/6/6 268/6/6
f 267/8/6 262/8/6 268/8/6
f 252/8/6 239/8/6 269/8/6
f 268/6/6 252/6/6 269/6/6
f 267/8/6 268/8/6 270/8/6
f 268/8/6 269/8/6 270/8/6
f 270/8/6 269/8/6 271/8/6
f 247/8/6 253/8/6 272/8/6
f 239/3/6 247/3/6 272/3/6
f 253/8/6 263/8/6 272/8/6
f 263/8/6 264/8/6 272/8/6
f 272/8/6 264/8/6 273/8/6
f 273/8/6 264/8/6 274/8/6
f 274/8/6 264/8/6 275/8/6
f 264/4/6 265/4/6 276/4/6
f 275/8/6 264/8/6 276/8/6
f 225/8/6 255/8/6 277/8/6
f 259/3/6 266/3/6 277/3/6
f 255/3/6 259/3/6 277/3/6
f 277/3/6 266/3/6 278/3/6
f 266/1/6 267/1/6 279/1/6
f 278/3/6 266/3/6 279/3/6
f 239/3/6 272/3/6 280/3/6
f 272/1/6 273/1/6 280/1/6
f 273/3/6 274/3/6 281/3/6
f 280/1/6 273/1/6 281/1/6
f 281/3/6 274/3/6 282/3/6
f 269/8/6 239/8/6 283/8/6
f 271/8/6 269/8/6 283/8/6
f 239/3/6 280/3/6 283/3/6
f 281/4/6 282/4/6 284/4/6
f 283/3/6 280/3/6 284/3/6
f 280/4/6 281/4/6 284/4/6
f 277/8/6 278/8/6 285/8/6
f 225/8/6 277/8/6 285/8/6
f 285/8/6 278/8/6 286/8/6
f 278/1/6 279/1/6 287/1/6
f 286/8/6 278/8/6 287/8/6
f 267/8/6 270/8/6 288/8/6
f 287/1/6 279/1/6 288/1/6
f 279/1/6 267/1/6 288/1/6
f 271/8/6 283/8/6 289/8/6
f 270/6/6 271/6/6 289/6/6
f 283/8/6 284/8/6 289/8/6
f 289/8/6 284/8/6 290/8/6
f 290/8/6 284/8/6 291/8/6
f 282/3/6 274/3/6 292/3/6
f 274/8/6 275/8/6 292/8/6
f 275/1/6 276/1/6 293/1/6
f 292/8/6 275/8/6 293/8/6
f 276/4/6 265/4/6 294/4/6
f 293/1/6 276/1/6 294/1/6
f 285/3/6 286/3/6 295/3/6
f 287/8/6 288/8/6 296/8/6
f 295/3/6 286/3/6 296/3/6
f 286/8/6 287/8/6 296/8/6
f 294/4/6 265/4/6 297/4/6
f 265/4/6 250/4/6 298/4/6
f 297/4/6 265/4/6 298/4/6
f 288/8/6 270/8/6 299/8/6
f 296/8/6 288/8/6 299/8/6
f 270/6/6 289/6/6 299/6/6
f 295/8/6 296/8/6 299/8/6
f 289/5/6 290/5/6 300/5/6
f 299/6/6 289/6/6 300/6/6
f 291/8/6 284/8/6 301/8/6
f 284/4/6 282/4/6 301/4/6
f 301/4/6 282/4/6 302/4/6
f 282/3/6 292/3/6 303/3/6
f 302/4/6 282/4/6 303/4/6
f 294/4/6 297/4/6 304/4/6
f 293/8/6 294/8/6 304/8/6
f 304/4/6 297/4/6 305/4/6
f 299/8/6 300/8/6 306/8/6
f 295/8/6 299/8/6 306/8/6
f 306/8/6 300/8/6 307/8/6
f 302/3/6 303/3/6 308/3/6
f 301/8/6 302/8/6 308/8/6
f 303/3/6 292/3/6 309/3/6
f 308/3/6 303/3/6 309/3/6
f 292/1/6 293/1/6 310/1/6
f 309/3/6 292/3/6 310/3/6
f 304/5/6 305/5/6 311/5/6
f 293/8/6 304/8/6 311/8/6
f 305/4/6 297/4/6 312/4/6
f 311/5/6 305/5/6 312/5/6
f 295/8/6 306/8/6 313/8/6
f 313/8/6 306/8/6 314/8/6
f 306/1/6 307/1/6 315/1/6
f 314/8/6 306/8/6 315/8/6
f 307/8/6 300/8/6 316/8/6
f 315/1/6 307/1/6 316/1/6
f 308/8/6 309/8/6 317/8/6
f 309/1/6 310/1/6 317/1/6
f 293/8/6 311/8/6 318/8/6
f 317/1/6 310/1/6 318/1/6
f 310/1/6 293/1/6 318/1/6
f 314/8/6 315/8/6 319/8/6
f 315/8/6 316/8/6 319/8/6
f 319/8/6 316/8/6 320/8/6
f 300/5/6 290/5/6 321/5/6
f 320/8/6 316/8/6 321/8/6
f 316/8/6 300/8/6 321/8/6
f 290/3/6 291/3/6 322/3/6
f 321/5/6 290/5/6 322/5/6
f 314/8/6 319/8/6 323/8/6
f 313/1/6 314/1/6 323/1/6
f 319/3/6 320/3/6 324/3/6
f 323/8/6 319/8/6 324/8/6
f 308/8/6 317/8/6 325/8/6
f 301/8/6 308/8/6 325/8/6
f 291/8/6 301/8/6 325/8/6
f 317/8/6 318/8/6 325/8/6
f 325/8/6 318/8/6 326/8/6
f 326/8/6 318/8/6 327/8/6
f 327/8/6 318/8/6 328/8/6
f 318/8/6 311/8/6 329/8/6
f 328/8/6 318/8/6 329/8/6
f 311/4/6 312/4/6 330/4/6
f 329/8/6 311/8/6 330/8/6
f 313/1/6 323/1/6 331/1/6
f 295/8/6 313/8/6 331/8/6
f 331/1/6 323/1/6 332/1/6
f 323/3/6 324/3/6 333/3/6
f 332/1/6 323/1/6 333/1/6
f 324/3/6 320/3/6 334/3/6
f 333/3/6 324/3/6 334/3/6
f 320/8/6 321/8/6 335/8/6
f 334/3/6 320/3/6 335/3/6
f 335/8/6 321/8/6 336/8/6
f 321/1/6 322/1/6 337/1/6
f 336/8/6 321/8/6 337/8/6
f 322/3/6 291/3/6 338/3/6
f 337/1/6 322/1/6 338/1/6
f 291/8/6 325/8/6 339/8/6
f 338/3/6 291/3/6 339/3/6
f 325/5/6 326/5/6 340/5/6
f 339/8/6 325/8/6 340/8/6
f 326/8/6 327/8/6 341/8/6
f 340/5/6 326/5/6 341/5/6
f 341/8/6 327/8/6 342/8/6
f 327/5/6 328/5/6 343/5/6
f 342/8/6 327/8/6 343/8/6
f 328/8/6 329/8/6 344/8/6
f 343/5/6 328/5/6 344/5/6
f 330/4/6 312/4/6 345/4/6
f 297/8/6 298/8/6 345/8/6
f 312/4/6 297/4/6 345/4/6
f 345/8/6 298/8/6 346/8/6
f 331/4/6 332/4/6 347/4/6
f 295/8/6 331/8/6 347/8/6
f 332/6/6 333/6/6 348/6/6
f 347/4/6 332/4/6 348/4/6
f 333/6/6 334/6/6 348/6/6
f 295/8/6 347/8/6 349/8/6
f 347/1/6 348/1/6 349/1/6
f 348/6/6 334/6/6 350/6/6
f 349/1/6 348/1/6 350/1/6
f 344/8/6 329/8/6 351/8/6
f 343/8/6 344/8/6 351/8/6
f 342/8/6 343/8/6 351/8/6
f 329/3/6 330/3/6 352/3/6
f 351/8/6 329/8/6 352/8/6
f 330/4/6 345/4/6 353/4/6
f 352/3/6 330/3/6 353/3/6
f 353/4/6 345/4/6 354/4/6
f 345/1/6 346/1/6 355/1/6
f 354/4/6 345/4/6 355/4/6
f 350/6/6 334/6/6 356/6/6
f 349/8/6 350/8/6 356/8/6
f 335/7/6 336/7/6 357/7/6
f 356/6/6 334/6/6 357/6/6
f 334/7/6 335/7/6 357/7/6
f 336/8/6 337/8/6 358/8/6
f 357/7/6 336/7/6 358/7/6
f 337/8/6 338/8/6 358/8/6
f 338/8/6 339/8/6 358/8/6
f 351/1/6 352/1/6 359/1/6
f 342/8/6 351/8/6 359/8/6
f 352/3/6 353/3/6 360/3/6
f 359/1/6 352/1/6 360/1/6
f 353/3/6 354/3/6 360/3/6
f 354/1/6 355/1/6 361/1/6
f 360/3/6 354/3/6 361/3/6
f 355/1/6 346/1/6 362/1/6
f 361/1/6 355/1/6 362/1/6
f 356/8/6 357/8/6 363/8/6
f 349/8/6 356/8/6 363/8/6
f 363/8/6 357/8/6 364/8/6
f 295/8/6 349/8/6 365/8/6
f 349/8/6 363/8/6 365/8/6
f 363/6/6 364/6/6 366/6/6
f 365/8/6 363/8/6 366/8/6
f 364/8/6 357/8/6 367/8/6
f 366/6/6 364/6/6 367/6/6
f 357/4/6 358/4/6 368/4/6
f 367/8/6 357/8/6 368/8/6
f 341/3/6 342/3/6 369/3/6
f 340/3/6 341/3/6 369/3/6
f 339/3/6 340/3/6 369/3/6
f 359/8/6 360/8/6 370/8/6
f 369/3/6 342/3/6 370/3/6
f 342/8/6 359/8/6 370/8/6
f 360/3/6 361/3/6 371/3/6
f 370/8/6 360/8/6 371/8/6
f 371/3/6 361/3/6 372/3/6
f 361/4/6 362/4/6 373/4/6
f 372/3/6 361/3/6 373/3/6
f 373/4/6 362/4/6 374/4/6
f 362/1/6 346/1/6 375/1/6
f 374/4/6 362/4/6 375/4/6
f 375/1/6 346/1/6 376/1/6
f 365/1/6 366/1/6 377/1/6
f 366/6/6 367/6/6 377/6/6
f 367/1/6 368/1/6 378/1/6
f 377/6/6 367/6/6 378/6/6
f 368/4/6 358/4/6 379/4/6
f 378/1/6 368/1/6 379/1/6
f 358/8/6 339/8/6 380/8/6
f 379/4/6 358/4/6 380/4/6
f 380/8/6 339/8/6 381/8/6
f 381/8/6 339/8/6 382/8/6
f 339/3/6 369/3/6 383/3/6
f 382/8/6 339/8/6 383/8/6
f 383/3/6 369/3/6 384/3/6
f 369/4/6 370/4/6 385/4/6
f 384/3/6 369/3/6 385/3/6
f 370/4/6 371/4/6 385/4/6
f 385/4/6 371/4/6 386/4/6
f 371/8/6 372/8/6 387/8/6
f 386/4/6 371/4/6 387/4/6
f 373/4/6 374/4/6 388/4/6
f 372/2/6 373/2/6 388/2/6
f 374/7/6 375/7/6 389/7/6
f 388/4/6 374/4/6 389/4/6
f 378/1/6 379/1/6 390/1/6
f 377/1/6 378/1/6 390/1/6
f 295/8/6 365/8/6 390/8/6
f 365/1/6 377/1/6 390/1/6
f 390/1/6 379/1/6 391/1/6
f 380/8/6 381/8/6 392/8/6
f 391/1/6 379/1/6 392/1/6
f 379/8/6 380/8/6 392/8/6
f 381/1/6 382/1/6 393/1/6
f 392/8/6 381/8/6 393/8/6
f 382/3/6 383/3/6 394/3/6
f 393/1/6 382/1/6 394/1/6
f 383/8/6 384/8/6 395/8/6
f 384/1/6 385/1/6 395/1/6
f 385/4/6 386/4/6 396/4/6
f 395/1/6 385/1/6 396/1/6
f 386/7/6 387/7/6 397/7/6
f 396/4/6 386/4/6 397/4/6
f 387/8/6 372/8/6 398/8/6
f 397/7/6 387/7/6 398/7/6
f 372/2/6 388/2/6 399/2/6
f 398/8/6 372/8/6 399/8/6
f 388/7/6 389/7/6 400/7/6
f 399/2/6 388/2/6 400/2/6
f 389/7/6 375/7/6 401/7/6
f 400/7/6 389/7/6 401/7/6
f 375/8/6 376/8/6 401/8/6
f 391/7/6 392/7/6 402/7/6
f 390/8/6 391/8/6 402/8/6
f 393/8/6 394/8/6 403/8/6
f 402/7/6 392/7/6 403/7/6
f 392/8/6 393/8/6 403/8/6
f 396/4/6 397/4/6 404/4/6
f 397/4/6 398/4/6 404/4/6
f 395/8/6 396/8/6 404/8/6
f 398/2/6 399/2/6 405/2/6
f 404/4/6 398/4/6 405/4/6
f 399/8/6 400/8/6 406/8/6
f 405/2/6 399/2/6 406/2/6
f 400/4/6 401/4/6 407/4/6
f 406/8/6 400/8/6 407/8/6
f 401/8/6 376/8/6 408/8/6
f 407/4/6 401/4/6 408/4/6
f 295/8/6 390/8/6 409/8/6
f 390/8/6 402/8/6 409/8/6
f 402/8/6 403/8/6 409/8/6
f 394/3/6 383/3/6 410/3/6
f 409/8/6 403/8/6 410/8/6
f 403/8/6 394/8/6 410/8/6
f 405/8/6 406/8/6 411/8/6
f 410/3/6 383/3/6 411/3/6
f 404/8/6 405/8/6 411/8/6
f 407/8/6 408/8/6 411/8/6
f 395/8/6 404/8/6 411/8/6
f 383/8/6 395/8/6 411/8/6
f 406/8/6 407/8/6 411/8/6
f 408/8/6 376/8/6 412/8/6
f 411/8/6 408/8/6 412/8/6
