# MagicaVoxel @ Ephtracy

# group
o 

# material
mtllib Shelf.mtl
usemtl palette

# normals
vn -1 0 0
vn 1 0 0
vn 0 0 1
vn 0 0 -1
vn 0 -1 0
vn 0 1 0

# texcoords
vt 0.154297 0.5
vt 0.732422 0.5
vt 0.962891 0.5
vt 0.966797 0.5
vt 0.978516 0.5
vt 0.986328 0.5
vt 0.990234 0.5

# verts
v -0.2 0 0.5
v -0.2 0 -0.5
v -0.2 0.2 0.5
v -0.2 0.2 -0.5
v -0.2 0.3 0.5
v -0.2 0.3 -0.5
v -0.2 0.5 0.5
v -0.2 0.5 -0.5
v -0.2 0.6 0.5
v -0.2 0.6 -0.5
v -0.2 0.7 0.5
v -0.2 0.7 -0.5
v -0.2 0.8 0.5
v -0.2 0.8 -0.5
v -0.2 0.9 0.5
v -0.2 0.9 -0.5
v -0.2 1 0.5
v -0.2 1 0.4
v -0.2 1 -0.4
v -0.2 1 -0.5
v -0.2 1.1 0.5
v -0.2 1.1 0.4
v -0.2 1.1 -0.4
v -0.2 1.1 -0.5
v 0.8 0 0.5
v 0.8 0 -0.5
v 0.8 0.2 0.5
v 0.8 0.2 -0.5
v 0.8 0.3 0.5
v 0.8 0.3 -0.5
v 0.8 0.5 0.5
v 0.8 0.5 -0.5
v 0.8 0.6 0.5
v 0.8 0.6 -0.5
v 0.8 0.7 0.5
v 0.8 0.7 -0.5
v 0.8 0.8 0.5
v 0.8 0.8 -0.5
v 0.8 0.9 0.5
v 0.8 0.9 -0.5
v 0.8 1 0.5
v 0.8 1 0.4
v 0.8 1 -0.4
v 0.8 1 -0.5
v 0.8 1.1 0.5
v 0.8 1.1 0.4
v 0.8 1.1 -0.4
v 0.8 1.1 -0.5
v -0.2 0 0.5
v -0.2 0.2 0.5
v -0.2 0.3 0.5
v -0.2 0.5 0.5
v -0.2 0.6 0.5
v -0.2 0.7 0.5
v -0.2 0.8 0.5
v -0.2 0.9 0.5
v -0.2 1 0.5
v -0.2 1.1 0.5
v -0.0999999 1 0.5
v -0.0999999 1.1 0.5
v 0.7 1 0.5
v 0.7 1.1 0.5
v 0.8 0 0.5
v 0.8 0.2 0.5
v 0.8 0.3 0.5
v 0.8 0.5 0.5
v 0.8 0.6 0.5
v 0.8 0.7 0.5
v 0.8 0.8 0.5
v 0.8 0.9 0.5
v 0.8 1 0.5
v 0.8 1.1 0.5
v -0.2 0 -0.5
v -0.2 0.2 -0.5
v -0.2 0.3 -0.5
v -0.2 0.5 -0.5
v -0.2 0.6 -0.5
v -0.2 0.7 -0.5
v -0.2 0.8 -0.5
v -0.2 0.9 -0.5
v -0.2 1 -0.5
v -0.2 1.1 -0.5
v -0.0999999 1 -0.5
v -0.0999999 1.1 -0.5
v 0.7 1 -0.5
v 0.7 1.1 -0.5
v 0.8 0 -0.5
v 0.8 0.2 -0.5
v 0.8 0.3 -0.5
v 0.8 0.5 -0.5
v 0.8 0.6 -0.5
v 0.8 0.7 -0.5
v 0.8 0.8 -0.5
v 0.8 0.9 -0.5
v 0.8 1 -0.5
v 0.8 1.1 -0.5
v -0.2 0 0.5
v 0.8 0 0.5
v -0.2 0 -0.5
v 0.8 0 -0.5
v -0.2 1.1 0.5
v -0.0999999 1.1 0.5
v 0.7 1.1 0.5
v 0.8 1.1 0.5
v -0.2 1.1 0.4
v -0.0999999 1.1 0.4
v 5.96046e-08 1.1 0.4
v 0.6 1.1 0.4
v 0.7 1.1 0.4
v 0.8 1.1 0.4
v -0.0999999 1.1 0.3
v 5.96046e-08 1.1 0.3
v 0.6 1.1 0.3
v 0.7 1.1 0.3
v 0.1 1.1 0.2
v 0.5 1.1 0.2
v 0.2 1.1 0.1
v 0.4 1.1 0.1
v 0.2 1.1 -0.1
v 0.4 1.1 -0.1
v 0.1 1.1 -0.2
v 0.5 1.1 -0.2
v -0.0999999 1.1 -0.3
v 5.96046e-08 1.1 -0.3
v 0.6 1.1 -0.3
v 0.7 1.1 -0.3
v -0.2 1.1 -0.4
v -0.0999999 1.1 -0.4
v 5.96046e-08 1.1 -0.4
v 0.6 1.1 -0.4
v 0.7 1.1 -0.4
v 0.8 1.1 -0.4
v -0.2 1.1 -0.5
v -0.0999999 1.1 -0.5
v 0.7 1.1 -0.5
v 0.8 1.1 -0.5

# faces
f 3/6/1 2/6/1 1/6/1
f 4/6/1 2/6/1 3/6/1
f 5/2/1 4/2/1 3/2/1
f 6/2/1 4/2/1 5/2/1
f 7/3/1 6/3/1 5/3/1
f 8/3/1 6/3/1 7/3/1
f 9/1/1 8/1/1 7/1/1
f 10/1/1 8/1/1 9/1/1
f 11/6/1 10/6/1 9/6/1
f 12/6/1 10/6/1 11/6/1
f 13/4/1 12/4/1 11/4/1
f 14/4/1 12/4/1 13/4/1
f 15/2/1 14/2/1 13/2/1
f 16/2/1 14/2/1 15/2/1
f 17/4/1 16/4/1 15/4/1
f 18/4/1 16/4/1 17/4/1
f 19/4/1 16/4/1 18/4/1
f 20/4/1 16/4/1 19/4/1
f 21/5/1 18/5/1 17/5/1
f 22/7/1 19/7/1 18/7/1
f 22/5/1 18/5/1 21/5/1
f 23/5/1 20/5/1 19/5/1
f 23/7/1 19/7/1 22/7/1
f 24/5/1 20/5/1 23/5/1
f 25/6/2 26/6/2 27/6/2
f 27/6/2 26/6/2 28/6/2
f 27/2/2 28/2/2 29/2/2
f 29/2/2 28/2/2 30/2/2
f 29/3/2 30/3/2 31/3/2
f 31/3/2 30/3/2 32/3/2
f 31/1/2 32/1/2 33/1/2
f 33/1/2 32/1/2 34/1/2
f 33/6/2 34/6/2 35/6/2
f 35/6/2 34/6/2 36/6/2
f 35/4/2 36/4/2 37/4/2
f 37/4/2 36/4/2 38/4/2
f 37/2/2 38/2/2 39/2/2
f 39/2/2 38/2/2 40/2/2
f 39/4/2 40/4/2 41/4/2
f 41/4/2 40/4/2 42/4/2
f 42/4/2 40/4/2 43/4/2
f 43/4/2 40/4/2 44/4/2
f 41/5/2 42/5/2 45/5/2
f 42/7/2 43/7/2 46/7/2
f 45/5/2 42/5/2 46/5/2
f 43/5/2 44/5/2 47/5/2
f 46/7/2 43/7/2 47/7/2
f 47/5/2 44/5/2 48/5/2
f 59/4/3 57/4/3 56/4/3
f 59/5/3 58/5/3 57/5/3
f 60/5/3 58/5/3 59/5/3
f 61/4/3 59/4/3 56/4/3
f 61/7/3 60/7/3 59/7/3
f 62/7/3 60/7/3 61/7/3
f 63/6/3 50/6/3 49/6/3
f 64/2/3 51/2/3 50/2/3
f 64/6/3 50/6/3 63/6/3
f 65/3/3 52/3/3 51/3/3
f 65/2/3 51/2/3 64/2/3
f 66/1/3 53/1/3 52/1/3
f 66/3/3 52/3/3 65/3/3
f 67/6/3 54/6/3 53/6/3
f 67/1/3 53/1/3 66/1/3
f 68/4/3 55/4/3 54/4/3
f 68/6/3 54/6/3 67/6/3
f 69/2/3 56/2/3 55/2/3
f 69/4/3 55/4/3 68/4/3
f 70/4/3 61/4/3 56/4/3
f 70/2/3 56/2/3 69/2/3
f 71/5/3 62/5/3 61/5/3
f 71/4/3 61/4/3 70/4/3
f 72/5/3 62/5/3 71/5/3
f 80/4/4 81/4/4 83/4/4
f 81/5/4 82/5/4 83/5/4
f 83/5/4 82/5/4 84/5/4
f 80/4/4 83/4/4 85/4/4
f 83/7/4 84/7/4 85/7/4
f 85/7/4 84/7/4 86/7/4
f 73/6/4 74/6/4 87/6/4
f 74/2/4 75/2/4 88/2/4
f 87/6/4 74/6/4 88/6/4
f 75/3/4 76/3/4 89/3/4
f 88/2/4 75/2/4 89/2/4
f 76/1/4 77/1/4 90/1/4
f 89/3/4 76/3/4 90/3/4
f 77/6/4 78/6/4 91/6/4
f 90/1/4 77/1/4 91/1/4
f 78/4/4 79/4/4 92/4/4
f 91/6/4 78/6/4 92/6/4
f 79/2/4 80/2/4 93/2/4
f 92/4/4 79/4/4 93/4/4
f 80/4/4 85/4/4 94/4/4
f 93/2/4 80/2/4 94/2/4
f 85/5/4 86/5/4 95/5/4
f 94/4/4 85/4/4 95/4/4
f 95/5/4 86/5/4 96/5/4
f 99/6/5 98/6/5 97/6/5
f 100/6/5 98/6/5 99/6/5
f 101/5/6 102/5/6 105/5/6
f 102/7/6 103/7/6 106/7/6
f 105/5/6 102/5/6 106/5/6
f 106/7/6 103/7/6 107/7/6
f 107/7/6 103/7/6 108/7/6
f 103/5/6 104/5/6 109/5/6
f 108/7/6 103/7/6 109/7/6
f 109/5/6 104/5/6 110/5/6
f 105/7/6 106/7/6 111/7/6
f 106/7/6 107/7/6 111/7/6
f 107/5/6 108/5/6 112/5/6
f 111/7/6 107/7/6 112/7/6
f 109/7/6 110/7/6 113/7/6
f 112/5/6 108/5/6 113/5/6
f 108/7/6 109/7/6 113/7/6
f 113/7/6 110/7/6 114/7/6
f 112/7/6 113/7/6 115/7/6
f 115/7/6 113/7/6 116/7/6
f 115/5/6 116/5/6 117/5/6
f 117/5/6 116/5/6 118/5/6
f 115/5/6 117/5/6 119/5/6
f 117/7/6 118/7/6 119/7/6
f 118/5/6 116/5/6 120/5/6
f 119/7/6 118/7/6 120/7/6
f 112/7/6 115/7/6 121/7/6
f 115/5/6 119/5/6 121/5/6
f 119/5/6 120/5/6 121/5/6
f 120/5/6 116/5/6 122/5/6
f 121/5/6 120/5/6 122/5/6
f 116/7/6 113/7/6 122/7/6
f 105/7/6 111/7/6 123/7/6
f 111/5/6 112/5/6 123/5/6
f 121/7/6 122/7/6 124/7/6
f 123/5/6 112/5/6 124/5/6
f 112/7/6 121/7/6 124/7/6
f 122/7/6 113/7/6 125/7/6
f 124/7/6 122/7/6 125/7/6
f 113/5/6 114/5/6 125/5/6
f 114/7/6 110/7/6 126/7/6
f 125/5/6 114/5/6 126/5/6
f 123/7/6 124/7/6 127/7/6
f 105/7/6 123/7/6 127/7/6
f 127/7/6 124/7/6 128/7/6
f 124/5/6 125/5/6 129/5/6
f 128/7/6 124/7/6 129/7/6
f 125/7/6 126/7/6 130/7/6
f 129/5/6 125/5/6 130/5/6
f 126/7/6 110/7/6 131/7/6
f 130/7/6 126/7/6 131/7/6
f 131/7/6 110/7/6 132/7/6
f 127/5/6 128/5/6 133/5/6
f 129/7/6 130/7/6 134/7/6
f 133/5/6 128/5/6 134/5/6
f 128/7/6 129/7/6 134/7/6
f 130/7/6 131/7/6 134/7/6
f 131/5/6 132/5/6 135/5/6
f 134/7/6 131/7/6 135/7/6
f 135/5/6 132/5/6 136/5/6
