# MagicaVoxel @ Ephtracy

# group
o 

# material
mtllib ShopTable.mtl
usemtl palette

# normals
vn -1 0 0
vn 1 0 0
vn 0 0 1
vn 0 0 -1
vn 0 -1 0
vn 0 1 0

# texcoords
vt 0.162109 0.5
vt 0.705078 0.5
vt 0.958984 0.5
vt 0.962891 0.5
vt 0.970703 0.5
vt 0.974609 0.5
vt 0.986328 0.5

# verts
v -2 1.1 1.1
v -2 1.1 -0.5
v -2 1.2 1.2
v -2 1.2 1.1
v -2 1.2 -0.5
v -2 1.2 -0.6
v -2 1.3 1.2
v -2 1.3 -0.6
v -2 1.4 1.2
v -2 1.4 -0.6
v -2 1.5 1.2
v -2 1.5 -0.6
v -1.9 1.1 1.2
v -1.9 1.1 1.1
v -1.9 1.1 -0.5
v -1.9 1.1 -0.6
v -1.9 1.2 1.2
v -1.9 1.2 1.1
v -1.9 1.2 -0.5
v -1.9 1.2 -0.6
v -1.8 0 0.3
v -1.8 0 -1
v -1.8 0.8 0.3
v -1.8 0.8 -1
v -1.5 0.5 0.6
v -1.5 0.5 0.3
v -1.5 0.8 0.6
v -1.5 0.8 0.3
v -1.5 0.8 -1.19209e-07
v -1.5 0.9 0.6
v -1.5 0.9 -1.19209e-07
v -1.5 1 0.6
v -1.5 1 -1.19209e-07
v -1.5 1.1 0.6
v -1.5 1.1 -1.19209e-07
v -1.5 0 -0.5
v -1.5 0 -0.9
v -1.5 0 -1
v -1.5 0.2 -0.9
v -1.5 0.2 -1
v -1.5 0.6 -1.19209e-07
v -1.5 0.6 -0.5
v -1.5 0.8 -1.19209e-07
v -1.5 0.8 -1
v 1.4 0 0.3
v 1.4 0 -0.5
v 1.4 0.5 0.3
v 1.4 0.5 -1.19209e-07
v 1.4 0.6 -1.19209e-07
v 1.4 0.6 -0.5
v 1.5 0.5 0.6
v 1.5 0.5 -1.19209e-07
v 1.5 0.8 0.6
v 1.5 0.8 -1.19209e-07
v 1.5 0.9 0.6
v 1.5 0.9 -1.19209e-07
v 1.5 1 0.6
v 1.5 1 -1.19209e-07
v 1.5 1.1 0.6
v 1.5 1.1 -1.19209e-07
v 1.8 1.1 1.2
v 1.8 1.1 1.1
v 1.8 1.1 -0.5
v 1.8 1.1 -0.6
v 1.8 1.2 1.2
v 1.8 1.2 1.1
v 1.8 1.2 -0.5
v 1.8 1.2 -0.6
v 1.9 1.1 1.1
v 1.9 1.1 -0.5
v 1.9 1.2 1.1
v 1.9 1.2 -0.5
v 2 1.2 1.2
v 2 1.2 -0.6
v 2 1.3 1.2
v 2 1.3 -0.6
v 2 1.4 1.2
v 2 1.4 -0.6
v 2 1.5 1.2
v 2 1.5 -0.6
v -2 1.2 1.2
v -2 1.3 1.2
v -2 1.4 1.2
v -2 1.5 1.2
v -1.9 1.1 1.2
v -1.9 1.2 1.2
v -0.7 1.4 1.2
v -0.7 1.5 1.2
v 0.7 1.4 1.2
v 0.7 1.5 1.2
v 1.6 1.4 1.2
v 1.6 1.5 1.2
v 1.8 1.1 1.2
v 1.8 1.2 1.2
v 2 1.2 1.2
v 2 1.3 1.2
v 2 1.4 1.2
v 2 1.5 1.2
v -2 1.1 1.1
v -2 1.2 1.1
v -1.9 1.1 1.1
v -1.9 1.2 1.1
v 1.8 1.1 1.1
v 1.8 1.2 1.1
v 1.9 1.1 1.1
v 1.9 1.2 1.1
v -1.5 0.5 0.6
v -1.5 0.8 0.6
v -1.5 0.9 0.6
v -1.5 1 0.6
v -1.5 1.1 0.6
v 1.5 0.5 0.6
v 1.5 0.8 0.6
v 1.5 0.9 0.6
v 1.5 1 0.6
v 1.5 1.1 0.6
v -1.8 0 0.3
v -1.8 0.8 0.3
v -1.5 0.5 0.3
v -1.5 0.8 0.3
v 1.4 0 0.3
v 1.4 0.5 0.3
v -1.5 0.6 -1.19209e-07
v -1.5 0.8 -1.19209e-07
v -1.5 0.9 -1.19209e-07
v -1.5 1 -1.19209e-07
v -1.5 1.1 -1.19209e-07
v 1.4 0.5 -1.19209e-07
v 1.4 0.6 -1.19209e-07
v 1.5 0.5 -1.19209e-07
v 1.5 0.8 -1.19209e-07
v 1.5 0.9 -1.19209e-07
v 1.5 1 -1.19209e-07
v 1.5 1.1 -1.19209e-07
v -2 1.1 -0.5
v -2 1.2 -0.5
v -1.9 1.1 -0.5
v -1.9 1.2 -0.5
v -1.5 0 -0.5
v -1.5 0.6 -0.5
v 1.4 0 -0.5
v 1.4 0.6 -0.5
v 1.8 1.1 -0.5
v 1.8 1.2 -0.5
v 1.9 1.1 -0.5
v 1.9 1.2 -0.5
v -2 1.2 -0.6
v -2 1.3 -0.6
v -2 1.4 -0.6
v -2 1.5 -0.6
v -1.9 1.1 -0.6
v -1.9 1.2 -0.6
v -1.5 1.4 -0.6
v -1.5 1.5 -0.6
v -0.5 1.4 -0.6
v -0.5 1.5 -0.6
v 2.38419e-07 1.4 -0.6
v 2.38419e-07 1.5 -0.6
v 1.8 1.1 -0.6
v 1.8 1.2 -0.6
v 2 1.2 -0.6
v 2 1.3 -0.6
v 2 1.4 -0.6
v 2 1.5 -0.6
v -1.8 0 -1
v -1.8 0.8 -1
v -1.6 0 -1
v -1.6 0.2 -1
v -1.5 0 -1
v -1.5 0.2 -1
v -1.5 0.8 -1
v -1.8 0 0.3
v 1.4 0 0.3
v -1.5 0 -0.5
v 1.4 0 -0.5
v -1.6 0 -0.9
v -1.5 0 -0.9
v -1.8 0 -1
v -1.6 0 -1
v -1.5 0 -1
v -1.5 0.5 0.6
v 1.5 0.5 0.6
v -1.5 0.5 0.3
v 1.4 0.5 0.3
v 1.4 0.5 -1.19209e-07
v 1.5 0.5 -1.19209e-07
v -1.9 1.1 1.2
v 1.8 1.1 1.2
v -2 1.1 1.1
v -1.9 1.1 1.1
v 1.8 1.1 1.1
v 1.9 1.1 1.1
v -1.5 1.1 0.6
v 1.5 1.1 0.6
v -1.5 1.1 -1.19209e-07
v 1.5 1.1 -1.19209e-07
v -2 1.1 -0.5
v -1.9 1.1 -0.5
v 1.8 1.1 -0.5
v 1.9 1.1 -0.5
v -1.9 1.1 -0.6
v 1.8 1.1 -0.6
v -2 1.2 1.2
v -1.9 1.2 1.2
v 1.8 1.2 1.2
v 2 1.2 1.2
v -2 1.2 1.1
v -1.9 1.2 1.1
v 1.8 1.2 1.1
v 1.9 1.2 1.1
v -2 1.2 -0.5
v -1.9 1.2 -0.5
v 1.8 1.2 -0.5
v 1.9 1.2 -0.5
v -2 1.2 -0.6
v -1.9 1.2 -0.6
v 1.8 1.2 -0.6
v 2 1.2 -0.6
v -1.5 0.6 -1.19209e-07
v 1.4 0.6 -1.19209e-07
v -1.5 0.6 -0.5
v 1.4 0.6 -0.5
v -1.8 0.8 0.3
v -1.5 0.8 0.3
v -1.5 0.8 -1.19209e-07
v -1.8 0.8 -1
v -1.5 0.8 -1
v -2 1.5 1.2
v -0.7 1.5 1.2
v 0.7 1.5 1.2
v 1.6 1.5 1.2
v 2 1.5 1.2
v -0.8 1.5 1.1
v -0.7 1.5 1.1
v 1.5 1.5 1.1
v 1.6 1.5 1.1
v -1 1.5 1
v -0.8 1.5 1
v 0.6 1.5 1
v 0.7 1.5 1
v 1.4 1.5 1
v 1.5 1.5 1
v 0.5 1.5 0.9
v 0.6 1.5 0.9
v 1.3 1.5 0.8
v 1.4 1.5 0.8
v -1.1 1.5 0.7
v -1 1.5 0.7
v 0.3 1.5 0.7
v 0.5 1.5 0.7
v 1.2 1.5 0.7
v 1.3 1.5 0.7
v -1.2 1.5 0.6
v -1.1 1.5 0.6
v 1.1 1.5 0.6
v 1.2 1.5 0.6
v 1 1.5 0.5
v 1.1 1.5 0.5
v -1.3 1.5 0.4
v -1.2 1.5 0.4
v 0.2 1.5 0.4
v 0.3 1.5 0.4
v 0.9 1.5 0.4
v 1 1.5 0.4
v 0.1 1.5 0.3
v 0.2 1.5 0.3
v -1.5 1.5 0.2
v -1.3 1.5 0.2
v 2.38419e-07 1.5 0.2
v 0.1 1.5 0.2
v 0.8 1.5 0.2
v 0.9 1.5 0.2
v -0.0999999 1.5 0.0999999
v 2.38419e-07 1.5 0.0999999
v 0.7 1.5 0.0999999
v 0.8 1.5 0.0999999
v -1.6 1.5 -1.19209e-07
v -1.5 1.5 -1.19209e-07
v -0.2 1.5 -1.19209e-07
v -0.0999999 1.5 -1.19209e-07
v 0.6 1.5 -1.19209e-07
v 0.7 1.5 -1.19209e-07
v 0.5 1.5 -0.1
v 0.6 1.5 -0.1
v -0.3 1.5 -0.2
v -0.2 1.5 -0.2
v 0.4 1.5 -0.2
v 0.5 1.5 -0.2
v 0.2 1.5 -0.3
v 0.4 1.5 -0.3
v -0.4 1.5 -0.4
v -0.3 1.5 -0.4
v 0.1 1.5 -0.4
v 0.2 1.5 -0.4
v -1.6 1.5 -0.5
v -1.5 1.5 -0.5
v -0.5 1.5 -0.5
v -0.4 1.5 -0.5
v 2.38419e-07 1.5 -0.5
v 0.1 1.5 -0.5
v -2 1.5 -0.6
v -1.5 1.5 -0.6
v -0.5 1.5 -0.6
v 2.38419e-07 1.5 -0.6
v 2 1.5 -0.6

# faces
f 4/6/1 2/6/1 1/6/1
f 5/6/1 2/6/1 4/6/1
f 7/3/1 4/3/1 3/3/1
f 7/3/1 6/3/1 5/3/1
f 7/3/1 5/3/1 4/3/1
f 8/3/1 6/3/1 7/3/1
f 9/2/1 8/2/1 7/2/1
f 10/2/1 8/2/1 9/2/1
f 11/3/1 10/3/1 9/3/1
f 12/3/1 10/3/1 11/3/1
f 17/6/1 14/6/1 13/6/1
f 18/6/1 14/6/1 17/6/1
f 19/6/1 16/6/1 15/6/1
f 20/6/1 16/6/1 19/6/1
f 23/7/1 22/7/1 21/7/1
f 24/7/1 22/7/1 23/7/1
f 27/3/1 26/3/1 25/3/1
f 28/3/1 26/3/1 27/3/1
f 30/1/1 28/1/1 27/1/1
f 30/1/1 29/1/1 28/1/1
f 31/1/1 29/1/1 30/1/1
f 32/7/1 31/7/1 30/7/1
f 33/7/1 31/7/1 32/7/1
f 34/3/1 33/3/1 32/3/1
f 35/3/1 33/3/1 34/3/1
f 36/7/2 37/7/2 39/7/2
f 37/4/2 38/4/2 39/4/2
f 39/4/2 38/4/2 40/4/2
f 36/7/2 39/7/2 42/7/2
f 39/7/2 40/7/2 42/7/2
f 41/7/2 42/7/2 43/7/2
f 42/7/2 40/7/2 44/7/2
f 43/7/2 42/7/2 44/7/2
f 45/7/2 46/7/2 47/7/2
f 47/7/2 46/7/2 48/7/2
f 48/7/2 46/7/2 49/7/2
f 49/7/2 46/7/2 50/7/2
f 51/3/2 52/3/2 53/3/2
f 53/3/2 52/3/2 54/3/2
f 53/1/2 54/1/2 55/1/2
f 55/1/2 54/1/2 56/1/2
f 55/7/2 56/7/2 57/7/2
f 57/7/2 56/7/2 58/7/2
f 57/3/2 58/3/2 59/3/2
f 59/3/2 58/3/2 60/3/2
f 61/6/2 62/6/2 65/6/2
f 65/6/2 62/6/2 66/6/2
f 63/6/2 64/6/2 67/6/2
f 67/6/2 64/6/2 68/6/2
f 69/6/2 70/6/2 71/6/2
f 71/6/2 70/6/2 72/6/2
f 73/3/2 74/3/2 75/3/2
f 75/3/2 74/3/2 76/3/2
f 75/2/2 76/2/2 77/2/2
f 77/2/2 76/2/2 78/2/2
f 77/6/2 78/6/2 79/6/2
f 79/6/2 78/6/2 80/6/2
f 86/3/3 82/3/3 81/3/3
f 87/3/3 84/3/3 83/3/3
f 87/2/3 83/2/3 82/2/3
f 88/3/3 84/3/3 87/3/3
f 89/2/3 87/2/3 82/2/3
f 89/4/3 88/4/3 87/4/3
f 90/4/3 88/4/3 89/4/3
f 91/2/3 89/2/3 82/2/3
f 91/5/3 90/5/3 89/5/3
f 92/5/3 90/5/3 91/5/3
f 93/6/3 86/6/3 85/6/3
f 94/3/3 82/3/3 86/3/3
f 94/6/3 86/6/3 93/6/3
f 95/3/3 82/3/3 94/3/3
f 96/2/3 91/2/3 82/2/3
f 96/3/3 82/3/3 95/3/3
f 97/6/3 92/6/3 91/6/3
f 97/2/3 91/2/3 96/2/3
f 98/6/3 92/6/3 97/6/3
f 101/6/3 100/6/3 99/6/3
f 102/6/3 100/6/3 101/6/3
f 105/6/3 104/6/3 103/6/3
f 106/6/3 104/6/3 105/6/3
f 112/3/3 108/3/3 107/3/3
f 113/1/3 109/1/3 108/1/3
f 113/3/3 108/3/3 112/3/3
f 114/7/3 110/7/3 109/7/3
f 114/1/3 109/1/3 113/1/3
f 115/3/3 111/3/3 110/3/3
f 115/7/3 110/7/3 114/7/3
f 116/3/3 111/3/3 115/3/3
f 119/7/3 118/7/3 117/7/3
f 120/7/3 118/7/3 119/7/3
f 121/7/3 119/7/3 117/7/3
f 122/7/3 119/7/3 121/7/3
f 123/3/4 124/3/4 129/3/4
f 128/3/4 129/3/4 130/3/4
f 124/1/4 125/1/4 131/1/4
f 130/3/4 129/3/4 131/3/4
f 129/3/4 124/3/4 131/3/4
f 125/7/4 126/7/4 132/7/4
f 131/1/4 125/1/4 132/1/4
f 126/3/4 127/3/4 133/3/4
f 132/7/4 126/7/4 133/7/4
f 133/3/4 127/3/4 134/3/4
f 135/6/4 136/6/4 137/6/4
f 137/6/4 136/6/4 138/6/4
f 139/7/4 140/7/4 141/7/4
f 141/7/4 140/7/4 142/7/4
f 143/6/4 144/6/4 145/6/4
f 145/6/4 144/6/4 146/6/4
f 147/3/4 148/3/4 152/3/4
f 149/3/4 150/3/4 153/3/4
f 148/2/4 149/2/4 153/2/4
f 153/3/4 150/3/4 154/3/4
f 148/2/4 153/2/4 155/2/4
f 153/4/4 154/4/4 155/4/4
f 155/4/4 154/4/4 156/4/4
f 148/2/4 155/2/4 157/2/4
f 155/5/4 156/5/4 157/5/4
f 157/5/4 156/5/4 158/5/4
f 151/6/4 152/6/4 159/6/4
f 152/3/4 148/3/4 160/3/4
f 159/6/4 152/6/4 160/6/4
f 160/3/4 148/3/4 161/3/4
f 148/2/4 157/2/4 162/2/4
f 161/3/4 148/3/4 162/3/4
f 157/6/4 158/6/4 163/6/4
f 162/2/4 157/2/4 163/2/4
f 163/6/4 158/6/4 164/6/4
f 165/7/4 166/7/4 167/7/4
f 167/7/4 166/7/4 168/7/4
f 167/4/4 168/4/4 169/4/4
f 168/7/4 166/7/4 170/7/4
f 169/4/4 168/4/4 170/4/4
f 170/7/4 166/7/4 171/7/4
f 174/7/5 173/7/5 172/7/5
f 175/7/5 173/7/5 174/7/5
f 176/7/5 174/7/5 172/7/5
f 177/7/5 174/7/5 176/7/5
f 178/7/5 176/7/5 172/7/5
f 179/4/5 177/4/5 176/4/5
f 179/7/5 176/7/5 178/7/5
f 180/4/5 177/4/5 179/4/5
f 183/3/5 182/3/5 181/3/5
f 184/3/5 182/3/5 183/3/5
f 185/3/5 182/3/5 184/3/5
f 186/3/5 182/3/5 185/3/5
f 190/6/5 188/6/5 187/6/5
f 191/6/5 188/6/5 190/6/5
f 193/6/5 190/6/5 189/6/5
f 193/6/5 192/6/5 191/6/5
f 193/6/5 191/6/5 190/6/5
f 194/6/5 192/6/5 193/6/5
f 195/6/5 193/6/5 189/6/5
f 196/6/5 192/6/5 194/6/5
f 197/6/5 195/6/5 189/6/5
f 197/6/5 196/6/5 195/6/5
f 198/6/5 196/6/5 197/6/5
f 199/6/5 192/6/5 196/6/5
f 199/6/5 196/6/5 198/6/5
f 200/6/5 192/6/5 199/6/5
f 201/6/5 199/6/5 198/6/5
f 202/6/5 199/6/5 201/6/5
f 207/3/5 204/3/5 203/3/5
f 208/3/5 204/3/5 207/3/5
f 209/3/5 206/3/5 205/3/5
f 210/3/5 206/3/5 209/3/5
f 214/3/5 206/3/5 210/3/5
f 215/3/5 212/3/5 211/3/5
f 216/3/5 212/3/5 215/3/5
f 217/3/5 214/3/5 213/3/5
f 218/3/5 206/3/5 214/3/5
f 218/3/5 214/3/5 217/3/5
f 219/7/6 220/7/6 221/7/6
f 221/7/6 220/7/6 222/7/6
f 223/7/6 224/7/6 225/7/6
f 223/7/6 225/7/6 226/7/6
f 226/7/6 225/7/6 227/7/6
f 228/3/6 229/3/6 233/3/6
f 229/4/6 230/4/6 234/4/6
f 233/3/6 229/3/6 234/3/6
f 230/5/6 231/5/6 235/5/6
f 231/6/6 232/6/6 236/6/6
f 235/5/6 231/5/6 236/5/6
f 228/3/6 233/3/6 237/3/6
f 233/4/6 234/4/6 238/4/6
f 237/3/6 233/3/6 238/3/6
f 234/4/6 230/4/6 239/4/6
f 238/4/6 234/4/6 239/4/6
f 230/5/6 235/5/6 240/5/6
f 239/4/6 230/4/6 240/4/6
f 240/5/6 235/5/6 241/5/6
f 235/6/6 236/6/6 242/6/6
f 241/5/6 235/5/6 242/5/6
f 238/4/6 239/4/6 243/4/6
f 237/4/6 238/4/6 243/4/6
f 240/5/6 241/5/6 244/5/6
f 243/4/6 239/4/6 244/4/6
f 239/5/6 240/5/6 244/5/6
f 243/5/6 244/5/6 245/5/6
f 244/5/6 241/5/6 245/5/6
f 241/6/6 242/6/6 246/6/6
f 245/5/6 241/5/6 246/5/6
f 228/3/6 237/3/6 247/3/6
f 237/4/6 243/4/6 248/4/6
f 247/3/6 237/3/6 248/3/6
f 248/4/6 243/4/6 249/4/6
f 243/5/6 245/5/6 250/5/6
f 249/4/6 243/4/6 250/4/6
f 250/5/6 245/5/6 251/5/6
f 245/6/6 246/6/6 252/6/6
f 251/5/6 245/5/6 252/5/6
f 228/3/6 247/3/6 253/3/6
f 248/4/6 249/4/6 254/4/6
f 253/3/6 247/3/6 254/3/6
f 247/4/6 248/4/6 254/4/6
f 250/5/6 251/5/6 255/5/6
f 249/5/6 250/5/6 255/5/6
f 251/6/6 252/6/6 256/6/6
f 255/5/6 251/5/6 256/5/6
f 249/5/6 255/5/6 257/5/6
f 255/6/6 256/6/6 258/6/6
f 257/5/6 255/5/6 258/5/6
f 228/3/6 253/3/6 259/3/6
f 253/4/6 254/4/6 260/4/6
f 259/3/6 253/3/6 260/3/6
f 254/4/6 249/4/6 261/4/6
f 260/4/6 254/4/6 261/4/6
f 249/5/6 257/5/6 262/5/6
f 261/4/6 249/4/6 262/4/6
f 262/5/6 257/5/6 263/5/6
f 257/6/6 258/6/6 264/6/6
f 263/5/6 257/5/6 264/5/6
f 259/4/6 260/4/6 265/4/6
f 260/4/6 261/4/6 265/4/6
f 262/5/6 263/5/6 266/5/6
f 265/4/6 261/4/6 266/4/6
f 261/5/6 262/5/6 266/5/6
f 228/3/6 259/3/6 267/3/6
f 259/4/6 265/4/6 268/4/6
f 267/3/6 259/3/6 268/3/6
f 268/4/6 265/4/6 269/4/6
f 265/5/6 266/5/6 270/5/6
f 269/4/6 265/4/6 270/4/6
f 266/5/6 263/5/6 271/5/6
f 270/5/6 266/5/6 271/5/6
f 263/6/6 264/6/6 272/6/6
f 271/5/6 263/5/6 272/5/6
f 268/4/6 269/4/6 273/4/6
f 267/4/6 268/4/6 273/4/6
f 269/5/6 270/5/6 274/5/6
f 273/4/6 269/4/6 274/4/6
f 270/5/6 271/5/6 274/5/6
f 274/5/6 271/5/6 275/5/6
f 271/6/6 272/6/6 276/6/6
f 275/5/6 271/5/6 276/5/6
f 228/3/6 267/3/6 277/3/6
f 267/4/6 273/4/6 278/4/6
f 277/3/6 267/3/6 278/3/6
f 278/4/6 273/4/6 279/4/6
f 274/5/6 275/5/6 280/5/6
f 279/4/6 273/4/6 280/4/6
f 273/5/6 274/5/6 280/5/6
f 280/5/6 275/5/6 281/5/6
f 275/6/6 276/6/6 282/6/6
f 281/5/6 275/5/6 282/5/6
f 280/5/6 281/5/6 283/5/6
f 279/5/6 280/5/6 283/5/6
f 281/6/6 282/6/6 284/6/6
f 283/5/6 281/5/6 284/5/6
f 278/4/6 279/4/6 285/4/6
f 277/4/6 278/4/6 285/4/6
f 279/5/6 283/5/6 286/5/6
f 285/4/6 279/4/6 286/4/6
f 286/5/6 283/5/6 287/5/6
f 283/6/6 284/6/6 288/6/6
f 287/5/6 283/5/6 288/5/6
f 286/5/6 287/5/6 289/5/6
f 285/5/6 286/5/6 289/5/6
f 287/6/6 288/6/6 290/6/6
f 289/5/6 287/5/6 290/5/6
f 277/4/6 285/4/6 291/4/6
f 285/5/6 289/5/6 292/5/6
f 291/4/6 285/4/6 292/4/6
f 292/5/6 289/5/6 293/5/6
f 289/6/6 290/6/6 294/6/6
f 293/5/6 289/5/6 294/5/6
f 228/3/6 277/3/6 295/3/6
f 277/4/6 291/4/6 295/4/6
f 295/4/6 291/4/6 296/4/6
f 296/4/6 291/4/6 297/4/6
f 292/5/6 293/5/6 298/5/6
f 297/4/6 291/4/6 298/4/6
f 291/5/6 292/5/6 298/5/6
f 298/5/6 293/5/6 299/5/6
f 293/6/6 294/6/6 300/6/6
f 299/5/6 293/5/6 300/5/6
f 295/3/6 296/3/6 301/3/6
f 228/3/6 295/3/6 301/3/6
f 296/4/6 297/4/6 302/4/6
f 301/3/6 296/3/6 302/3/6
f 298/5/6 299/5/6 303/5/6
f 302/4/6 297/4/6 303/4/6
f 297/5/6 298/5/6 303/5/6
f 299/6/6 300/6/6 304/6/6
f 303/5/6 299/5/6 304/5/6
f 242/6/6 236/6/6 305/6/6
f 304/6/6 300/6/6 305/6/6
f 236/6/6 232/6/6 305/6/6
f 258/6/6 256/6/6 305/6/6
f 300/6/6 294/6/6 305/6/6
f 246/6/6 242/6/6 305/6/6
f 252/6/6 246/6/6 305/6/6
f 290/6/6 288/6/6 305/6/6
f 282/6/6 276/6/6 305/6/6
f 288/6/6 284/6/6 305/6/6
f 272/6/6 264/6/6 305/6/6
f 276/6/6 272/6/6 305/6/6
f 284/6/6 282/6/6 305/6/6
f 294/6/6 290/6/6 305/6/6
f 256/6/6 252/6/6 305/6/6
f 264/6/6 258/6/6 305/6/6
