# MagicaVoxel @ Ephtracy

# group
o 

# material
mtllib Body.mtl
usemtl palette

# normals
vn -1 0 0
vn 1 0 0
vn 0 0 1
vn 0 0 -1
vn 0 -1 0
vn 0 1 0

# texcoords
vt 0.841797 0.5
vt 0.994141 0.5

# verts
v -1.5 0.5 -0.5
v -1.5 0.5 -0.6
v -1.5 0.8 -0.5
v -1.5 0.8 -0.6
v -1.5 1.1 -0.5
v -1.5 1.1 -0.6
v -1.5 1.4 -0.5
v -1.5 1.4 -0.6
v -1.5 1.7 -0.5
v -1.5 1.7 -0.6
v -1.5 1.9 -0.5
v -1.5 1.9 -0.6
v -1.4 0.5 0.2
v -1.4 0.5 -0.5
v -1.4 0.8 0.1
v -1.4 0.8 -0.5
v -1.4 0.9 0.1
v -1.4 0.9 -0.5
v -1.4 1.1 -0.5
v -1.4 1.4 0.1
v -1.4 1.4 -0.5
v -1.4 1.5 0.1
v -1.4 1.5 -0.5
v -1.4 1.7 -0.5
v -1.4 1.9 0.2
v -1.4 1.9 -0.5
v -1.2 0.5 0.4
v -1.2 0.5 0.2
v -1.2 1.1 0.4
v -1.2 1.1 0.3
v -1.2 1.2 0.4
v -1.2 1.2 0.3
v -1.2 1.7 0.4
v -1.2 1.7 0.3
v -1.2 1.8 0.4
v -1.2 1.8 0.3
v -1.2 1.9 0.4
v -1.2 1.9 0.2
v -1 0.5 -0.6
v -1 0.5 -0.7
v -1 0.8 -0.6
v -1 0.8 -0.7
v -1 1.1 -0.6
v -1 1.1 -0.7
v -1 1.4 -0.6
v -1 1.4 -0.7
v -1 1.7 -0.6
v -1 1.7 -0.7
v -1 1.9 -0.6
v -1 1.9 -0.7
v -0.9 0.5 -0.7
v -0.9 0.5 -0.8
v -0.9 0.8 -0.7
v -0.9 0.8 -0.8
v -0.9 1.1 -0.7
v -0.9 1.1 -0.8
v -0.9 1.4 -0.7
v -0.9 1.4 -0.8
v -0.9 1.7 -0.7
v -0.9 1.7 -0.8
v -0.9 1.9 -0.7
v -0.9 1.9 -0.8
v -0.3 0.5 -0.8
v -0.3 0.5 -0.9
v -0.3 0.8 -0.8
v -0.3 0.8 -0.9
v -0.3 1.1 -0.8
v -0.3 1.1 -0.9
v -0.3 1.4 -0.8
v -0.3 1.4 -0.9
v -0.3 1.7 -0.8
v -0.3 1.7 -0.9
v -0.3 1.9 -0.8
v -0.3 1.9 -0.9
v -0.1 0.5 -0.9
v -0.1 0.5 -1
v -0.1 0.8 -0.9
v -0.1 0.8 -1
v -0.1 1.1 -0.9
v -0.1 1.1 -1
v -0.1 1.4 -0.9
v -0.1 1.4 -1
v -0.1 1.7 -0.9
v -0.1 1.7 -1
v -0.1 1.9 -0.9
v -0.1 1.9 -1
v -0.9 0.5 0.4
v -0.9 0.5 0.3
v -0.9 1.1 0.4
v -0.9 1.1 0.3
v -0.9 1.2 0.4
v -0.9 1.2 0.3
v -0.9 1.7 0.4
v -0.9 1.7 0.3
v -0.9 1.8 0.4
v -0.9 1.8 0.3
v -0.9 1.9 0.4
v -0.9 1.9 0.3
v -0.7 0.5 0.3
v -0.7 0.5 0.2
v -0.7 1.1 0.3
v -0.7 1.1 0.2
v -0.7 1.2 0.3
v -0.7 1.2 0.2
v -0.7 1.7 0.3
v -0.7 1.7 0.2
v -0.7 1.8 0.3
v -0.7 1.8 0.2
v -0.7 1.9 0.3
v -0.7 1.9 0.2
v -0.1 0.5 0.2
v -0.1 0.5 0.1
v -0.1 1.1 0.2
v -0.1 1.1 0.1
v -0.1 1.2 0.2
v -0.1 1.2 0.1
v -0.1 1.7 0.2
v -0.1 1.7 0.1
v -0.1 1.8 0.2
v -0.1 1.8 0.1
v -0.1 1.9 0.2
v -0.1 1.9 0.1
v 0 0.5 0.1
v 0 0.5 0
v 0 1.1 0.1
v 0 1.1 0
v 0 1.2 0.1
v 0 1.2 0
v 0 1.7 0.1
v 0 1.7 0
v 0 1.8 0.1
v 0 1.8 0
v 0 1.9 0.1
v 0 1.9 0
v 0.2 0.5 -0.8
v 0.2 0.5 -1
v 0.2 0.8 -0.8
v 0.2 0.8 -1
v 0.2 0.9 -0.8
v 0.2 0.9 -0.9
v 0.2 1.1 -0.9
v 0.2 1.1 -1
v 0.2 1.4 -0.8
v 0.2 1.4 -1
v 0.2 1.5 -0.8
v 0.2 1.5 -0.9
v 0.2 1.7 -0.9
v 0.2 1.7 -1
v 0.2 1.9 -0.8
v 0.2 1.9 -1
v 0.4 0.5 -0.1
v 0.4 0.5 -0.8
v 0.4 0.8 -0.1
v 0.4 0.8 -0.8
v 0.4 0.9 -0.1
v 0.4 0.9 -0.8
v 0.4 1.1 -0.1
v 0.4 1.2 -0.1
v 0.4 1.4 -0.1
v 0.4 1.4 -0.8
v 0.4 1.5 -0.1
v 0.4 1.5 -0.8
v 0.4 1.7 -0.1
v 0.4 1.8 -0.1
v 0.4 1.9 -0.1
v 0.4 1.9 -0.8
v 0.5 0.5 0
v 0.5 0.5 -0.1
v 0.5 1.1 0
v 0.5 1.1 -0.1
v 0.5 1.2 0
v 0.5 1.2 -0.1
v 0.5 1.7 0
v 0.5 1.7 -0.1
v 0.5 1.8 0
v 0.5 1.8 -0.1
v 0.5 1.9 0
v 0.5 1.9 -0.1
v -1.2 0.5 0.4
v -1.2 1.1 0.4
v -1.2 1.2 0.4
v -1.2 1.7 0.4
v -1.2 1.8 0.4
v -1.2 1.9 0.4
v -0.9 0.5 0.4
v -0.9 1.1 0.4
v -0.9 1.2 0.4
v -0.9 1.7 0.4
v -0.9 1.8 0.4
v -0.9 1.9 0.4
v -0.9 0.5 0.3
v -0.9 1.1 0.3
v -0.9 1.2 0.3
v -0.9 1.7 0.3
v -0.9 1.8 0.3
v -0.9 1.9 0.3
v -0.7 0.5 0.3
v -0.7 1.1 0.3
v -0.7 1.2 0.3
v -0.7 1.7 0.3
v -0.7 1.8 0.3
v -0.7 1.9 0.3
v -1.4 0.5 0.2
v -1.4 1.9 0.2
v -1.2 0.5 0.2
v -1.2 1.9 0.2
v -0.7 0.5 0.2
v -0.7 1.1 0.2
v -0.7 1.2 0.2
v -0.7 1.7 0.2
v -0.7 1.8 0.2
v -0.7 1.9 0.2
v -0.1 0.5 0.2
v -0.1 1.1 0.2
v -0.1 1.2 0.2
v -0.1 1.7 0.2
v -0.1 1.8 0.2
v -0.1 1.9 0.2
v -0.1 0.5 0.1
v -0.1 1.1 0.1
v -0.1 1.2 0.1
v -0.1 1.7 0.1
v -0.1 1.8 0.1
v -0.1 1.9 0.1
v 0 0.5 0.1
v 0 1.1 0.1
v 0 1.2 0.1
v 0 1.7 0.1
v 0 1.8 0.1
v 0 1.9 0.1
v 0 0.5 0
v 0 1.1 0
v 0 1.2 0
v 0 1.7 0
v 0 1.8 0
v 0 1.9 0
v 0.5 0.5 0
v 0.5 1.1 0
v 0.5 1.2 0
v 0.5 1.7 0
v 0.5 1.8 0
v 0.5 1.9 0
v -1.5 0.5 -0.5
v -1.5 0.8 -0.5
v -1.5 1.1 -0.5
v -1.5 1.4 -0.5
v -1.5 1.7 -0.5
v -1.5 1.9 -0.5
v -1.4 0.5 -0.5
v -1.4 0.8 -0.5
v -1.4 0.9 -0.5
v -1.4 1.1 -0.5
v -1.4 1.4 -0.5
v -1.4 1.5 -0.5
v -1.4 1.7 -0.5
v -1.4 1.9 -0.5
v 0.4 0.5 -0.1
v 0.4 0.8 -0.1
v 0.4 0.9 -0.1
v 0.4 1.1 -0.1
v 0.4 1.2 -0.1
v 0.4 1.4 -0.1
v 0.4 1.5 -0.1
v 0.4 1.7 -0.1
v 0.4 1.8 -0.1
v 0.4 1.9 -0.1
v 0.5 0.5 -0.1
v 0.5 1.1 -0.1
v 0.5 1.2 -0.1
v 0.5 1.7 -0.1
v 0.5 1.8 -0.1
v 0.5 1.9 -0.1
v -1.5 0.5 -0.6
v -1.5 0.8 -0.6
v -1.5 1.1 -0.6
v -1.5 1.4 -0.6
v -1.5 1.7 -0.6
v -1.5 1.9 -0.6
v -1 0.5 -0.6
v -1 0.8 -0.6
v -1 1.1 -0.6
v -1 1.4 -0.6
v -1 1.7 -0.6
v -1 1.9 -0.6
v -1 0.5 -0.7
v -1 0.8 -0.7
v -1 1.1 -0.7
v -1 1.4 -0.7
v -1 1.7 -0.7
v -1 1.9 -0.7
v -0.9 0.5 -0.7
v -0.9 0.8 -0.7
v -0.9 1.1 -0.7
v -0.9 1.4 -0.7
v -0.9 1.7 -0.7
v -0.9 1.9 -0.7
v -0.9 0.5 -0.8
v -0.9 0.8 -0.8
v -0.9 1.1 -0.8
v -0.9 1.4 -0.8
v -0.9 1.7 -0.8
v -0.9 1.9 -0.8
v -0.3 0.5 -0.8
v -0.3 0.8 -0.8
v -0.3 1.1 -0.8
v -0.3 1.4 -0.8
v -0.3 1.7 -0.8
v -0.3 1.9 -0.8
v 0.2 0.5 -0.8
v 0.2 0.8 -0.8
v 0.2 0.9 -0.8
v 0.2 1.4 -0.8
v 0.2 1.5 -0.8
v 0.2 1.9 -0.8
v 0.4 0.5 -0.8
v 0.4 0.8 -0.8
v 0.4 0.9 -0.8
v 0.4 1.4 -0.8
v 0.4 1.5 -0.8
v 0.4 1.9 -0.8
v -0.3 0.5 -0.9
v -0.3 0.8 -0.9
v -0.3 1.1 -0.9
v -0.3 1.4 -0.9
v -0.3 1.7 -0.9
v -0.3 1.9 -0.9
v -0.1 0.5 -0.9
v -0.1 0.8 -0.9
v -0.1 1.1 -0.9
v -0.1 1.4 -0.9
v -0.1 1.7 -0.9
v -0.1 1.9 -0.9
v -0.1 0.5 -1
v -0.1 0.8 -1
v -0.1 1.1 -1
v -0.1 1.4 -1
v -0.1 1.7 -1
v -0.1 1.9 -1
v 0.2 0.5 -1
v 0.2 0.8 -1
v 0.2 1.1 -1
v 0.2 1.4 -1
v 0.2 1.7 -1
v 0.2 1.9 -1
v -1.2 0.5 0.4
v -0.9 0.5 0.4
v -0.9 0.5 0.3
v -0.7 0.5 0.3
v -1.4 0.5 0.2
v -1.2 0.5 0.2
v -0.7 0.5 0.2
v -0.1 0.5 0.2
v -0.1 0.5 0.1
v 0 0.5 0.1
v 0 0.5 0
v 0.5 0.5 0
v 0.4 0.5 -0.1
v 0.5 0.5 -0.1
v -1.5 0.5 -0.5
v -1.4 0.5 -0.5
v -1.5 0.5 -0.6
v -1 0.5 -0.6
v -1 0.5 -0.7
v -0.9 0.5 -0.7
v -0.9 0.5 -0.8
v -0.3 0.5 -0.8
v 0.2 0.5 -0.8
v 0.4 0.5 -0.8
v -0.3 0.5 -0.9
v -0.1 0.5 -0.9
v -0.1 0.5 -1
v 0.2 0.5 -1
v -1.2 1.9 0.4
v -0.9 1.9 0.4
v -0.9 1.9 0.3
v -0.7 1.9 0.3
v -1.4 1.9 0.2
v -1.2 1.9 0.2
v -0.7 1.9 0.2
v -0.1 1.9 0.2
v -0.1 1.9 0.1
v 0 1.9 0.1
v 0 1.9 0
v 0.5 1.9 0
v 0.4 1.9 -0.1
v 0.5 1.9 -0.1
v -1.5 1.9 -0.5
v -1.4 1.9 -0.5
v -1.5 1.9 -0.6
v -1 1.9 -0.6
v -1 1.9 -0.7
v -0.9 1.9 -0.7
v -0.9 1.9 -0.8
v -0.3 1.9 -0.8
v 0.2 1.9 -0.8
v 0.4 1.9 -0.8
v -0.3 1.9 -0.9
v -0.1 1.9 -0.9
v -0.1 1.9 -1
v 0.2 1.9 -1

# faces
f 3/2/1 2/2/1 1/2/1
f 4/2/1 2/2/1 3/2/1
f 5/1/1 4/1/1 3/1/1
f 6/1/1 4/1/1 5/1/1
f 7/2/1 6/2/1 5/2/1
f 8/2/1 6/2/1 7/2/1
f 9/1/1 8/1/1 7/1/1
f 10/1/1 8/1/1 9/1/1
f 11/2/1 10/2/1 9/2/1
f 12/2/1 10/2/1 11/2/1
f 15/2/1 14/2/1 13/2/1
f 16/2/1 14/2/1 15/2/1
f 17/2/1 15/2/1 13/2/1
f 17/1/1 16/1/1 15/1/1
f 18/1/1 16/1/1 17/1/1
f 19/2/1 18/2/1 17/2/1
f 20/2/1 17/2/1 13/2/1
f 20/2/1 19/2/1 17/2/1
f 21/2/1 19/2/1 20/2/1
f 22/2/1 20/2/1 13/2/1
f 22/1/1 21/1/1 20/1/1
f 23/1/1 21/1/1 22/1/1
f 24/2/1 23/2/1 22/2/1
f 25/2/1 22/2/1 13/2/1
f 25/2/1 24/2/1 22/2/1
f 26/2/1 24/2/1 25/2/1
f 29/2/1 28/2/1 27/2/1
f 30/2/1 28/2/1 29/2/1
f 31/1/1 30/1/1 29/1/1
f 32/2/1 28/2/1 30/2/1
f 32/1/1 30/1/1 31/1/1
f 33/2/1 32/2/1 31/2/1
f 34/2/1 28/2/1 32/2/1
f 34/2/1 32/2/1 33/2/1
f 35/1/1 34/1/1 33/1/1
f 36/2/1 28/2/1 34/2/1
f 36/1/1 34/1/1 35/1/1
f 37/2/1 36/2/1 35/2/1
f 38/2/1 28/2/1 36/2/1
f 38/2/1 36/2/1 37/2/1
f 41/2/1 40/2/1 39/2/1
f 42/2/1 40/2/1 41/2/1
f 43/1/1 42/1/1 41/1/1
f 44/1/1 42/1/1 43/1/1
f 45/2/1 44/2/1 43/2/1
f 46/2/1 44/2/1 45/2/1
f 47/1/1 46/1/1 45/1/1
f 48/1/1 46/1/1 47/1/1
f 49/2/1 48/2/1 47/2/1
f 50/2/1 48/2/1 49/2/1
f 53/2/1 52/2/1 51/2/1
f 54/2/1 52/2/1 53/2/1
f 55/1/1 54/1/1 53/1/1
f 56/1/1 54/1/1 55/1/1
f 57/2/1 56/2/1 55/2/1
f 58/2/1 56/2/1 57/2/1
f 59/1/1 58/1/1 57/1/1
f 60/1/1 58/1/1 59/1/1
f 61/2/1 60/2/1 59/2/1
f 62/2/1 60/2/1 61/2/1
f 65/2/1 64/2/1 63/2/1
f 66/2/1 64/2/1 65/2/1
f 67/1/1 66/1/1 65/1/1
f 68/1/1 66/1/1 67/1/1
f 69/2/1 68/2/1 67/2/1
f 70/2/1 68/2/1 69/2/1
f 71/1/1 70/1/1 69/1/1
f 72/1/1 70/1/1 71/1/1
f 73/2/1 72/2/1 71/2/1
f 74/2/1 72/2/1 73/2/1
f 77/2/1 76/2/1 75/2/1
f 78/2/1 76/2/1 77/2/1
f 79/1/1 78/1/1 77/1/1
f 80/1/1 78/1/1 79/1/1
f 81/2/1 80/2/1 79/2/1
f 82/2/1 80/2/1 81/2/1
f 83/1/1 82/1/1 81/1/1
f 84/1/1 82/1/1 83/1/1
f 85/2/1 84/2/1 83/2/1
f 86/2/1 84/2/1 85/2/1
f 87/2/2 88/2/2 89/2/2
f 89/2/2 88/2/2 90/2/2
f 89/1/2 90/1/2 91/1/2
f 91/1/2 90/1/2 92/1/2
f 91/2/2 92/2/2 93/2/2
f 93/2/2 92/2/2 94/2/2
f 93/1/2 94/1/2 95/1/2
f 95/1/2 94/1/2 96/1/2
f 95/2/2 96/2/2 97/2/2
f 97/2/2 96/2/2 98/2/2
f 99/2/2 100/2/2 101/2/2
f 101/2/2 100/2/2 102/2/2
f 101/1/2 102/1/2 103/1/2
f 103/1/2 102/1/2 104/1/2
f 103/2/2 104/2/2 105/2/2
f 105/2/2 104/2/2 106/2/2
f 105/1/2 106/1/2 107/1/2
f 107/1/2 106/1/2 108/1/2
f 107/2/2 108/2/2 109/2/2
f 109/2/2 108/2/2 110/2/2
f 111/2/2 112/2/2 113/2/2
f 113/2/2 112/2/2 114/2/2
f 113/1/2 114/1/2 115/1/2
f 115/1/2 114/1/2 116/1/2
f 115/2/2 116/2/2 117/2/2
f 117/2/2 116/2/2 118/2/2
f 117/1/2 118/1/2 119/1/2
f 119/1/2 118/1/2 120/1/2
f 119/2/2 120/2/2 121/2/2
f 121/2/2 120/2/2 122/2/2
f 123/2/2 124/2/2 125/2/2
f 125/2/2 124/2/2 126/2/2
f 125/1/2 126/1/2 127/1/2
f 127/1/2 126/1/2 128/1/2
f 127/2/2 128/2/2 129/2/2
f 129/2/2 128/2/2 130/2/2
f 129/1/2 130/1/2 131/1/2
f 131/1/2 130/1/2 132/1/2
f 131/2/2 132/2/2 133/2/2
f 133/2/2 132/2/2 134/2/2
f 135/2/2 136/2/2 137/2/2
f 137/2/2 136/2/2 138/2/2
f 137/1/2 138/1/2 139/1/2
f 139/1/2 138/1/2 140/1/2
f 139/2/2 140/2/2 141/2/2
f 140/1/2 138/1/2 141/1/2
f 141/1/2 138/1/2 142/1/2
f 139/2/2 141/2/2 143/2/2
f 141/2/2 142/2/2 143/2/2
f 143/2/2 142/2/2 144/2/2
f 143/1/2 144/1/2 145/1/2
f 145/1/2 144/1/2 146/1/2
f 145/2/2 146/2/2 147/2/2
f 146/1/2 144/1/2 147/1/2
f 147/1/2 144/1/2 148/1/2
f 145/2/2 147/2/2 149/2/2
f 147/2/2 148/2/2 149/2/2
f 149/2/2 148/2/2 150/2/2
f 151/2/2 152/2/2 153/2/2
f 153/2/2 152/2/2 154/2/2
f 153/1/2 154/1/2 155/1/2
f 155/1/2 154/1/2 156/1/2
f 155/2/2 156/2/2 157/2/2
f 157/2/2 156/2/2 158/2/2
f 158/2/2 156/2/2 159/2/2
f 159/2/2 156/2/2 160/2/2
f 159/1/2 160/1/2 161/1/2
f 161/1/2 160/1/2 162/1/2
f 161/2/2 162/2/2 163/2/2
f 163/2/2 162/2/2 164/2/2
f 164/2/2 162/2/2 165/2/2
f 165/2/2 162/2/2 166/2/2
f 167/2/2 168/2/2 169/2/2
f 169/2/2 168/2/2 170/2/2
f 169/1/2 170/1/2 171/1/2
f 171/1/2 170/1/2 172/1/2
f 171/2/2 172/2/2 173/2/2
f 173/2/2 172/2/2 174/2/2
f 173/1/2 174/1/2 175/1/2
f 175/1/2 174/1/2 176/1/2
f 175/2/2 176/2/2 177/2/2
f 177/2/2 176/2/2 178/2/2
f 185/2/3 180/2/3 179/2/3
f 186/1/3 181/1/3 180/1/3
f 186/2/3 180/2/3 185/2/3
f 187/2/3 182/2/3 181/2/3
f 187/1/3 181/1/3 186/1/3
f 188/1/3 183/1/3 182/1/3
f 188/2/3 182/2/3 187/2/3
f 189/2/3 184/2/3 183/2/3
f 189/1/3 183/1/3 188/1/3
f 190/2/3 184/2/3 189/2/3
f 197/2/3 192/2/3 191/2/3
f 198/1/3 193/1/3 192/1/3
f 198/2/3 192/2/3 197/2/3
f 199/2/3 194/2/3 193/2/3
f 199/1/3 193/1/3 198/1/3
f 200/1/3 195/1/3 194/1/3
f 200/2/3 194/2/3 199/2/3
f 201/2/3 196/2/3 195/2/3
f 201/1/3 195/1/3 200/1/3
f 202/2/3 196/2/3 201/2/3
f 205/2/3 204/2/3 203/2/3
f 206/2/3 204/2/3 205/2/3
f 213/2/3 208/2/3 207/2/3
f 214/1/3 209/1/3 208/1/3
f 214/2/3 208/2/3 213/2/3
f 215/2/3 210/2/3 209/2/3
f 215/1/3 209/1/3 214/1/3
f 216/1/3 211/1/3 210/1/3
f 216/2/3 210/2/3 215/2/3
f 217/2/3 212/2/3 211/2/3
f 217/1/3 211/1/3 216/1/3
f 218/2/3 212/2/3 217/2/3
f 225/2/3 220/2/3 219/2/3
f 226/1/3 221/1/3 220/1/3
f 226/2/3 220/2/3 225/2/3
f 227/2/3 222/2/3 221/2/3
f 227/1/3 221/1/3 226/1/3
f 228/1/3 223/1/3 222/1/3
f 228/2/3 222/2/3 227/2/3
f 229/2/3 224/2/3 223/2/3
f 229/1/3 223/1/3 228/1/3
f 230/2/3 224/2/3 229/2/3
f 237/2/3 232/2/3 231/2/3
f 238/1/3 233/1/3 232/1/3
f 238/2/3 232/2/3 237/2/3
f 239/2/3 234/2/3 233/2/3
f 239/1/3 233/1/3 238/1/3
f 240/1/3 235/1/3 234/1/3
f 240/2/3 234/2/3 239/2/3
f 241/2/3 236/2/3 235/2/3
f 241/1/3 235/1/3 240/1/3
f 242/2/3 236/2/3 241/2/3
f 249/2/3 244/2/3 243/2/3
f 250/1/3 245/1/3 244/1/3
f 250/2/3 244/2/3 249/2/3
f 251/1/3 245/1/3 250/1/3
f 252/2/3 246/2/3 245/2/3
f 252/1/3 245/1/3 251/1/3
f 253/1/3 247/1/3 246/1/3
f 253/2/3 246/2/3 252/2/3
f 254/1/3 247/1/3 253/1/3
f 255/2/3 248/2/3 247/2/3
f 255/1/3 247/1/3 254/1/3
f 256/2/3 248/2/3 255/2/3
f 257/2/4 258/2/4 267/2/4
f 258/2/4 259/2/4 267/2/4
f 259/2/4 260/2/4 267/2/4
f 260/1/4 261/1/4 268/1/4
f 267/2/4 260/2/4 268/2/4
f 263/2/4 264/2/4 269/2/4
f 268/1/4 261/1/4 269/1/4
f 261/2/4 262/2/4 269/2/4
f 262/2/4 263/2/4 269/2/4
f 264/1/4 265/1/4 270/1/4
f 269/2/4 264/2/4 270/2/4
f 265/2/4 266/2/4 271/2/4
f 270/1/4 265/1/4 271/1/4
f 271/2/4 266/2/4 272/2/4
f 273/2/4 274/2/4 279/2/4
f 274/1/4 275/1/4 280/1/4
f 279/2/4 274/2/4 280/2/4
f 275/2/4 276/2/4 281/2/4
f 280/1/4 275/1/4 281/1/4
f 276/1/4 277/1/4 282/1/4
f 281/2/4 276/2/4 282/2/4
f 277/2/4 278/2/4 283/2/4
f 282/1/4 277/1/4 283/1/4
f 283/2/4 278/2/4 284/2/4
f 285/2/4 286/2/4 291/2/4
f 286/1/4 287/1/4 292/1/4
f 291/2/4 286/2/4 292/2/4
f 287/2/4 288/2/4 293/2/4
f 292/1/4 287/1/4 293/1/4
f 288/1/4 289/1/4 294/1/4
f 293/2/4 288/2/4 294/2/4
f 289/2/4 290/2/4 295/2/4
f 294/1/4 289/1/4 295/1/4
f 295/2/4 290/2/4 296/2/4
f 297/2/4 298/2/4 303/2/4
f 298/1/4 299/1/4 304/1/4
f 303/2/4 298/2/4 304/2/4
f 299/2/4 300/2/4 305/2/4
f 304/1/4 299/1/4 305/1/4
f 300/1/4 301/1/4 306/1/4
f 305/2/4 300/2/4 306/2/4
f 301/2/4 302/2/4 307/2/4
f 306/1/4 301/1/4 307/1/4
f 307/2/4 302/2/4 308/2/4
f 309/2/4 310/2/4 315/2/4
f 310/1/4 311/1/4 316/1/4
f 315/2/4 310/2/4 316/2/4
f 311/2/4 312/2/4 317/2/4
f 316/1/4 311/1/4 317/1/4
f 312/1/4 313/1/4 318/1/4
f 317/2/4 312/2/4 318/2/4
f 313/2/4 314/2/4 319/2/4
f 318/1/4 313/1/4 319/1/4
f 319/2/4 314/2/4 320/2/4
f 321/2/4 322/2/4 327/2/4
f 322/1/4 323/1/4 328/1/4
f 327/2/4 322/2/4 328/2/4
f 323/2/4 324/2/4 329/2/4
f 328/1/4 323/1/4 329/1/4
f 324/1/4 325/1/4 330/1/4
f 329/2/4 324/2/4 330/2/4
f 325/2/4 326/2/4 331/2/4
f 330/1/4 325/1/4 331/1/4
f 331/2/4 326/2/4 332/2/4
f 333/2/4 334/2/4 339/2/4
f 334/1/4 335/1/4 340/1/4
f 339/2/4 334/2/4 340/2/4
f 335/2/4 336/2/4 341/2/4
f 340/1/4 335/1/4 341/1/4
f 336/1/4 337/1/4 342/1/4
f 341/2/4 336/2/4 342/2/4
f 337/2/4 338/2/4 343/2/4
f 342/1/4 337/1/4 343/1/4
f 343/2/4 338/2/4 344/2/4
f 347/2/5 346/2/5 345/2/5
f 350/2/5 347/2/5 345/2/5
f 350/2/5 348/2/5 347/2/5
f 351/2/5 348/2/5 350/2/5
f 353/2/5 350/2/5 349/2/5
f 353/2/5 352/2/5 351/2/5
f 353/2/5 351/2/5 350/2/5
f 355/2/5 354/2/5 353/2/5
f 357/2/5 356/2/5 355/2/5
f 358/2/5 356/2/5 357/2/5
f 360/2/5 353/2/5 349/2/5
f 360/2/5 355/2/5 353/2/5
f 360/2/5 357/2/5 355/2/5
f 361/2/5 360/2/5 359/2/5
f 362/2/5 357/2/5 360/2/5
f 362/2/5 360/2/5 361/2/5
f 363/2/5 357/2/5 362/2/5
f 364/2/5 357/2/5 363/2/5
f 365/2/5 357/2/5 364/2/5
f 366/2/5 357/2/5 365/2/5
f 367/2/5 357/2/5 366/2/5
f 368/2/5 357/2/5 367/2/5
f 369/2/5 367/2/5 366/2/5
f 370/2/5 367/2/5 369/2/5
f 371/2/5 367/2/5 370/2/5
f 372/2/5 367/2/5 371/2/5
f 373/2/6 374/2/6 375/2/6
f 373/2/6 375/2/6 378/2/6
f 375/2/6 376/2/6 378/2/6
f 378/2/6 376/2/6 379/2/6
f 377/2/6 378/2/6 381/2/6
f 379/2/6 380/2/6 381/2/6
f 378/2/6 379/2/6 381/2/6
f 381/2/6 382/2/6 383/2/6
f 383/2/6 384/2/6 385/2/6
f 385/2/6 384/2/6 386/2/6
f 377/2/6 381/2/6 388/2/6
f 381/2/6 383/2/6 388/2/6
f 383/2/6 385/2/6 388/2/6
f 387/2/6 388/2/6 389/2/6
f 388/2/6 385/2/6 390/2/6
f 389/2/6 388/2/6 390/2/6
f 390/2/6 385/2/6 391/2/6
f 391/2/6 385/2/6 392/2/6
f 392/2/6 385/2/6 393/2/6
f 393/2/6 385/2/6 394/2/6
f 394/2/6 385/2/6 395/2/6
f 395/2/6 385/2/6 396/2/6
f 394/2/6 395/2/6 397/2/6
f 397/2/6 395/2/6 398/2/6
f 398/2/6 395/2/6 399/2/6
f 399/2/6 395/2/6 400/2/6
