# MagicaVoxel @ Ephtracy

# group
o 

# material
mtllib Bomb.mtl
usemtl palette

# normals
vn -1 0 0
vn 1 0 0
vn 0 0 1
vn 0 0 -1
vn 0 -1 0
vn 0 1 0

# texcoords
vt 0.0175781 0.5
vt 0.373047 0.5
vt 0.841797 0.5
vt 0.927734 0.5
vt 0.986328 0.5
vt 0.990234 0.5
vt 0.994141 0.5

# verts
v -0.5 0.3 1.2
v -0.5 0.3 1
v -0.5 0.3 0.8
v -0.5 0.3 0.6
v -0.5 0.3 0.3
v -0.5 0.3 -0.2
v -0.5 0.4 1
v -0.5 0.4 0.8
v -0.5 0.5 0.6
v -0.5 0.5 0.3
v -0.5 1.2 1.2
v -0.5 1.2 -0.2
v -0.5 1.7 0.3
v -0.5 1.7 0.2
v -0.5 1.8 0.3
v -0.5 1.8 0.2
v -0.4 0.1 1.1
v -0.4 0.1 1
v -0.4 0.1 0.0999999
v -0.4 0.1 -0.1
v -0.4 0.3 1.1
v -0.4 0.3 1
v -0.4 0.3 0.8
v -0.4 0.3 0.6
v -0.4 0.3 0.3
v -0.4 0.3 0.0999999
v -0.4 0.3 -0.1
v -0.4 1.2 1.1
v -0.4 1.2 -0.1
v -0.4 1.4 1.1
v -0.4 1.4 -0.1
v -0.4 1.6 0.3
v -0.4 1.6 0.2
v -0.4 1.7 0.3
v -0.4 1.7 0.2
v -0.4 1.8 0.3
v -0.4 1.8 0.2
v -0.4 1.9 0.3
v -0.4 1.9 0.2
v -0.3 0 1
v -0.3 0 0.0999999
v -0.3 0 -1.19209e-07
v -0.3 0.1 1
v -0.3 0.1 0.0999999
v -0.3 0.1 -1.19209e-07
v -0.3 1.4 1
v -0.3 1.4 -1.19209e-07
v -0.3 1.5 1
v -0.3 1.5 -1.19209e-07
v 0 1.7 0.5
v 0 1.7 0.3
v 0 1.8 0.5
v 0 1.8 0.3
v 0.2 1.5 0.5
v 0.2 1.5 0.4
v 0.2 1.7 0.5
v 0.2 1.7 0.4
v -0.3 1.6 0.3
v -0.3 1.6 0.2
v -0.3 1.7 0.3
v -0.3 1.7 0.2
v -0.3 1.8 0.3
v -0.3 1.8 0.2
v -0.3 1.9 0.3
v -0.3 1.9 0.2
v 0.1 1.7 0.4
v 0.1 1.7 0.2
v 0.1 1.8 0.4
v 0.1 1.8 0.2
v 0.3 1.5 0.5
v 0.3 1.5 0.4
v 0.3 1.8 0.5
v 0.3 1.8 0.4
v 0.7 0 1
v 0.7 0 0.8
v 0.7 0 0.7
v 0.7 0 0.6
v 0.7 0 0.4
v 0.7 0 0.2
v 0.7 0 -1.19209e-07
v 0.7 0.1 1
v 0.7 0.1 0.8
v 0.7 0.1 0.7
v 0.7 0.1 0.6
v 0.7 0.1 0.4
v 0.7 0.1 0.2
v 0.7 0.1 -1.19209e-07
v 0.7 1.4 1
v 0.7 1.4 -1.19209e-07
v 0.7 1.5 1
v 0.7 1.5 -1.19209e-07
v 0.8 0.1 1.1
v 0.8 0.1 -0.1
v 0.8 0.2 0.8
v 0.8 0.2 0.6
v 0.8 0.2 0.5
v 0.8 0.2 0.4
v 0.8 0.3 1.1
v 0.8 0.3 1
v 0.8 0.3 0.9
v 0.8 0.3 0.8
v 0.8 0.3 0.6
v 0.8 0.3 0.5
v 0.8 0.3 0.4
v 0.8 0.3 0.2
v 0.8 0.3 -0.1
v 0.8 1.2 1.1
v 0.8 1.2 -0.1
v 0.8 1.4 1.1
v 0.8 1.4 -0.1
v 0.9 0.3 1.2
v 0.9 0.3 1
v 0.9 0.3 0.9
v 0.9 0.3 0.4
v 0.9 0.3 0.2
v 0.9 0.3 -0.2
v 0.9 0.4 1
v 0.9 0.4 0.9
v 0.9 0.4 0.7
v 0.9 0.5 0.4
v 0.9 0.5 0.2
v 0.9 0.6 0.9
v 0.9 0.6 0.7
v 0.9 0.7 0.8
v 0.9 0.7 0.7
v 0.9 0.8 0.8
v 0.9 0.8 0.7
v 0.9 0.8 -0.1
v 0.9 0.8 -0.2
v 0.9 0.9 -0.1
v 0.9 0.9 -0.2
v 0.9 1.2 1.2
v 0.9 1.2 -0.2
v -0.5 0.3 1.2
v -0.5 1.2 1.2
v -0.2 0.4 1.2
v -0.2 0.9 1.2
v 0.1 0.4 1.2
v 0.1 0.9 1.2
v 0.3 0.3 1.2
v 0.3 0.4 1.2
v 0.5 0.3 1.2
v 0.5 0.4 1.2
v 0.5 0.7 1.2
v 0.5 0.9 1.2
v 0.6 0.7 1.2
v 0.6 0.9 1.2
v 0.9 0.3 1.2
v 0.9 1.2 1.2
v -0.4 0.1 1.1
v -0.4 0.3 1.1
v -0.4 1.2 1.1
v -0.4 1.4 1.1
v 0.1 0.1 1.1
v 0.1 0.3 1.1
v 0.2 0.1 1.1
v 0.2 0.2 1.1
v 0.3 0.2 1.1
v 0.3 0.3 1.1
v 0.5 0.3 1.1
v 0.8 0.1 1.1
v 0.8 0.3 1.1
v 0.8 1.2 1.1
v 0.8 1.4 1.1
v -0.3 0 1
v -0.3 0.1 1
v -0.3 1.4 1
v -0.3 1.5 1
v -0.2 0 1
v -0.2 0.1 1
v 0.1 0.1 1
v 0.2 0.1 1
v 0.7 0 1
v 0.7 0.1 1
v 0.7 1.4 1
v 0.7 1.5 1
v 0 1.7 0.5
v 0 1.8 0.5
v 0.2 1.5 0.5
v 0.2 1.7 0.5
v 0.3 1.5 0.5
v 0.3 1.8 0.5
v -0.5 1.7 0.3
v -0.5 1.8 0.3
v -0.4 1.6 0.3
v -0.4 1.7 0.3
v -0.4 1.8 0.3
v -0.4 1.9 0.3
v -0.3 1.6 0.3
v -0.3 1.7 0.3
v -0.3 1.8 0.3
v -0.3 1.9 0.3
v -0.2 1.7 0.3
v -0.2 1.8 0.3
v 0 1.7 0.3
v 0 1.8 0.3
v 0.1 1.7 0.4
v 0.1 1.8 0.4
v 0.2 1.5 0.4
v 0.2 1.7 0.4
v 0.3 1.5 0.4
v 0.3 1.8 0.4
v -0.5 1.7 0.2
v -0.5 1.8 0.2
v -0.4 1.6 0.2
v -0.4 1.7 0.2
v -0.4 1.8 0.2
v -0.4 1.9 0.2
v -0.3 1.6 0.2
v -0.3 1.7 0.2
v -0.3 1.8 0.2
v -0.3 1.9 0.2
v -0.2 1.7 0.2
v -0.2 1.8 0.2
v 0.1 1.7 0.2
v 0.1 1.8 0.2
v -0.3 0 -1.19209e-07
v -0.3 0.1 -1.19209e-07
v -0.3 1.4 -1.19209e-07
v -0.3 1.5 -1.19209e-07
v -0.1 0 -1.19209e-07
v -0.1 0.1 -1.19209e-07
v 0.2 0 -1.19209e-07
v 0.2 0.1 -1.19209e-07
v 0.3 0.1 -1.19209e-07
v 0.6 0 -1.19209e-07
v 0.6 0.1 -1.19209e-07
v 0.7 0 -1.19209e-07
v 0.7 0.1 -1.19209e-07
v 0.7 1.4 -1.19209e-07
v 0.7 1.5 -1.19209e-07
v -0.4 0.1 -0.1
v -0.4 0.3 -0.1
v -0.4 1.2 -0.1
v -0.4 1.4 -0.1
v -0.3 0.2 -0.1
v -0.3 0.3 -0.1
v -0.3 1.2 -0.1
v -0.2 0.2 -0.1
v -0.2 0.3 -0.1
v -0.2 1.2 -0.1
v -0.2 1.3 -0.1
v -0.1 0.1 -0.1
v -0.1 0.3 -0.1
v -0.1 1.2 -0.1
v 0 1.2 -0.1
v 0 1.3 -0.1
v 0.2 0.1 -0.1
v 0.2 0.3 -0.1
v 0.3 0.1 -0.1
v 0.3 0.3 -0.1
v 0.6 1.2 -0.1
v 0.7 0.1 -0.1
v 0.7 0.3 -0.1
v 0.8 0.1 -0.1
v 0.8 0.3 -0.1
v 0.8 1.2 -0.1
v 0.8 1.4 -0.1
v -0.5 0.3 -0.2
v -0.5 1.2 -0.2
v -0.4 0.7 -0.2
v -0.4 1.1 -0.2
v -0.3 0.4 -0.2
v -0.3 0.5 -0.2
v -0.3 0.7 -0.2
v -0.3 1 -0.2
v -0.3 1.1 -0.2
v -0.3 1.2 -0.2
v -0.2 0.4 -0.2
v -0.2 0.5 -0.2
v -0.2 1 -0.2
v -0.2 1.1 -0.2
v -0.1 0.3 -0.2
v -0.1 0.4 -0.2
v -0.1 0.8 -0.2
v -0.1 0.9 -0.2
v -0.1 1 -0.2
v -0.1 1.1 -0.2
v -0.1 1.2 -0.2
v 0 0.5 -0.2
v 0 0.6 -0.2
v 0 0.7 -0.2
v 0 0.8 -0.2
v 0 0.9 -0.2
v 0 1 -0.2
v 0 1.1 -0.2
v 0.1 0.5 -0.2
v 0.1 0.6 -0.2
v 0.1 0.7 -0.2
v 0.1 0.8 -0.2
v 0.1 0.9 -0.2
v 0.1 1 -0.2
v 0.2 0.3 -0.2
v 0.2 0.4 -0.2
v 0.3 0.3 -0.2
v 0.3 0.5 -0.2
v 0.3 0.6 -0.2
v 0.3 0.7 -0.2
v 0.3 0.8 -0.2
v 0.3 0.9 -0.2
v 0.3 1 -0.2
v 0.4 0.5 -0.2
v 0.4 0.6 -0.2
v 0.4 0.7 -0.2
v 0.4 0.8 -0.2
v 0.4 0.9 -0.2
v 0.4 1 -0.2
v 0.4 1.1 -0.2
v 0.5 0.8 -0.2
v 0.5 0.9 -0.2
v 0.5 1 -0.2
v 0.5 1.1 -0.2
v 0.6 0.5 -0.2
v 0.6 0.7 -0.2
v 0.6 1.1 -0.2
v 0.6 1.2 -0.2
v 0.7 0.3 -0.2
v 0.7 0.5 -0.2
v 0.7 0.6 -0.2
v 0.7 0.7 -0.2
v 0.7 0.9 -0.2
v 0.7 1.1 -0.2
v 0.8 0.5 -0.2
v 0.8 0.6 -0.2
v 0.8 0.8 -0.2
v 0.8 0.9 -0.2
v 0.8 1.2 -0.2
v 0.9 0.3 -0.2
v 0.9 0.8 -0.2
v 0.9 0.9 -0.2
v 0.9 1.2 -0.2
v -0.3 0 1
v -0.2 0 1
v 0.7 0 1
v 0.6 0 0.8
v 0.7 0 0.8
v 0.6 0 0.7
v 0.7 0 0.7
v 0.6 0 0.6
v 0.7 0 0.6
v 0.6 0 0.4
v 0.7 0 0.4
v 0.6 0 0.2
v 0.7 0 0.2
v -0.3 0 0.0999999
v -0.2 0 0.0999999
v -0.1 0 0.0999999
v 0.2 0 0.0999999
v -0.3 0 -1.19209e-07
v -0.1 0 -1.19209e-07
v 0.2 0 -1.19209e-07
v 0.6 0 -1.19209e-07
v 0.7 0 -1.19209e-07
v -0.4 0.1 1.1
v 0.1 0.1 1.1
v 0.2 0.1 1.1
v 0.8 0.1 1.1
v -0.4 0.1 1
v -0.3 0.1 1
v -0.2 0.1 1
v 0.1 0.1 1
v 0.2 0.1 1
v 0.7 0.1 1
v 0.7 0.1 0.8
v 0.7 0.1 0.7
v 0.7 0.1 0.6
v 0.7 0.1 0.4
v 0.7 0.1 0.2
v -0.4 0.1 0.0999999
v -0.3 0.1 0.0999999
v -0.3 0.1 -1.19209e-07
v -0.1 0.1 -1.19209e-07
v 0.2 0.1 -1.19209e-07
v 0.3 0.1 -1.19209e-07
v 0.6 0.1 -1.19209e-07
v 0.7 0.1 -1.19209e-07
v -0.4 0.1 -0.1
v -0.1 0.1 -0.1
v 0.2 0.1 -0.1
v 0.3 0.1 -0.1
v 0.7 0.1 -0.1
v 0.8 0.1 -0.1
v -0.5 0.3 1.2
v 0.3 0.3 1.2
v 0.5 0.3 1.2
v 0.9 0.3 1.2
v -0.4 0.3 1.1
v 0.1 0.3 1.1
v 0.3 0.3 1.1
v 0.5 0.3 1.1
v 0.8 0.3 1.1
v -0.5 0.3 1
v -0.4 0.3 1
v 0.8 0.3 1
v 0.9 0.3 1
v 0.8 0.3 0.9
v 0.9 0.3 0.9
v -0.5 0.3 0.8
v -0.4 0.3 0.8
v 0.8 0.3 0.8
v -0.5 0.3 0.6
v -0.4 0.3 0.6
v 0.8 0.3 0.6
v 0.8 0.3 0.5
v 0.8 0.3 0.4
v 0.9 0.3 0.4
v -0.5 0.3 0.3
v -0.4 0.3 0.3
v 0.8 0.3 0.2
v 0.9 0.3 0.2
v -0.4 0.3 0.0999999
v -0.4 0.3 -0.1
v -0.3 0.3 -0.1
v -0.2 0.3 -0.1
v -0.1 0.3 -0.1
v 0.2 0.3 -0.1
v 0.3 0.3 -0.1
v 0.7 0.3 -0.1
v 0.8 0.3 -0.1
v -0.5 0.3 -0.2
v -0.1 0.3 -0.2
v 0.2 0.3 -0.2
v 0.3 0.3 -0.2
v 0.7 0.3 -0.2
v 0.9 0.3 -0.2
v -0.4 1.6 0.3
v -0.3 1.6 0.3
v -0.4 1.6 0.2
v -0.3 1.6 0.2
v 0 1.7 0.5
v 0.2 1.7 0.5
v 0.1 1.7 0.4
v 0.2 1.7 0.4
v -0.5 1.7 0.3
v -0.4 1.7 0.3
v -0.3 1.7 0.3
v -0.2 1.7 0.3
v 0 1.7 0.3
v -0.5 1.7 0.2
v -0.4 1.7 0.2
v -0.3 1.7 0.2
v -0.2 1.7 0.2
v 0.1 1.7 0.2
v -0.5 1.2 1.2
v 0.9 1.2 1.2
v -0.4 1.2 1.1
v 0.8 1.2 1.1
v -0.4 1.2 -0.1
v -0.3 1.2 -0.1
v -0.2 1.2 -0.1
v -0.1 1.2 -0.1
v 0 1.2 -0.1
v 0.6 1.2 -0.1
v 0.8 1.2 -0.1
v -0.5 1.2 -0.2
v -0.3 1.2 -0.2
v -0.1 1.2 -0.2
v 0.6 1.2 -0.2
v 0.8 1.2 -0.2
v 0.9 1.2 -0.2
v -0.4 1.4 1.1
v 0.8 1.4 1.1
v -0.3 1.4 1
v 0.7 1.4 1
v -0.3 1.4 -1.19209e-07
v 0.7 1.4 -1.19209e-07
v -0.4 1.4 -0.1
v 0.8 1.4 -0.1
v -0.3 1.5 1
v 0.7 1.5 1
v 0.2 1.5 0.5
v 0.3 1.5 0.5
v 0.2 1.5 0.4
v 0.3 1.5 0.4
v -0.3 1.5 -1.19209e-07
v 0.7 1.5 -1.19209e-07
v 0 1.8 0.5
v 0.3 1.8 0.5
v 0.1 1.8 0.4
v 0.3 1.8 0.4
v -0.5 1.8 0.3
v -0.4 1.8 0.3
v -0.3 1.8 0.3
v -0.2 1.8 0.3
v 0 1.8 0.3
v -0.5 1.8 0.2
v -0.4 1.8 0.2
v -0.3 1.8 0.2
v -0.2 1.8 0.2
v 0.1 1.8 0.2
v -0.4 1.9 0.3
v -0.3 1.9 0.3
v -0.4 1.9 0.2
v -0.3 1.9 0.2

# faces
f 7/7/1 2/7/1 1/7/1
f 7/6/1 3/6/1 2/6/1
f 8/7/1 4/7/1 3/7/1
f 8/6/1 3/6/1 7/6/1
f 9/6/1 5/6/1 4/6/1
f 9/7/1 4/7/1 8/7/1
f 9/7/1 8/7/1 7/7/1
f 10/7/1 6/7/1 5/7/1
f 10/6/1 5/6/1 9/6/1
f 11/7/1 9/7/1 7/7/1
f 11/7/1 7/7/1 1/7/1
f 11/7/1 10/7/1 9/7/1
f 12/7/1 6/7/1 10/7/1
f 12/7/1 10/7/1 11/7/1
f 15/3/1 14/3/1 13/3/1
f 16/3/1 14/3/1 15/3/1
f 21/7/1 18/7/1 17/7/1
f 22/6/1 19/6/1 18/6/1
f 22/7/1 18/7/1 21/7/1
f 23/6/1 19/6/1 22/6/1
f 24/6/1 19/6/1 23/6/1
f 25/6/1 19/6/1 24/6/1
f 26/7/1 20/7/1 19/7/1
f 26/6/1 19/6/1 25/6/1
f 27/7/1 20/7/1 26/7/1
f 30/7/1 29/7/1 28/7/1
f 31/7/1 29/7/1 30/7/1
f 34/3/1 33/3/1 32/3/1
f 35/3/1 33/3/1 34/3/1
f 38/3/1 37/3/1 36/3/1
f 39/3/1 37/3/1 38/3/1
f 43/6/1 41/6/1 40/6/1
f 44/7/1 42/7/1 41/7/1
f 44/6/1 41/6/1 43/6/1
f 45/7/1 42/7/1 44/7/1
f 48/7/1 47/7/1 46/7/1
f 49/7/1 47/7/1 48/7/1
f 52/2/1 51/2/1 50/2/1
f 53/2/1 51/2/1 52/2/1
f 56/2/1 55/2/1 54/2/1
f 57/2/1 55/2/1 56/2/1
f 58/3/2 59/3/2 60/3/2
f 60/3/2 59/3/2 61/3/2
f 62/3/2 63/3/2 64/3/2
f 64/3/2 63/3/2 65/3/2
f 66/2/2 67/2/2 68/2/2
f 68/2/2 67/2/2 69/2/2
f 70/2/2 71/2/2 72/2/2
f 72/2/2 71/2/2 73/2/2
f 74/7/2 75/7/2 81/7/2
f 75/6/2 76/6/2 82/6/2
f 81/7/2 75/7/2 82/7/2
f 76/7/2 77/7/2 83/7/2
f 82/6/2 76/6/2 83/6/2
f 77/6/2 78/6/2 84/6/2
f 83/7/2 77/7/2 84/7/2
f 78/7/2 79/7/2 85/7/2
f 84/6/2 78/6/2 85/6/2
f 79/6/2 80/6/2 86/6/2
f 85/7/2 79/7/2 86/7/2
f 86/6/2 80/6/2 87/6/2
f 88/7/2 89/7/2 90/7/2
f 90/7/2 89/7/2 91/7/2
f 92/7/2 93/7/2 94/7/2
f 94/7/2 93/7/2 95/7/2
f 95/7/2 93/7/2 96/7/2
f 96/7/2 93/7/2 97/7/2
f 92/7/2 94/7/2 98/7/2
f 98/7/2 94/7/2 99/7/2
f 99/7/2 94/7/2 100/7/2
f 94/6/2 95/6/2 101/6/2
f 100/7/2 94/7/2 101/7/2
f 95/7/2 96/7/2 102/7/2
f 101/6/2 95/6/2 102/6/2
f 96/6/2 97/6/2 103/6/2
f 102/7/2 96/7/2 103/7/2
f 97/7/2 93/7/2 104/7/2
f 103/6/2 97/6/2 104/6/2
f 104/7/2 93/7/2 105/7/2
f 105/7/2 93/7/2 106/7/2
f 107/7/2 108/7/2 109/7/2
f 109/7/2 108/7/2 110/7/2
f 111/7/2 112/7/2 117/7/2
f 112/6/2 113/6/2 117/6/2
f 113/7/2 114/7/2 118/7/2
f 117/6/2 113/6/2 118/6/2
f 118/7/2 114/7/2 119/7/2
f 114/6/2 115/6/2 120/6/2
f 119/7/2 114/7/2 120/7/2
f 115/7/2 116/7/2 121/7/2
f 120/6/2 115/6/2 121/6/2
f 118/6/2 119/6/2 122/6/2
f 117/7/2 118/7/2 122/7/2
f 119/7/2 120/7/2 123/7/2
f 122/6/2 119/6/2 123/6/2
f 120/7/2 121/7/2 123/7/2
f 122/7/2 123/7/2 124/7/2
f 123/7/2 121/7/2 125/7/2
f 124/7/2 123/7/2 125/7/2
f 122/7/2 124/7/2 126/7/2
f 124/6/2 125/6/2 126/6/2
f 125/7/2 121/7/2 127/7/2
f 126/6/2 125/6/2 127/6/2
f 121/7/2 116/7/2 128/7/2
f 127/7/2 121/7/2 128/7/2
f 128/7/2 116/7/2 129/7/2
f 126/7/2 127/7/2 130/7/2
f 127/7/2 128/7/2 130/7/2
f 128/5/2 129/5/2 130/5/2
f 130/5/2 129/5/2 131/5/2
f 117/7/2 122/7/2 132/7/2
f 111/7/2 117/7/2 132/7/2
f 130/7/2 131/7/2 132/7/2
f 126/7/2 130/7/2 132/7/2
f 122/7/2 126/7/2 132/7/2
f 132/7/2 131/7/2 133/7/2
f 136/7/3 135/7/3 134/7/3
f 137/7/3 135/7/3 136/7/3
f 138/7/3 136/7/3 134/7/3
f 138/6/3 137/6/3 136/6/3
f 139/7/3 135/7/3 137/7/3
f 139/6/3 137/6/3 138/6/3
f 140/7/3 138/7/3 134/7/3
f 140/7/3 139/7/3 138/7/3
f 141/7/3 139/7/3 140/7/3
f 142/6/3 141/6/3 140/6/3
f 143/7/3 139/7/3 141/7/3
f 143/6/3 141/6/3 142/6/3
f 144/7/3 139/7/3 143/7/3
f 145/7/3 135/7/3 139/7/3
f 145/7/3 139/7/3 144/7/3
f 146/7/3 144/7/3 143/7/3
f 146/7/3 143/7/3 142/7/3
f 146/6/3 145/6/3 144/6/3
f 147/7/3 135/7/3 145/7/3
f 147/6/3 145/6/3 146/6/3
f 148/7/3 146/7/3 142/7/3
f 148/7/3 147/7/3 146/7/3
f 149/7/3 135/7/3 147/7/3
f 149/7/3 147/7/3 148/7/3
f 154/7/3 151/7/3 150/7/3
f 155/7/3 151/7/3 154/7/3
f 156/6/3 155/6/3 154/6/3
f 157/6/3 155/6/3 156/6/3
f 158/7/3 157/7/3 156/7/3
f 158/6/3 155/6/3 157/6/3
f 159/6/3 155/6/3 158/6/3
f 160/7/3 159/7/3 158/7/3
f 161/7/3 158/7/3 156/7/3
f 161/7/3 160/7/3 158/7/3
f 162/7/3 160/7/3 161/7/3
f 163/7/3 153/7/3 152/7/3
f 164/7/3 153/7/3 163/7/3
f 169/6/3 166/6/3 165/6/3
f 170/6/3 166/6/3 169/6/3
f 171/7/3 170/7/3 169/7/3
f 172/7/3 171/7/3 169/7/3
f 173/7/3 172/7/3 169/7/3
f 174/7/3 172/7/3 173/7/3
f 175/7/3 168/7/3 167/7/3
f 176/7/3 168/7/3 175/7/3
f 180/2/3 178/2/3 177/2/3
f 181/2/3 180/2/3 179/2/3
f 182/2/3 178/2/3 180/2/3
f 182/2/3 180/2/3 181/2/3
f 186/3/3 184/3/3 183/3/3
f 187/3/3 184/3/3 186/3/3
f 189/3/3 186/3/3 185/3/3
f 190/1/3 187/1/3 186/1/3
f 190/3/3 186/3/3 189/3/3
f 191/3/3 188/3/3 187/3/3
f 191/1/3 187/1/3 190/1/3
f 192/3/3 188/3/3 191/3/3
f 193/3/3 191/3/3 190/3/3
f 194/3/3 191/3/3 193/3/3
f 195/2/3 194/2/3 193/2/3
f 196/2/3 194/2/3 195/2/3
f 197/2/4 198/2/4 200/2/4
f 199/2/4 200/2/4 201/2/4
f 200/2/4 198/2/4 202/2/4
f 201/2/4 200/2/4 202/2/4
f 203/3/4 204/3/4 206/3/4
f 206/3/4 204/3/4 207/3/4
f 205/3/4 206/3/4 209/3/4
f 206/1/4 207/1/4 210/1/4
f 209/3/4 206/3/4 210/3/4
f 207/3/4 208/3/4 211/3/4
f 210/1/4 207/1/4 211/1/4
f 211/3/4 208/3/4 212/3/4
f 210/3/4 211/3/4 213/3/4
f 213/3/4 211/3/4 214/3/4
f 213/2/4 214/2/4 215/2/4
f 215/2/4 214/2/4 216/2/4
f 217/7/4 218/7/4 221/7/4
f 221/7/4 218/7/4 222/7/4
f 221/6/4 222/6/4 223/6/4
f 223/6/4 222/6/4 224/6/4
f 223/7/4 224/7/4 225/7/4
f 223/7/4 225/7/4 226/7/4
f 226/7/4 225/7/4 227/7/4
f 226/6/4 227/6/4 228/6/4
f 228/6/4 227/6/4 229/6/4
f 219/7/4 220/7/4 230/7/4
f 230/7/4 220/7/4 231/7/4
f 232/7/4 233/7/4 236/7/4
f 236/7/4 233/7/4 237/7/4
f 234/7/4 235/7/4 238/7/4
f 236/5/4 237/5/4 239/5/4
f 232/7/4 236/7/4 239/7/4
f 239/5/4 237/5/4 240/5/4
f 238/7/4 235/7/4 241/7/4
f 241/7/4 235/7/4 242/7/4
f 239/7/4 240/7/4 243/7/4
f 232/7/4 239/7/4 243/7/4
f 243/7/4 240/7/4 244/7/4
f 241/5/4 242/5/4 245/5/4
f 245/5/4 242/5/4 246/5/4
f 242/7/4 235/7/4 247/7/4
f 246/5/4 242/5/4 247/5/4
f 243/6/4 244/6/4 248/6/4
f 248/6/4 244/6/4 249/6/4
f 248/7/4 249/7/4 250/7/4
f 250/7/4 249/7/4 251/7/4
f 246/7/4 247/7/4 252/7/4
f 250/6/4 251/6/4 253/6/4
f 253/6/4 251/6/4 254/6/4
f 253/7/4 254/7/4 255/7/4
f 255/7/4 254/7/4 256/7/4
f 252/7/4 247/7/4 257/7/4
f 247/7/4 235/7/4 258/7/4
f 257/7/4 247/7/4 258/7/4
f 259/7/4 260/7/4 261/7/4
f 261/7/4 260/7/4 262/7/4
f 259/7/4 261/7/4 263/7/4
f 263/7/4 261/7/4 264/7/4
f 261/5/4 262/5/4 265/5/4
f 264/7/4 261/7/4 265/7/4
f 265/5/4 262/5/4 266/5/4
f 262/7/4 260/7/4 267/7/4
f 266/5/4 262/5/4 267/5/4
f 267/7/4 260/7/4 268/7/4
f 263/5/4 264/5/4 269/5/4
f 259/7/4 263/7/4 269/7/4
f 265/7/4 266/7/4 270/7/4
f 269/5/4 264/5/4 270/5/4
f 264/7/4 265/7/4 270/7/4
f 267/5/4 268/5/4 271/5/4
f 270/7/4 266/7/4 271/7/4
f 266/5/4 267/5/4 271/5/4
f 271/5/4 268/5/4 272/5/4
f 259/7/4 269/7/4 273/7/4
f 269/7/4 270/7/4 273/7/4
f 271/7/4 272/7/4 273/7/4
f 270/7/4 271/7/4 273/7/4
f 273/7/4 272/7/4 274/7/4
f 274/7/4 272/7/4 275/7/4
f 275/7/4 272/7/4 276/7/4
f 276/7/4 272/7/4 277/7/4
f 272/5/4 268/5/4 278/5/4
f 277/7/4 272/7/4 278/7/4
f 278/5/4 268/5/4 279/5/4
f 274/7/4 275/7/4 280/7/4
f 280/7/4 275/7/4 281/7/4
f 281/7/4 275/7/4 282/7/4
f 275/4/4 276/4/4 283/4/4
f 282/7/4 275/7/4 283/7/4
f 276/7/4 277/7/4 284/7/4
f 283/4/4 276/4/4 284/4/4
f 277/4/4 278/4/4 285/4/4
f 284/7/4 277/7/4 285/7/4
f 278/7/4 279/7/4 286/7/4
f 285/4/4 278/4/4 286/4/4
f 274/7/4 280/7/4 287/7/4
f 280/4/4 281/4/4 287/4/4
f 281/7/4 282/7/4 288/7/4
f 287/4/4 281/4/4 288/4/4
f 282/4/4 283/4/4 289/4/4
f 288/7/4 282/7/4 289/7/4
f 283/7/4 284/7/4 290/7/4
f 289/4/4 283/4/4 290/4/4
f 284/4/4 285/4/4 291/4/4
f 290/7/4 284/7/4 291/7/4
f 285/7/4 286/7/4 292/7/4
f 291/4/4 285/4/4 292/4/4
f 273/6/4 274/6/4 293/6/4
f 287/7/4 288/7/4 294/7/4
f 293/6/4 274/6/4 294/6/4
f 274/7/4 287/7/4 294/7/4
f 293/7/4 294/7/4 295/7/4
f 294/7/4 288/7/4 296/7/4
f 295/7/4 294/7/4 296/7/4
f 288/4/4 289/4/4 297/4/4
f 296/7/4 288/7/4 297/7/4
f 289/4/4 290/4/4 297/4/4
f 290/4/4 291/4/4 297/4/4
f 297/4/4 291/4/4 298/4/4
f 298/4/4 291/4/4 299/4/4
f 291/7/4 292/7/4 300/7/4
f 299/4/4 291/4/4 300/4/4
f 292/7/4 286/7/4 301/7/4
f 300/7/4 292/7/4 301/7/4
f 295/6/4 296/6/4 302/6/4
f 296/4/4 297/4/4 302/4/4
f 297/7/4 298/7/4 303/7/4
f 302/4/4 297/4/4 303/4/4
f 298/4/4 299/4/4 304/4/4
f 303/7/4 298/7/4 304/7/4
f 299/7/4 300/7/4 305/7/4
f 304/4/4 299/4/4 305/4/4
f 300/4/4 301/4/4 306/4/4
f 305/7/4 300/7/4 306/7/4
f 301/7/4 286/7/4 307/7/4
f 306/4/4 301/4/4 307/4/4
f 286/7/4 279/7/4 308/7/4
f 307/7/4 286/7/4 308/7/4
f 303/7/4 304/7/4 309/7/4
f 302/7/4 303/7/4 309/7/4
f 305/4/4 306/4/4 309/4/4
f 304/7/4 305/7/4 309/7/4
f 306/7/4 307/7/4 310/7/4
f 309/4/4 306/4/4 310/4/4
f 307/4/4 308/4/4 311/4/4
f 310/7/4 307/7/4 311/7/4
f 308/7/4 279/7/4 312/7/4
f 311/4/4 308/4/4 312/4/4
f 310/7/4 311/7/4 313/7/4
f 309/7/4 310/7/4 313/7/4
f 311/7/4 312/7/4 313/7/4
f 302/7/4 309/7/4 313/7/4
f 295/6/4 302/6/4 313/6/4
f 313/7/4 312/7/4 314/7/4
f 312/7/4 279/7/4 315/7/4
f 314/7/4 312/7/4 315/7/4
f 315/7/4 279/7/4 316/7/4
f 295/6/4 313/6/4 317/6/4
f 313/5/4 314/5/4 318/5/4
f 317/6/4 313/6/4 318/6/4
f 318/5/4 314/5/4 319/5/4
f 314/7/4 315/7/4 320/7/4
f 319/5/4 314/5/4 320/5/4
f 320/7/4 315/7/4 321/7/4
f 315/5/4 316/5/4 322/5/4
f 321/7/4 315/7/4 322/7/4
f 318/5/4 319/5/4 323/5/4
f 317/7/4 318/7/4 323/7/4
f 320/7/4 321/7/4 324/7/4
f 323/5/4 319/5/4 324/5/4
f 319/7/4 320/7/4 324/7/4
f 324/7/4 321/7/4 325/7/4
f 321/5/4 322/5/4 326/5/4
f 325/7/4 321/7/4 326/7/4
f 322/5/4 316/5/4 327/5/4
f 326/5/4 322/5/4 327/5/4
f 317/7/4 323/7/4 328/7/4
f 324/7/4 325/7/4 328/7/4
f 323/7/4 324/7/4 328/7/4
f 325/5/4 326/5/4 329/5/4
f 328/7/4 325/7/4 329/7/4
f 326/7/4 327/7/4 330/7/4
f 329/5/4 326/5/4 330/5/4
f 330/7/4 327/7/4 331/7/4
f 335/7/5 334/7/5 333/7/5
f 336/7/5 334/7/5 335/7/5
f 337/7/5 335/7/5 333/7/5
f 337/6/5 336/6/5 335/6/5
f 338/6/5 336/6/5 337/6/5
f 339/7/5 337/7/5 333/7/5
f 339/7/5 338/7/5 337/7/5
f 340/7/5 338/7/5 339/7/5
f 341/7/5 339/7/5 333/7/5
f 341/6/5 340/6/5 339/6/5
f 342/6/5 340/6/5 341/6/5
f 343/7/5 341/7/5 333/7/5
f 343/7/5 342/7/5 341/7/5
f 344/7/5 342/7/5 343/7/5
f 345/6/5 333/6/5 332/6/5
f 346/7/5 343/7/5 333/7/5
f 346/6/5 333/6/5 345/6/5
f 347/7/5 343/7/5 346/7/5
f 348/7/5 343/7/5 347/7/5
f 349/7/5 346/7/5 345/7/5
f 349/7/5 347/7/5 346/7/5
f 350/6/5 348/6/5 347/6/5
f 350/7/5 347/7/5 349/7/5
f 351/7/5 343/7/5 348/7/5
f 351/6/5 348/6/5 350/6/5
f 352/6/5 344/6/5 343/6/5
f 352/7/5 343/7/5 351/7/5
f 353/6/5 344/6/5 352/6/5
f 358/7/5 355/7/5 354/7/5
f 359/7/5 355/7/5 358/7/5
f 360/7/5 355/7/5 359/7/5
f 361/6/5 356/6/5 355/6/5
f 361/7/5 355/7/5 360/7/5
f 362/7/5 357/7/5 356/7/5
f 362/6/5 356/6/5 361/6/5
f 363/7/5 357/7/5 362/7/5
f 364/7/5 357/7/5 363/7/5
f 365/7/5 357/7/5 364/7/5
f 366/7/5 357/7/5 365/7/5
f 367/7/5 357/7/5 366/7/5
f 368/7/5 357/7/5 367/7/5
f 369/6/5 359/6/5 358/6/5
f 370/6/5 359/6/5 369/6/5
f 371/7/5 370/7/5 369/7/5
f 376/7/5 357/7/5 368/7/5
f 377/7/5 371/7/5 369/7/5
f 377/7/5 372/7/5 371/7/5
f 378/6/5 373/6/5 372/6/5
f 378/7/5 372/7/5 377/7/5
f 379/7/5 374/7/5 373/7/5
f 379/6/5 373/6/5 378/6/5
f 380/6/5 375/6/5 374/6/5
f 380/7/5 374/7/5 379/7/5
f 380/6/5 376/6/5 375/6/5
f 381/7/5 357/7/5 376/7/5
f 381/6/5 376/6/5 380/6/5
f 382/7/5 357/7/5 381/7/5
f 387/7/5 384/7/5 383/7/5
f 388/7/5 384/7/5 387/7/5
f 389/6/5 385/6/5 384/6/5
f 389/7/5 384/7/5 388/7/5
f 390/7/5 386/7/5 385/7/5
f 390/6/5 385/6/5 389/6/5
f 391/7/5 386/7/5 390/7/5
f 392/7/5 387/7/5 383/7/5
f 393/7/5 387/7/5 392/7/5
f 394/7/5 386/7/5 391/7/5
f 395/7/5 386/7/5 394/7/5
f 396/6/5 395/6/5 394/6/5
f 397/6/5 395/6/5 396/6/5
f 398/6/5 393/6/5 392/6/5
f 399/6/5 393/6/5 398/6/5
f 400/7/5 397/7/5 396/7/5
f 401/7/5 399/7/5 398/7/5
f 402/7/5 399/7/5 401/7/5
f 403/7/5 397/7/5 400/7/5
f 404/7/5 397/7/5 403/7/5
f 405/7/5 397/7/5 404/7/5
f 406/7/5 397/7/5 405/7/5
f 407/6/5 402/6/5 401/6/5
f 408/6/5 402/6/5 407/6/5
f 409/6/5 406/6/5 405/6/5
f 410/6/5 406/6/5 409/6/5
f 411/7/5 408/7/5 407/7/5
f 412/7/5 411/7/5 407/7/5
f 419/7/5 410/7/5 409/7/5
f 420/7/5 412/7/5 407/7/5
f 420/7/5 413/7/5 412/7/5
f 420/7/5 414/7/5 413/7/5
f 420/7/5 415/7/5 414/7/5
f 421/6/5 416/6/5 415/6/5
f 421/7/5 415/7/5 420/7/5
f 422/7/5 417/7/5 416/7/5
f 422/6/5 416/6/5 421/6/5
f 423/6/5 418/6/5 417/6/5
f 423/7/5 417/7/5 422/7/5
f 424/7/5 419/7/5 418/7/5
f 424/6/5 418/6/5 423/6/5
f 425/7/5 410/7/5 419/7/5
f 425/7/5 419/7/5 424/7/5
f 428/3/5 427/3/5 426/3/5
f 429/3/5 427/3/5 428/3/5
f 432/2/5 431/2/5 430/2/5
f 433/2/5 431/2/5 432/2/5
f 438/2/5 432/2/5 430/2/5
f 439/3/5 435/3/5 434/3/5
f 440/3/5 435/3/5 439/3/5
f 441/3/5 437/3/5 436/3/5
f 442/2/5 438/2/5 437/2/5
f 442/3/5 437/3/5 441/3/5
f 443/2/5 432/2/5 438/2/5
f 443/2/5 438/2/5 442/2/5
f 444/7/6 445/7/6 446/7/6
f 446/7/6 445/7/6 447/7/6
f 444/7/6 446/7/6 448/7/6
f 447/7/6 445/7/6 454/7/6
f 444/7/6 448/7/6 455/7/6
f 448/7/6 449/7/6 455/7/6
f 449/5/6 450/5/6 456/5/6
f 455/7/6 449/7/6 456/7/6
f 450/5/6 451/5/6 456/5/6
f 452/7/6 453/7/6 457/7/6
f 456/5/6 451/5/6 457/5/6
f 451/7/6 452/7/6 457/7/6
f 453/5/6 454/5/6 458/5/6
f 457/7/6 453/7/6 458/7/6
f 454/7/6 445/7/6 459/7/6
f 458/5/6 454/5/6 459/5/6
f 459/7/6 445/7/6 460/7/6
f 461/7/6 462/7/6 463/7/6
f 463/7/6 462/7/6 464/7/6
f 461/7/6 463/7/6 465/7/6
f 464/7/6 462/7/6 466/7/6
f 461/7/6 465/7/6 467/7/6
f 465/7/6 466/7/6 467/7/6
f 466/7/6 462/7/6 468/7/6
f 467/7/6 466/7/6 468/7/6
f 469/7/6 470/7/6 471/7/6
f 471/7/6 470/7/6 472/7/6
f 469/7/6 471/7/6 473/7/6
f 472/7/6 470/7/6 474/7/6
f 469/7/6 473/7/6 475/7/6
f 473/7/6 474/7/6 475/7/6
f 474/7/6 470/7/6 476/7/6
f 475/7/6 474/7/6 476/7/6
f 477/2/6 478/2/6 479/2/6
f 479/2/6 478/2/6 480/2/6
f 477/2/6 479/2/6 485/2/6
f 481/3/6 482/3/6 486/3/6
f 486/3/6 482/3/6 487/3/6
f 483/3/6 484/3/6 488/3/6
f 484/2/6 485/2/6 489/2/6
f 488/3/6 484/3/6 489/3/6
f 485/2/6 479/2/6 490/2/6
f 489/2/6 485/2/6 490/2/6
f 491/3/6 492/3/6 493/3/6
f 493/3/6 492/3/6 494/3/6
