# MagicaVoxel @ Ephtracy

# group
o 

# material
mtllib 45346236726.mtl
usemtl palette

# normals
vn -1 0 0
vn 1 0 0
vn 0 0 1
vn 0 0 -1
vn 0 -1 0
vn 0 1 0

# texcoords
vt 0.185547 0.5
vt 0.841797 0.5
vt 0.947266 0.5
vt 0.955078 0.5
vt 0.958984 0.5
vt 0.962891 0.5
vt 0.970703 0.5
vt 0.986328 0.5
vt 0.994141 0.5

# verts
v -1 2.2 0.4
v -1 2.2 -0.1
v -1 3.4 0.3
v -1 3.4 -0.1
v -1 3.7 0.4
v -1 3.7 0.3
v -0.9 3.4 0.3
v -0.9 3.4 0.1
v -0.9 3.4 0
v -0.9 3.4 -0.1
v -0.9 3.5 0.1
v -0.9 3.5 0
v -0.9 3.6 0.3
v -0.9 3.6 0
v -0.9 3.6 -0.1
v -0.6 0.9 0.4
v -0.6 0.9 -0.1
v -0.6 2 0.4
v -0.6 2 -0.1
v -0.6 2.6 0.5
v -0.6 2.6 0.4
v -0.6 2.7 0.5
v -0.6 2.7 0.4
v -0.6 2.9 0.5
v -0.6 2.9 0.4
v -0.6 3.1 0.5
v -0.6 3.1 0.4
v -0.5 2.5 0.5
v -0.5 2.5 0.4
v -0.5 2.6 0.5
v -0.5 2.6 0.4
v -0.4 2.4 0.5
v -0.4 2.4 0.4
v -0.4 2.5 0.5
v -0.4 2.5 0.4
v -0.3 0 0.4
v -0.3 0 0
v -0.3 0.8 0.4
v -0.3 0.8 0
v -0.3 0.8 -0.1
v -0.3 0.9 0.4
v -0.3 0.9 0.3
v -0.3 0.9 0
v -0.3 0.9 -0.1
v -0.3 2 0.4
v -0.3 2 -0.1
v -0.3 2.1 0.4
v -0.3 2.1 0.3
v -0.3 2.2 0.4
v -0.3 2.2 0.3
v -0.3 2.2 -0.1
v -0.0999999 2.5 0.5
v -0.0999999 2.5 0.4
v -0.0999999 2.6 0.5
v -0.0999999 2.6 0.4
v -0.0999999 2.9 0.5
v -0.0999999 2.9 0.4
v -0.0999999 3.1 0.5
v -0.0999999 3.1 0.4
v 1.19209e-07 2.6 0.5
v 1.19209e-07 2.6 0.4
v 1.19209e-07 2.7 0.5
v 1.19209e-07 2.7 0.4
v 0.1 0 0.4
v 0.1 0 0
v 0.1 0.8 0.4
v 0.1 0.8 0
v -0.5 2.6 0.5
v -0.5 2.6 0.4
v -0.5 2.7 0.5
v -0.5 2.7 0.4
v -0.5 3.6 0.4
v -0.5 3.6 0.3
v -0.5 3.7 0.4
v -0.5 3.7 0.3
v -0.4 2.5 0.5
v -0.4 2.5 0.4
v -0.4 2.6 0.5
v -0.4 2.6 0.4
v -0.4 2.9 0.5
v -0.4 2.9 0.4
v -0.4 3.1 0.5
v -0.4 3.1 0.4
v -0.3 3.4 0.4
v -0.3 3.4 0.3
v -0.3 3.5 0.3
v -0.3 3.6 0.4
v -0.3 3.6 0.3
v -0.0999999 2.4 0.5
v -0.0999999 2.4 0.4
v -0.0999999 2.5 0.5
v -0.0999999 2.5 0.4
v 1.19209e-07 0 0.4
v 1.19209e-07 0 0
v 1.19209e-07 0.8 0.4
v 1.19209e-07 0.8 0
v 1.19209e-07 2.5 0.5
v 1.19209e-07 2.5 0.4
v 1.19209e-07 2.6 0.5
v 1.19209e-07 2.6 0.4
v 0.1 2.6 0.5
v 0.1 2.6 0.4
v 0.1 2.7 0.5
v 0.1 2.7 0.4
v 0.1 2.9 0.5
v 0.1 2.9 0.4
v 0.1 3.1 0.5
v 0.1 3.1 0.4
v 0.4 0 0.4
v 0.4 0 0
v 0.4 0.8 0.4
v 0.4 0.8 0
v 0.4 0.8 -0.1
v 0.4 0.9 0.4
v 0.4 0.9 0.3
v 0.4 0.9 0
v 0.4 0.9 -0.1
v 0.4 2 0.4
v 0.4 2 -0.1
v 0.4 2.1 0.4
v 0.4 2.1 0.3
v 0.4 2.2 0.4
v 0.4 2.2 0.3
v 0.4 2.2 -0.1
v 0.7 0.9 0.4
v 0.7 0.9 -0.1
v 0.7 2 0.4
v 0.7 2 -0.1
v 1.1 2.2 0.4
v 1.1 2.2 -0.1
v 1.1 3.4 0.4
v 1.1 3.4 0.3
v 1.1 3.4 0.2
v 1.1 3.4 0.1
v 1.1 3.4 0
v 1.1 3.5 0.3
v 1.1 3.5 0.2
v 1.1 3.5 0.1
v 1.1 3.5 0
v 1.1 3.6 0.3
v 1.1 3.6 0
v 1.1 3.6 -0.1
v -0.6 2.6 0.5
v -0.6 2.7 0.5
v -0.6 2.9 0.5
v -0.6 3.1 0.5
v -0.5 2.5 0.5
v -0.5 2.6 0.5
v -0.5 2.7 0.5
v -0.4 2.4 0.5
v -0.4 2.5 0.5
v -0.4 2.6 0.5
v -0.4 2.9 0.5
v -0.4 3.1 0.5
v -0.0999999 2.4 0.5
v -0.0999999 2.5 0.5
v -0.0999999 2.6 0.5
v -0.0999999 2.9 0.5
v -0.0999999 3.1 0.5
v 1.19209e-07 2.5 0.5
v 1.19209e-07 2.6 0.5
v 1.19209e-07 2.7 0.5
v 0.1 2.6 0.5
v 0.1 2.7 0.5
v 0.1 2.9 0.5
v 0.1 3.1 0.5
v -1 2.2 0.4
v -1 3.7 0.4
v -0.6 0.9 0.4
v -0.6 2 0.4
v -0.6 2.6 0.4
v -0.6 2.7 0.4
v -0.6 2.9 0.4
v -0.6 3.1 0.4
v -0.5 0.9 0.4
v -0.5 1 0.4
v -0.5 1.1 0.4
v -0.5 1.2 0.4
v -0.5 1.3 0.4
v -0.5 1.4 0.4
v -0.5 1.5 0.4
v -0.5 1.6 0.4
v -0.5 1.7 0.4
v -0.5 1.8 0.4
v -0.5 1.9 0.4
v -0.5 2 0.4
v -0.5 2.5 0.4
v -0.5 2.6 0.4
v -0.5 2.7 0.4
v -0.5 3.6 0.4
v -0.5 3.7 0.4
v -0.4 0.9 0.4
v -0.4 1 0.4
v -0.4 1.1 0.4
v -0.4 1.2 0.4
v -0.4 1.3 0.4
v -0.4 1.4 0.4
v -0.4 1.5 0.4
v -0.4 1.6 0.4
v -0.4 1.7 0.4
v -0.4 1.8 0.4
v -0.4 1.9 0.4
v -0.4 2 0.4
v -0.4 2.4 0.4
v -0.4 2.5 0.4
v -0.4 2.6 0.4
v -0.4 2.9 0.4
v -0.4 3.1 0.4
v -0.3 0 0.4
v -0.3 0.8 0.4
v -0.3 0.9 0.4
v -0.3 2 0.4
v -0.3 2.1 0.4
v -0.3 2.2 0.4
v -0.3 3.4 0.4
v -0.3 3.6 0.4
v -0.2 2 0.4
v -0.2 2.1 0.4
v -0.0999999 2.4 0.4
v -0.0999999 2.5 0.4
v -0.0999999 2.6 0.4
v -0.0999999 2.9 0.4
v -0.0999999 3.1 0.4
v 1.19209e-07 0 0.4
v 1.19209e-07 0.8 0.4
v 1.19209e-07 1 0.4
v 1.19209e-07 1.1 0.4
v 1.19209e-07 1.2 0.4
v 1.19209e-07 1.3 0.4
v 1.19209e-07 1.4 0.4
v 1.19209e-07 1.5 0.4
v 1.19209e-07 1.6 0.4
v 1.19209e-07 1.7 0.4
v 1.19209e-07 1.8 0.4
v 1.19209e-07 2 0.4
v 1.19209e-07 2.1 0.4
v 1.19209e-07 2.2 0.4
v 1.19209e-07 2.5 0.4
v 1.19209e-07 2.6 0.4
v 1.19209e-07 2.7 0.4
v 0.1 0 0.4
v 0.1 0.8 0.4
v 0.1 1 0.4
v 0.1 1.1 0.4
v 0.1 1.2 0.4
v 0.1 1.3 0.4
v 0.1 1.4 0.4
v 0.1 1.5 0.4
v 0.1 1.6 0.4
v 0.1 1.7 0.4
v 0.1 1.8 0.4
v 0.1 1.9 0.4
v 0.1 2.1 0.4
v 0.1 2.2 0.4
v 0.1 2.6 0.4
v 0.1 2.7 0.4
v 0.1 2.9 0.4
v 0.1 3.1 0.4
v 0.2 1.9 0.4
v 0.2 2 0.4
v 0.2 2.1 0.4
v 0.3 2 0.4
v 0.3 2.1 0.4
v 0.4 0 0.4
v 0.4 0.8 0.4
v 0.4 0.9 0.4
v 0.4 2 0.4
v 0.4 2.1 0.4
v 0.4 2.2 0.4
v 0.5 0.9 0.4
v 0.5 1 0.4
v 0.5 1.1 0.4
v 0.5 1.2 0.4
v 0.5 1.3 0.4
v 0.5 1.4 0.4
v 0.5 1.5 0.4
v 0.5 1.6 0.4
v 0.5 1.7 0.4
v 0.5 1.8 0.4
v 0.5 1.9 0.4
v 0.5 2 0.4
v 0.6 0.9 0.4
v 0.6 1 0.4
v 0.6 1.1 0.4
v 0.6 1.2 0.4
v 0.6 1.3 0.4
v 0.6 1.4 0.4
v 0.6 1.5 0.4
v 0.6 1.6 0.4
v 0.6 1.7 0.4
v 0.6 1.8 0.4
v 0.6 1.9 0.4
v 0.6 2 0.4
v 0.7 0.9 0.4
v 0.7 2 0.4
v 1.1 2.2 0.4
v 1.1 3.4 0.4
v -0.3 3.4 0.3
v -0.3 3.5 0.3
v -0.3 3.6 0.3
v 1.1 3.4 0.3
v 1.1 3.5 0.3
v 1.1 3.6 0.3
v -0.9 3.4 0
v -0.9 3.5 0
v 1.1 3.4 0
v 1.1 3.5 0
v -1 3.4 0.3
v -1 3.7 0.3
v -0.9 3.4 0.3
v -0.9 3.6 0.3
v -0.5 3.6 0.3
v -0.5 3.7 0.3
v -0.9 3.4 0.1
v -0.9 3.5 0.1
v 1.1 3.4 0.1
v 1.1 3.5 0.1
v -0.3 0 0
v -0.3 0.8 0
v 1.19209e-07 0 0
v 1.19209e-07 0.8 0
v 0.1 0 0
v 0.1 0.8 0
v 0.4 0 0
v 0.4 0.8 0
v -1 2.2 -0.1
v -1 3.4 -0.1
v -0.9 3.4 -0.1
v -0.9 3.6 -0.1
v -0.6 0.9 -0.1
v -0.6 2 -0.1
v -0.3 0.8 -0.1
v -0.3 0.9 -0.1
v -0.3 2 -0.1
v -0.3 2.2 -0.1
v 0.4 0.8 -0.1
v 0.4 0.9 -0.1
v 0.4 2 -0.1
v 0.4 2.2 -0.1
v 0.7 0.9 -0.1
v 0.7 2 -0.1
v 1.1 2.2 -0.1
v 1.1 3.6 -0.1
v -0.3 0 0.4
v 1.19209e-07 0 0.4
v 0.1 0 0.4
v 0.4 0 0.4
v -0.3 0 0
v 1.19209e-07 0 0
v 0.1 0 0
v 0.4 0 0
v 1.19209e-07 0.8 0.4
v 0.1 0.8 0.4
v -0.3 0.8 0
v 1.19209e-07 0.8 0
v 0.1 0.8 0
v 0.4 0.8 0
v -0.3 0.8 -0.1
v 0.4 0.8 -0.1
v -0.6 0.9 0.4
v -0.5 0.9 0.4
v -0.4 0.9 0.4
v -0.3 0.9 0.4
v 0.4 0.9 0.4
v 0.5 0.9 0.4
v 0.6 0.9 0.4
v 0.7 0.9 0.4
v -0.5 0.9 0.3
v -0.4 0.9 0.3
v -0.3 0.9 0.3
v 0.4 0.9 0.3
v 0.5 0.9 0.3
v 0.6 0.9 0.3
v -0.5 0.9 0
v -0.3 0.9 0
v 0.4 0.9 0
v 0.6 0.9 0
v -0.6 0.9 -0.1
v -0.3 0.9 -0.1
v 0.4 0.9 -0.1
v 0.7 0.9 -0.1
v -1 2.2 0.4
v -0.3 2.2 0.4
v 0.4 2.2 0.4
v 1.1 2.2 0.4
v -0.3 2.2 0.3
v 0.4 2.2 0.3
v -1 2.2 -0.1
v -0.3 2.2 -0.1
v 0.4 2.2 -0.1
v 1.1 2.2 -0.1
v -0.4 2.4 0.5
v -0.0999999 2.4 0.5
v -0.4 2.4 0.4
v -0.0999999 2.4 0.4
v -0.5 2.5 0.5
v -0.4 2.5 0.5
v -0.0999999 2.5 0.5
v 1.19209e-07 2.5 0.5
v -0.5 2.5 0.4
v -0.4 2.5 0.4
v -0.0999999 2.5 0.4
v 1.19209e-07 2.5 0.4
v -0.6 2.6 0.5
v -0.5 2.6 0.5
v 1.19209e-07 2.6 0.5
v 0.1 2.6 0.5
v -0.6 2.6 0.4
v -0.5 2.6 0.4
v 1.19209e-07 2.6 0.4
v 0.1 2.6 0.4
v -0.6 2.9 0.5
v -0.4 2.9 0.5
v -0.0999999 2.9 0.5
v 0.1 2.9 0.5
v -0.6 2.9 0.4
v -0.4 2.9 0.4
v -0.0999999 2.9 0.4
v 0.1 2.9 0.4
v -0.9 3.5 0.1
v 1.1 3.5 0.1
v -0.9 3.5 0
v 1.1 3.5 0
v -0.6 2 0.4
v -0.5 2 0.4
v -0.4 2 0.4
v -0.3 2 0.4
v 0.4 2 0.4
v 0.5 2 0.4
v 0.6 2 0.4
v 0.7 2 0.4
v -0.5 2 0.3
v -0.4 2 0.3
v 0.5 2 0.3
v 0.6 2 0.3
v -0.6 2 -0.1
v -0.3 2 -0.1
v 0.4 2 -0.1
v 0.7 2 -0.1
v -0.4 2.5 0.5
v -0.0999999 2.5 0.5
v -0.4 2.5 0.4
v -0.0999999 2.5 0.4
v -0.5 2.6 0.5
v -0.4 2.6 0.5
v -0.0999999 2.6 0.5
v 1.19209e-07 2.6 0.5
v -0.5 2.6 0.4
v -0.4 2.6 0.4
v -0.0999999 2.6 0.4
v 1.19209e-07 2.6 0.4
v -0.6 2.7 0.5
v -0.5 2.7 0.5
v 1.19209e-07 2.7 0.5
v 0.1 2.7 0.5
v -0.6 2.7 0.4
v -0.5 2.7 0.4
v 1.19209e-07 2.7 0.4
v 0.1 2.7 0.4
v -0.6 3.1 0.5
v -0.4 3.1 0.5
v -0.0999999 3.1 0.5
v 0.1 3.1 0.5
v -0.6 3.1 0.4
v -0.4 3.1 0.4
v -0.0999999 3.1 0.4
v 0.1 3.1 0.4
v -0.3 3.4 0.4
v 1.1 3.4 0.4
v -1 3.4 0.3
v -0.9 3.4 0.3
v -0.3 3.4 0.3
v 1.1 3.4 0.3
v -0.9 3.4 0.1
v 1.1 3.4 0.1
v -0.9 3.4 0
v 1.1 3.4 0
v -1 3.4 -0.1
v -0.9 3.4 -0.1
v -0.5 3.6 0.4
v -0.3 3.6 0.4
v -0.9 3.6 0.3
v -0.5 3.6 0.3
v -0.3 3.6 0.3
v 1.1 3.6 0.3
v -0.9 3.6 0
v 1.1 3.6 0
v -0.9 3.6 -0.1
v 1.1 3.6 -0.1
v -1 3.7 0.4
v -0.5 3.7 0.4
v -1 3.7 0.3
v -0.5 3.7 0.3

# faces
f 3/1/1 2/1/1 1/1/1
f 4/1/1 2/1/1 3/1/1
f 5/1/1 3/1/1 1/1/1
f 6/1/1 3/1/1 5/1/1
f 11/5/1 8/5/1 7/5/1
f 12/1/1 10/1/1 9/1/1
f 13/5/1 11/5/1 7/5/1
f 13/5/1 12/5/1 11/5/1
f 14/1/1 10/1/1 12/1/1
f 14/5/1 12/5/1 13/5/1
f 15/1/1 10/1/1 14/1/1
f 18/3/1 17/3/1 16/3/1
f 19/3/1 17/3/1 18/3/1
f 22/5/1 21/5/1 20/5/1
f 23/5/1 21/5/1 22/5/1
f 26/5/1 25/5/1 24/5/1
f 27/5/1 25/5/1 26/5/1
f 30/5/1 29/5/1 28/5/1
f 31/5/1 29/5/1 30/5/1
f 34/5/1 33/5/1 32/5/1
f 35/5/1 33/5/1 34/5/1
f 38/4/1 37/4/1 36/4/1
f 39/4/1 37/4/1 38/4/1
f 41/9/1 39/9/1 38/9/1
f 41/9/1 40/9/1 39/9/1
f 42/9/1 40/9/1 41/9/1
f 43/9/1 40/9/1 42/9/1
f 44/9/1 40/9/1 43/9/1
f 47/9/1 46/9/1 45/9/1
f 48/9/1 46/9/1 47/9/1
f 49/7/1 48/7/1 47/7/1
f 50/9/1 46/9/1 48/9/1
f 50/7/1 48/7/1 49/7/1
f 51/9/1 46/9/1 50/9/1
f 54/5/1 53/5/1 52/5/1
f 55/5/1 53/5/1 54/5/1
f 58/5/1 57/5/1 56/5/1
f 59/5/1 57/5/1 58/5/1
f 62/5/1 61/5/1 60/5/1
f 63/5/1 61/5/1 62/5/1
f 66/4/1 65/4/1 64/4/1
f 67/4/1 65/4/1 66/4/1
f 68/5/2 69/5/2 70/5/2
f 70/5/2 69/5/2 71/5/2
f 72/1/2 73/1/2 74/1/2
f 74/1/2 73/1/2 75/1/2
f 76/5/2 77/5/2 78/5/2
f 78/5/2 77/5/2 79/5/2
f 80/5/2 81/5/2 82/5/2
f 82/5/2 81/5/2 83/5/2
f 84/1/2 85/1/2 86/1/2
f 84/1/2 86/1/2 87/1/2
f 87/1/2 86/1/2 88/1/2
f 89/5/2 90/5/2 91/5/2
f 91/5/2 90/5/2 92/5/2
f 93/4/2 94/4/2 95/4/2
f 95/4/2 94/4/2 96/4/2
f 97/5/2 98/5/2 99/5/2
f 99/5/2 98/5/2 100/5/2
f 101/5/2 102/5/2 103/5/2
f 103/5/2 102/5/2 104/5/2
f 105/5/2 106/5/2 107/5/2
f 107/5/2 106/5/2 108/5/2
f 109/4/2 110/4/2 111/4/2
f 111/4/2 110/4/2 112/4/2
f 111/9/2 112/9/2 114/9/2
f 112/9/2 113/9/2 114/9/2
f 114/9/2 113/9/2 115/9/2
f 115/9/2 113/9/2 116/9/2
f 116/9/2 113/9/2 117/9/2
f 118/9/2 119/9/2 120/9/2
f 120/9/2 119/9/2 121/9/2
f 120/7/2 121/7/2 122/7/2
f 121/9/2 119/9/2 123/9/2
f 122/7/2 121/7/2 123/7/2
f 123/9/2 119/9/2 124/9/2
f 125/3/2 126/3/2 127/3/2
f 127/3/2 126/3/2 128/3/2
f 129/1/2 130/1/2 131/1/2
f 131/1/2 130/1/2 132/1/2
f 132/1/2 130/1/2 133/1/2
f 133/1/2 130/1/2 134/1/2
f 134/1/2 130/1/2 135/1/2
f 132/8/2 133/8/2 136/8/2
f 133/5/2 134/5/2 137/5/2
f 136/8/2 133/8/2 137/8/2
f 137/5/2 134/5/2 138/5/2
f 135/1/2 130/1/2 139/1/2
f 137/5/2 138/5/2 140/5/2
f 138/5/2 139/5/2 140/5/2
f 136/5/2 137/5/2 140/5/2
f 139/1/2 130/1/2 141/1/2
f 140/5/2 139/5/2 141/5/2
f 141/1/2 130/1/2 142/1/2
f 148/5/3 144/5/3 143/5/3
f 149/5/3 144/5/3 148/5/3
f 151/5/3 148/5/3 147/5/3
f 152/5/3 148/5/3 151/5/3
f 153/5/3 146/5/3 145/5/3
f 154/5/3 146/5/3 153/5/3
f 155/5/3 151/5/3 150/5/3
f 156/5/3 151/5/3 155/5/3
f 160/5/3 157/5/3 156/5/3
f 161/5/3 157/5/3 160/5/3
f 163/5/3 162/5/3 161/5/3
f 164/5/3 162/5/3 163/5/3
f 165/5/3 159/5/3 158/5/3
f 166/5/3 159/5/3 165/5/3
f 171/1/3 168/1/3 167/1/3
f 172/1/3 168/1/3 171/1/3
f 173/1/3 168/1/3 172/1/3
f 174/1/3 168/1/3 173/1/3
f 175/3/3 170/3/3 169/3/3
f 176/3/3 170/3/3 175/3/3
f 177/3/3 170/3/3 176/3/3
f 178/3/3 170/3/3 177/3/3
f 179/3/3 170/3/3 178/3/3
f 180/3/3 170/3/3 179/3/3
f 181/3/3 170/3/3 180/3/3
f 182/3/3 170/3/3 181/3/3
f 183/3/3 170/3/3 182/3/3
f 184/3/3 170/3/3 183/3/3
f 185/3/3 170/3/3 184/3/3
f 186/3/3 170/3/3 185/3/3
f 187/1/3 171/1/3 167/1/3
f 188/1/3 171/1/3 187/1/3
f 189/1/3 173/1/3 172/1/3
f 190/1/3 168/1/3 174/1/3
f 191/1/3 168/1/3 190/1/3
f 192/4/3 176/4/3 175/4/3
f 193/3/3 177/3/3 176/3/3
f 193/4/3 176/4/3 192/4/3
f 194/4/3 178/4/3 177/4/3
f 194/3/3 177/3/3 193/3/3
f 195/3/3 179/3/3 178/3/3
f 195/4/3 178/4/3 194/4/3
f 196/4/3 180/4/3 179/4/3
f 196/3/3 179/3/3 195/3/3
f 197/3/3 181/3/3 180/3/3
f 197/4/3 180/4/3 196/4/3
f 198/4/3 182/4/3 181/4/3
f 198/3/3 181/3/3 197/3/3
f 199/3/3 183/3/3 182/3/3
f 199/4/3 182/4/3 198/4/3
f 200/4/3 184/4/3 183/4/3
f 200/3/3 183/3/3 199/3/3
f 201/3/3 185/3/3 184/3/3
f 201/4/3 184/4/3 200/4/3
f 202/4/3 186/4/3 185/4/3
f 202/3/3 185/3/3 201/3/3
f 203/4/3 186/4/3 202/4/3
f 204/1/3 187/1/3 167/1/3
f 205/1/3 187/1/3 204/1/3
f 206/1/3 189/1/3 188/1/3
f 207/1/3 173/1/3 189/1/3
f 207/1/3 189/1/3 206/1/3
f 208/1/3 190/1/3 174/1/3
f 211/3/3 201/3/3 200/3/3
f 211/3/3 193/3/3 192/3/3
f 211/3/3 194/3/3 193/3/3
f 211/3/3 195/3/3 194/3/3
f 211/3/3 196/3/3 195/3/3
f 211/3/3 197/3/3 196/3/3
f 211/3/3 202/3/3 201/3/3
f 211/3/3 198/3/3 197/3/3
f 211/3/3 199/3/3 198/3/3
f 211/3/3 203/3/3 202/3/3
f 211/3/3 200/3/3 199/3/3
f 212/3/3 203/3/3 211/3/3
f 214/1/3 204/1/3 167/1/3
f 215/1/3 208/1/3 207/1/3
f 215/1/3 207/1/3 206/1/3
f 215/1/3 190/1/3 208/1/3
f 215/1/3 206/1/3 205/1/3
f 216/1/3 190/1/3 215/1/3
f 217/9/3 213/9/3 212/9/3
f 217/9/3 212/9/3 211/9/3
f 217/9/3 211/9/3 210/9/3
f 218/7/3 214/7/3 213/7/3
f 218/9/3 213/9/3 217/9/3
f 219/1/3 204/1/3 214/1/3
f 220/1/3 215/1/3 205/1/3
f 221/1/3 215/1/3 220/1/3
f 222/1/3 215/1/3 221/1/3
f 223/1/3 215/1/3 222/1/3
f 224/4/3 210/4/3 209/4/3
f 225/9/3 217/9/3 210/9/3
f 225/4/3 210/4/3 224/4/3
f 226/9/3 217/9/3 225/9/3
f 227/9/3 217/9/3 226/9/3
f 228/9/3 217/9/3 227/9/3
f 229/9/3 217/9/3 228/9/3
f 230/9/3 217/9/3 229/9/3
f 231/9/3 217/9/3 230/9/3
f 232/9/3 217/9/3 231/9/3
f 233/9/3 217/9/3 232/9/3
f 234/9/3 217/9/3 233/9/3
f 235/7/3 218/7/3 217/7/3
f 235/9/3 217/9/3 234/9/3
f 236/7/3 214/7/3 218/7/3
f 236/7/3 218/7/3 235/7/3
f 237/1/3 219/1/3 214/1/3
f 237/7/3 214/7/3 236/7/3
f 237/1/3 220/1/3 219/1/3
f 238/1/3 220/1/3 237/1/3
f 239/1/3 222/1/3 221/1/3
f 240/1/3 222/1/3 239/1/3
f 242/9/3 226/9/3 225/9/3
f 243/1/3 227/1/3 226/1/3
f 243/9/3 226/9/3 242/9/3
f 244/9/3 228/9/3 227/9/3
f 244/1/3 227/1/3 243/1/3
f 245/1/3 229/1/3 228/1/3
f 245/9/3 228/9/3 244/9/3
f 246/9/3 230/9/3 229/9/3
f 246/1/3 229/1/3 245/1/3
f 247/1/3 231/1/3 230/1/3
f 247/9/3 230/9/3 246/9/3
f 248/9/3 232/9/3 231/9/3
f 248/1/3 231/1/3 247/1/3
f 249/1/3 233/1/3 232/1/3
f 249/9/3 232/9/3 248/9/3
f 250/9/3 234/9/3 233/9/3
f 250/1/3 233/1/3 249/1/3
f 251/2/3 235/2/3 234/2/3
f 251/9/3 234/9/3 250/9/3
f 251/2/3 236/2/3 235/2/3
f 252/2/3 236/2/3 251/2/3
f 253/6/3 237/6/3 236/6/3
f 253/2/3 236/2/3 252/2/3
f 254/1/3 238/1/3 237/1/3
f 254/6/3 237/6/3 253/6/3
f 254/1/3 239/1/3 238/1/3
f 255/1/3 239/1/3 254/1/3
f 256/1/3 222/1/3 240/1/3
f 257/1/3 222/1/3 256/1/3
f 258/1/3 215/1/3 223/1/3
f 259/9/3 250/9/3 249/9/3
f 259/9/3 249/9/3 248/9/3
f 259/9/3 248/9/3 247/9/3
f 259/2/3 253/2/3 252/2/3
f 259/9/3 251/9/3 250/9/3
f 259/9/3 243/9/3 242/9/3
f 259/9/3 244/9/3 243/9/3
f 259/9/3 245/9/3 244/9/3
f 259/9/3 252/9/3 251/9/3
f 259/9/3 247/9/3 246/9/3
f 259/9/3 246/9/3 245/9/3
f 260/2/3 253/2/3 259/2/3
f 261/7/3 254/7/3 253/7/3
f 261/2/3 253/2/3 260/2/3
f 262/9/3 260/9/3 259/9/3
f 262/7/3 261/7/3 260/7/3
f 263/7/3 254/7/3 261/7/3
f 263/7/3 261/7/3 262/7/3
f 264/4/3 242/4/3 241/4/3
f 265/9/3 262/9/3 259/9/3
f 265/4/3 242/4/3 264/4/3
f 265/9/3 259/9/3 242/9/3
f 265/9/3 263/9/3 262/9/3
f 266/9/3 263/9/3 265/9/3
f 267/9/3 263/9/3 266/9/3
f 268/7/3 254/7/3 263/7/3
f 268/9/3 263/9/3 267/9/3
f 269/1/3 257/1/3 256/1/3
f 269/7/3 254/7/3 268/7/3
f 269/1/3 258/1/3 257/1/3
f 269/1/3 256/1/3 255/1/3
f 269/1/3 255/1/3 254/1/3
f 270/3/3 267/3/3 266/3/3
f 271/3/3 267/3/3 270/3/3
f 272/3/3 267/3/3 271/3/3
f 273/3/3 267/3/3 272/3/3
f 274/3/3 267/3/3 273/3/3
f 275/3/3 267/3/3 274/3/3
f 276/3/3 267/3/3 275/3/3
f 277/3/3 267/3/3 276/3/3
f 278/3/3 267/3/3 277/3/3
f 279/3/3 267/3/3 278/3/3
f 280/3/3 267/3/3 279/3/3
f 281/3/3 267/3/3 280/3/3
f 282/4/3 271/4/3 270/4/3
f 283/3/3 272/3/3 271/3/3
f 283/4/3 271/4/3 282/4/3
f 284/4/3 273/4/3 272/4/3
f 284/3/3 272/3/3 283/3/3
f 285/3/3 274/3/3 273/3/3
f 285/4/3 273/4/3 284/4/3
f 286/4/3 275/4/3 274/4/3
f 286/3/3 274/3/3 285/3/3
f 287/3/3 276/3/3 275/3/3
f 287/4/3 275/4/3 286/4/3
f 288/4/3 277/4/3 276/4/3
f 288/3/3 276/3/3 287/3/3
f 289/3/3 278/3/3 277/3/3
f 289/4/3 277/4/3 288/4/3
f 290/4/3 279/4/3 278/4/3
f 290/3/3 278/3/3 289/3/3
f 291/3/3 280/3/3 279/3/3
f 291/4/3 279/4/3 290/4/3
f 292/4/3 281/4/3 280/4/3
f 292/3/3 280/3/3 291/3/3
f 293/4/3 281/4/3 292/4/3
f 294/3/3 283/3/3 282/3/3
f 294/3/3 284/3/3 283/3/3
f 294/3/3 293/3/3 292/3/3
f 294/3/3 292/3/3 291/3/3
f 294/3/3 291/3/3 290/3/3
f 294/3/3 290/3/3 289/3/3
f 294/3/3 289/3/3 288/3/3
f 294/3/3 288/3/3 287/3/3
f 294/3/3 287/3/3 286/3/3
f 294/3/3 286/3/3 285/3/3
f 294/3/3 285/3/3 284/3/3
f 295/3/3 293/3/3 294/3/3
f 296/1/3 258/1/3 269/1/3
f 297/1/3 215/1/3 258/1/3
f 297/1/3 258/1/3 296/1/3
f 301/8/3 299/8/3 298/8/3
f 302/5/3 300/5/3 299/5/3
f 302/8/3 299/8/3 301/8/3
f 303/5/3 300/5/3 302/5/3
f 306/1/3 305/1/3 304/1/3
f 307/1/3 305/1/3 306/1/3
f 308/1/4 309/1/4 310/1/4
f 310/1/4 309/1/4 311/1/4
f 311/1/4 309/1/4 312/1/4
f 312/1/4 309/1/4 313/1/4
f 314/5/4 315/5/4 316/5/4
f 316/5/4 315/5/4 317/5/4
f 318/4/4 319/4/4 320/4/4
f 320/4/4 319/4/4 321/4/4
f 322/4/4 323/4/4 324/4/4
f 324/4/4 323/4/4 325/4/4
f 326/1/4 327/1/4 328/1/4
f 330/3/4 331/3/4 333/3/4
f 333/3/4 331/3/4 334/3/4
f 326/1/4 328/1/4 335/1/4
f 328/1/4 329/1/4 335/1/4
f 333/9/4 334/9/4 336/9/4
f 334/9/4 335/9/4 336/9/4
f 332/9/4 333/9/4 336/9/4
f 336/9/4 335/9/4 337/9/4
f 337/9/4 335/9/4 338/9/4
f 335/1/4 329/1/4 339/1/4
f 338/9/4 335/9/4 339/9/4
f 337/3/4 338/3/4 340/3/4
f 340/3/4 338/3/4 341/3/4
f 339/1/4 329/1/4 342/1/4
f 342/1/4 329/1/4 343/1/4
f 348/4/5 345/4/5 344/4/5
f 349/4/5 345/4/5 348/4/5
f 350/4/5 347/4/5 346/4/5
f 351/4/5 347/4/5 350/4/5
f 355/9/5 353/9/5 352/9/5
f 356/9/5 353/9/5 355/9/5
f 358/9/5 355/9/5 354/9/5
f 358/9/5 357/9/5 356/9/5
f 358/9/5 356/9/5 355/9/5
f 359/9/5 357/9/5 358/9/5
f 368/3/5 361/3/5 360/3/5
f 368/4/5 362/4/5 361/4/5
f 369/3/5 363/3/5 362/3/5
f 369/4/5 362/4/5 368/4/5
f 370/3/5 363/3/5 369/3/5
f 371/3/5 365/3/5 364/3/5
f 372/4/5 366/4/5 365/4/5
f 372/3/5 365/3/5 371/3/5
f 373/3/5 367/3/5 366/3/5
f 373/4/5 366/4/5 372/4/5
f 374/3/5 368/3/5 360/3/5
f 374/9/5 370/9/5 369/9/5
f 374/9/5 369/9/5 368/9/5
f 375/9/5 370/9/5 374/9/5
f 376/9/5 372/9/5 371/9/5
f 376/9/5 373/9/5 372/9/5
f 377/3/5 367/3/5 373/3/5
f 377/9/5 373/9/5 376/9/5
f 378/3/5 375/3/5 374/3/5
f 378/3/5 374/3/5 360/3/5
f 379/3/5 375/3/5 378/3/5
f 380/3/5 377/3/5 376/3/5
f 381/3/5 367/3/5 377/3/5
f 381/3/5 377/3/5 380/3/5
f 386/1/5 383/1/5 382/1/5
f 387/1/5 385/1/5 384/1/5
f 388/1/5 386/1/5 382/1/5
f 389/1/5 386/1/5 388/1/5
f 390/1/5 385/1/5 387/1/5
f 391/1/5 385/1/5 390/1/5
f 394/5/5 393/5/5 392/5/5
f 395/5/5 393/5/5 394/5/5
f 400/5/5 397/5/5 396/5/5
f 401/5/5 397/5/5 400/5/5
f 402/5/5 399/5/5 398/5/5
f 403/5/5 399/5/5 402/5/5
f 408/5/5 405/5/5 404/5/5
f 409/5/5 405/5/5 408/5/5
f 410/5/5 407/5/5 406/5/5
f 411/5/5 407/5/5 410/5/5
f 416/5/5 413/5/5 412/5/5
f 417/5/5 413/5/5 416/5/5
f 418/5/5 415/5/5 414/5/5
f 419/5/5 415/5/5 418/5/5
f 422/5/5 421/5/5 420/5/5
f 423/5/5 421/5/5 422/5/5
f 424/3/6 425/3/6 432/3/6
f 425/4/6 426/4/6 432/4/6
f 426/3/6 427/3/6 433/3/6
f 432/4/6 426/4/6 433/4/6
f 429/4/6 430/4/6 434/4/6
f 428/3/6 429/3/6 434/3/6
f 430/3/6 431/3/6 435/3/6
f 434/4/6 430/4/6 435/4/6
f 424/3/6 432/3/6 436/3/6
f 432/3/6 433/3/6 436/3/6
f 433/3/6 427/3/6 437/3/6
f 436/3/6 433/3/6 437/3/6
f 428/3/6 434/3/6 438/3/6
f 434/3/6 435/3/6 438/3/6
f 435/3/6 431/3/6 439/3/6
f 438/3/6 435/3/6 439/3/6
f 440/5/6 441/5/6 442/5/6
f 442/5/6 441/5/6 443/5/6
f 444/5/6 445/5/6 448/5/6
f 448/5/6 445/5/6 449/5/6
f 446/5/6 447/5/6 450/5/6
f 450/5/6 447/5/6 451/5/6
f 452/5/6 453/5/6 456/5/6
f 456/5/6 453/5/6 457/5/6
f 454/5/6 455/5/6 458/5/6
f 458/5/6 455/5/6 459/5/6
f 460/5/6 461/5/6 464/5/6
f 464/5/6 461/5/6 465/5/6
f 462/5/6 463/5/6 466/5/6
f 466/5/6 463/5/6 467/5/6
f 468/1/6 469/1/6 472/1/6
f 472/1/6 469/1/6 473/1/6
f 470/1/6 471/1/6 474/1/6
f 470/1/6 474/1/6 476/1/6
f 474/1/6 475/1/6 476/1/6
f 476/1/6 475/1/6 477/1/6
f 470/1/6 476/1/6 478/1/6
f 478/1/6 476/1/6 479/1/6
f 480/1/6 481/1/6 483/1/6
f 483/1/6 481/1/6 484/1/6
f 482/5/6 483/5/6 486/5/6
f 484/5/6 485/5/6 486/5/6
f 483/5/6 484/5/6 486/5/6
f 486/5/6 485/5/6 487/5/6
f 486/1/6 487/1/6 488/1/6
f 488/1/6 487/1/6 489/1/6
f 490/1/6 491/1/6 492/1/6
f 492/1/6 491/1/6 493/1/6
