# MagicaVoxel @ Ephtracy

# group
o 

# material
mtllib 56565656.mtl
usemtl palette

# normals
vn -1 0 0
vn 1 0 0
vn 0 0 1
vn 0 0 -1
vn 0 -1 0
vn 0 1 0

# texcoords
vt 0.0214844 0.5
vt 0.904297 0.5
vt 0.962891 0.5
vt 0.978516 0.5
vt 0.986328 0.5

# verts
v -0.4 2.2 0.6
v -0.4 2.2 0.5
v -0.4 2.2 0.2
v -0.4 2.2 0.0999999
v -0.4 2.3 0.6
v -0.4 2.3 0.5
v -0.4 2.3 0.2
v -0.4 2.3 0.0999999
v -0.3 2.2 0.5
v -0.3 2.2 0.2
v -0.3 2.3 0.5
v -0.3 2.3 0.2
v -0.3 2.7 0.5
v -0.3 2.7 0.2
v -0.1 2.2 0.0999999
v -0.1 2.2 -5.96046e-08
v -0.1 2.2 -0.4
v -0.1 2.2 -0.5
v -0.1 2.3 0.0999999
v -0.1 2.3 -5.96046e-08
v -0.1 2.3 -0.4
v -0.1 2.3 -0.5
v 0 2.2 0.6
v 0 2.2 0.5
v 0 2.2 0.2
v 0 2.2 0.0999999
v 0 2.2 -5.96046e-08
v 0 2.2 -0.4
v 0 2.2 -0.5
v 0 2.2 -0.8
v 0 2.3 0.6
v 0 2.3 0.5
v 0 2.3 0.2
v 0 2.3 0.0999999
v 0 2.3 -5.96046e-08
v 0 2.3 -0.4
v 0 2.3 -0.5
v 0 2.3 -0.8
v 0 2.5 -5.96046e-08
v 0 2.5 -0.4
v 0 2.6 -5.96046e-08
v 0 2.6 -0.4
v 0.1 2.2 0.5
v 0.1 2.2 0.2
v 0.1 2.2 -0.4
v 0.1 2.2 -0.5
v 0.1 2.2 -0.8
v 0.1 2.2 -0.9
v 0.1 2.3 0.5
v 0.1 2.3 0.2
v 0.1 2.3 -0.4
v 0.1 2.3 -0.5
v 0.1 2.3 -0.8
v 0.1 2.3 -0.9
v 0.1 2.4 -0.5
v 0.1 2.4 -0.8
v 0.1 2.7 0.5
v 0.1 2.7 0.2
v 0.3 2.2 -0.4
v 0.3 2.2 -0.5
v 0.3 2.2 -0.8
v 0.3 2.2 -0.9
v 0.3 2.3 -0.4
v 0.3 2.3 -0.5
v 0.3 2.3 -0.8
v 0.3 2.3 -0.9
v 0.3 2.4 -0.5
v 0.3 2.4 -0.8
v 0.4 2.2 0.6
v 0.4 2.2 0.5
v 0.4 2.2 0.2
v 0.4 2.2 0.0999999
v 0.4 2.3 0.6
v 0.4 2.3 0.5
v 0.4 2.3 0.2
v 0.4 2.3 0.0999999
v 0.5 2.2 0.5
v 0.5 2.2 0.2
v 0.5 2.2 -0.4
v 0.5 2.2 -0.5
v 0.5 2.2 -0.8
v 0.5 2.2 -0.9
v 0.5 2.3 0.5
v 0.5 2.3 0.2
v 0.5 2.3 -0.4
v 0.5 2.3 -0.5
v 0.5 2.3 -0.8
v 0.5 2.3 -0.9
v 0.5 2.4 -0.5
v 0.5 2.4 -0.8
v 0.5 2.7 0.5
v 0.5 2.7 0.2
v 0.7 2.2 -0.4
v 0.7 2.2 -0.5
v 0.7 2.2 -0.8
v 0.7 2.2 -0.9
v 0.7 2.3 -0.4
v 0.7 2.3 -0.5
v 0.7 2.3 -0.8
v 0.7 2.3 -0.9
v 0.7 2.4 -0.5
v 0.7 2.4 -0.8
v 0.8 2.2 0.6
v 0.8 2.2 0.5
v 0.8 2.2 0.2
v 0.8 2.2 0.0999999
v 0.8 2.3 0.6
v 0.8 2.3 0.5
v 0.8 2.3 0.2
v 0.8 2.3 0.0999999
v 0.9 2.2 0.5
v 0.9 2.2 0.2
v 0.9 2.2 0.0999999
v 0.9 2.2 -5.96046e-08
v 0.9 2.2 -0.4
v 0.9 2.2 -0.5
v 0.9 2.3 0.5
v 0.9 2.3 0.2
v 0.9 2.3 0.0999999
v 0.9 2.3 -5.96046e-08
v 0.9 2.3 -0.4
v 0.9 2.3 -0.5
v 0.9 2.7 0.5
v 0.9 2.7 0.2
v 1.2 2.2 0.6
v 1.2 2.2 0.5
v 1.2 2.2 0.2
v 1.2 2.2 0.0999999
v 1.2 2.3 0.6
v 1.2 2.3 0.5
v 1.2 2.3 0.2
v 1.2 2.3 0.0999999
v -0.3 2.2 0.6
v -0.3 2.2 0.5
v -0.3 2.2 0.2
v -0.3 2.2 0.0999999
v -0.3 2.3 0.6
v -0.3 2.3 0.5
v -0.3 2.3 0.2
v -0.3 2.3 0.0999999
v 0 2.2 0.5
v 0 2.2 0.2
v 0 2.2 0.0999999
v 0 2.2 -5.96046e-08
v 0 2.2 -0.4
v 0 2.2 -0.5
v 0 2.3 0.5
v 0 2.3 0.2
v 0 2.3 0.0999999
v 0 2.3 -5.96046e-08
v 0 2.3 -0.4
v 0 2.3 -0.5
v 0 2.7 0.5
v 0 2.7 0.2
v 0.1 2.2 0.6
v 0.1 2.2 0.5
v 0.1 2.2 0.2
v 0.1 2.2 0.0999999
v 0.1 2.3 0.6
v 0.1 2.3 0.5
v 0.1 2.3 0.2
v 0.1 2.3 0.0999999
v 0.2 2.2 -0.4
v 0.2 2.2 -0.5
v 0.2 2.2 -0.8
v 0.2 2.2 -0.9
v 0.2 2.3 -0.4
v 0.2 2.3 -0.5
v 0.2 2.3 -0.8
v 0.2 2.3 -0.9
v 0.2 2.4 -0.5
v 0.2 2.4 -0.8
v 0.4 2.2 0.5
v 0.4 2.2 0.2
v 0.4 2.2 -0.4
v 0.4 2.2 -0.5
v 0.4 2.2 -0.8
v 0.4 2.2 -0.9
v 0.4 2.3 0.5
v 0.4 2.3 0.2
v 0.4 2.3 -0.4
v 0.4 2.3 -0.5
v 0.4 2.3 -0.8
v 0.4 2.3 -0.9
v 0.4 2.4 -0.5
v 0.4 2.4 -0.8
v 0.4 2.7 0.5
v 0.4 2.7 0.2
v 0.5 2.2 0.6
v 0.5 2.2 0.5
v 0.5 2.2 0.2
v 0.5 2.2 0.0999999
v 0.5 2.3 0.6
v 0.5 2.3 0.5
v 0.5 2.3 0.2
v 0.5 2.3 0.0999999
v 0.6 2.2 -0.4
v 0.6 2.2 -0.5
v 0.6 2.2 -0.8
v 0.6 2.2 -0.9
v 0.6 2.3 -0.4
v 0.6 2.3 -0.5
v 0.6 2.3 -0.8
v 0.6 2.3 -0.9
v 0.6 2.4 -0.5
v 0.6 2.4 -0.8
v 0.8 2.2 0.5
v 0.8 2.2 0.2
v 0.8 2.2 -0.4
v 0.8 2.2 -0.5
v 0.8 2.2 -0.8
v 0.8 2.2 -0.9
v 0.8 2.3 0.5
v 0.8 2.3 0.2
v 0.8 2.3 -0.4
v 0.8 2.3 -0.5
v 0.8 2.3 -0.8
v 0.8 2.3 -0.9
v 0.8 2.4 -0.5
v 0.8 2.4 -0.8
v 0.8 2.7 0.5
v 0.8 2.7 0.2
v 0.9 2.2 0.6
v 0.9 2.2 0.5
v 0.9 2.2 0.2
v 0.9 2.2 0.0999999
v 0.9 2.2 -5.96046e-08
v 0.9 2.2 -0.4
v 0.9 2.2 -0.5
v 0.9 2.2 -0.8
v 0.9 2.3 0.6
v 0.9 2.3 0.5
v 0.9 2.3 0.2
v 0.9 2.3 0.0999999
v 0.9 2.3 -5.96046e-08
v 0.9 2.3 -0.4
v 0.9 2.3 -0.5
v 0.9 2.3 -0.8
v 0.9 2.5 -5.96046e-08
v 0.9 2.5 -0.4
v 0.9 2.6 -5.96046e-08
v 0.9 2.6 -0.4
v 1 2.2 0.0999999
v 1 2.2 -5.96046e-08
v 1 2.2 -0.4
v 1 2.2 -0.5
v 1 2.3 0.0999999
v 1 2.3 -5.96046e-08
v 1 2.3 -0.4
v 1 2.3 -0.5
v 1.2 2.2 0.5
v 1.2 2.2 0.2
v 1.2 2.3 0.5
v 1.2 2.3 0.2
v 1.2 2.7 0.5
v 1.2 2.7 0.2
v 1.3 2.2 0.6
v 1.3 2.2 0.5
v 1.3 2.2 0.2
v 1.3 2.2 0.0999999
v 1.3 2.3 0.6
v 1.3 2.3 0.5
v 1.3 2.3 0.2
v 1.3 2.3 0.0999999
v -0.4 2.2 0.6
v -0.4 2.3 0.6
v -0.3 2.2 0.6
v -0.3 2.3 0.6
v 0 2.2 0.6
v 0 2.3 0.6
v 0.1 2.2 0.6
v 0.1 2.3 0.6
v 0.4 2.2 0.6
v 0.4 2.3 0.6
v 0.5 2.2 0.6
v 0.5 2.3 0.6
v 0.8 2.2 0.6
v 0.8 2.3 0.6
v 0.9 2.2 0.6
v 0.9 2.3 0.6
v 1.2 2.2 0.6
v 1.2 2.3 0.6
v 1.3 2.2 0.6
v 1.3 2.3 0.6
v -0.3 2.2 0.5
v -0.3 2.3 0.5
v -0.3 2.7 0.5
v 0 2.2 0.5
v 0 2.3 0.5
v 0 2.7 0.5
v 0.1 2.2 0.5
v 0.1 2.3 0.5
v 0.1 2.7 0.5
v 0.4 2.2 0.5
v 0.4 2.3 0.5
v 0.4 2.7 0.5
v 0.5 2.2 0.5
v 0.5 2.3 0.5
v 0.5 2.7 0.5
v 0.8 2.2 0.5
v 0.8 2.3 0.5
v 0.8 2.7 0.5
v 0.9 2.2 0.5
v 0.9 2.3 0.5
v 0.9 2.7 0.5
v 1.2 2.2 0.5
v 1.2 2.3 0.5
v 1.2 2.7 0.5
v -0.4 2.2 0.2
v -0.4 2.3 0.2
v -0.3 2.2 0.2
v -0.3 2.3 0.2
v 0 2.2 0.2
v 0 2.3 0.2
v 0.1 2.2 0.2
v 0.1 2.3 0.2
v 0.4 2.2 0.2
v 0.4 2.3 0.2
v 0.5 2.2 0.2
v 0.5 2.3 0.2
v 0.8 2.2 0.2
v 0.8 2.3 0.2
v 0.9 2.2 0.2
v 0.9 2.3 0.2
v 1.2 2.2 0.2
v 1.2 2.3 0.2
v 1.3 2.2 0.2
v 1.3 2.3 0.2
v -0.1 2.2 0.0999999
v -0.1 2.3 0.0999999
v 0 2.2 0.0999999
v 0 2.3 0.0999999
v 0.9 2.2 0.0999999
v 0.9 2.3 0.0999999
v 1 2.2 0.0999999
v 1 2.3 0.0999999
v 0 2.2 -5.96046e-08
v 0 2.3 -5.96046e-08
v 0 2.5 -5.96046e-08
v 0 2.6 -5.96046e-08
v 0.9 2.2 -5.96046e-08
v 0.9 2.3 -5.96046e-08
v 0.9 2.5 -5.96046e-08
v 0.9 2.6 -5.96046e-08
v -0.1 2.2 -0.4
v -0.1 2.3 -0.4
v 0 2.2 -0.4
v 0 2.3 -0.4
v 0.9 2.2 -0.4
v 0.9 2.3 -0.4
v 1 2.2 -0.4
v 1 2.3 -0.4
v 0 2.2 -0.5
v 0 2.3 -0.5
v 0.1 2.2 -0.5
v 0.1 2.3 -0.5
v 0.1 2.4 -0.5
v 0.2 2.2 -0.5
v 0.2 2.3 -0.5
v 0.2 2.4 -0.5
v 0.3 2.2 -0.5
v 0.3 2.3 -0.5
v 0.3 2.4 -0.5
v 0.4 2.2 -0.5
v 0.4 2.3 -0.5
v 0.4 2.4 -0.5
v 0.5 2.2 -0.5
v 0.5 2.3 -0.5
v 0.5 2.4 -0.5
v 0.6 2.2 -0.5
v 0.6 2.3 -0.5
v 0.6 2.4 -0.5
v 0.7 2.2 -0.5
v 0.7 2.3 -0.5
v 0.7 2.4 -0.5
v 0.8 2.2 -0.5
v 0.8 2.3 -0.5
v 0.8 2.4 -0.5
v 0.9 2.2 -0.5
v 0.9 2.3 -0.5
v -0.4 2.2 0.5
v -0.4 2.3 0.5
v -0.3 2.2 0.5
v -0.3 2.3 0.5
v 0 2.2 0.5
v 0 2.3 0.5
v 0.1 2.2 0.5
v 0.1 2.3 0.5
v 0.4 2.2 0.5
v 0.4 2.3 0.5
v 0.5 2.2 0.5
v 0.5 2.3 0.5
v 0.8 2.2 0.5
v 0.8 2.3 0.5
v 0.9 2.2 0.5
v 0.9 2.3 0.5
v 1.2 2.2 0.5
v 1.2 2.3 0.5
v 1.3 2.2 0.5
v 1.3 2.3 0.5
v -0.3 2.2 0.2
v -0.3 2.3 0.2
v -0.3 2.7 0.2
v 0 2.2 0.2
v 0 2.3 0.2
v 0 2.7 0.2
v 0.1 2.2 0.2
v 0.1 2.3 0.2
v 0.1 2.7 0.2
v 0.4 2.2 0.2
v 0.4 2.3 0.2
v 0.4 2.7 0.2
v 0.5 2.2 0.2
v 0.5 2.3 0.2
v 0.5 2.7 0.2
v 0.8 2.2 0.2
v 0.8 2.3 0.2
v 0.8 2.7 0.2
v 0.9 2.2 0.2
v 0.9 2.3 0.2
v 0.9 2.7 0.2
v 1.2 2.2 0.2
v 1.2 2.3 0.2
v 1.2 2.7 0.2
v -0.4 2.2 0.0999999
v -0.4 2.3 0.0999999
v -0.3 2.2 0.0999999
v -0.3 2.3 0.0999999
v 0 2.2 0.0999999
v 0 2.3 0.0999999
v 0.1 2.2 0.0999999
v 0.1 2.3 0.0999999
v 0.4 2.2 0.0999999
v 0.4 2.3 0.0999999
v 0.5 2.2 0.0999999
v 0.5 2.3 0.0999999
v 0.8 2.2 0.0999999
v 0.8 2.3 0.0999999
v 0.9 2.2 0.0999999
v 0.9 2.3 0.0999999
v 1.2 2.2 0.0999999
v 1.2 2.3 0.0999999
v 1.3 2.2 0.0999999
v 1.3 2.3 0.0999999
v -0.1 2.2 -5.96046e-08
v -0.1 2.3 -5.96046e-08
v 0 2.2 -5.96046e-08
v 0 2.3 -5.96046e-08
v 0.9 2.2 -5.96046e-08
v 0.9 2.3 -5.96046e-08
v 1 2.2 -5.96046e-08
v 1 2.3 -5.96046e-08
v 0 2.2 -0.4
v 0 2.3 -0.4
v 0 2.5 -0.4
v 0 2.6 -0.4
v 0.1 2.2 -0.4
v 0.1 2.3 -0.4
v 0.2 2.2 -0.4
v 0.2 2.3 -0.4
v 0.3 2.2 -0.4
v 0.3 2.3 -0.4
v 0.4 2.2 -0.4
v 0.4 2.3 -0.4
v 0.5 2.2 -0.4
v 0.5 2.3 -0.4
v 0.6 2.2 -0.4
v 0.6 2.3 -0.4
v 0.7 2.2 -0.4
v 0.7 2.3 -0.4
v 0.8 2.2 -0.4
v 0.8 2.3 -0.4
v 0.9 2.2 -0.4
v 0.9 2.3 -0.4
v 0.9 2.5 -0.4
v 0.9 2.6 -0.4
v -0.1 2.2 -0.5
v -0.1 2.3 -0.5
v 0 2.2 -0.5
v 0 2.3 -0.5
v 0.9 2.2 -0.5
v 0.9 2.3 -0.5
v 1 2.2 -0.5
v 1 2.3 -0.5
v 0 2.2 -0.8
v 0 2.3 -0.8
v 0.1 2.2 -0.8
v 0.1 2.3 -0.8
v 0.1 2.4 -0.8
v 0.2 2.2 -0.8
v 0.2 2.3 -0.8
v 0.2 2.4 -0.8
v 0.3 2.2 -0.8
v 0.3 2.3 -0.8
v 0.3 2.4 -0.8
v 0.4 2.2 -0.8
v 0.4 2.3 -0.8
v 0.4 2.4 -0.8
v 0.5 2.2 -0.8
v 0.5 2.3 -0.8
v 0.5 2.4 -0.8
v 0.6 2.2 -0.8
v 0.6 2.3 -0.8
v 0.6 2.4 -0.8
v 0.7 2.2 -0.8
v 0.7 2.3 -0.8
v 0.7 2.4 -0.8
v 0.8 2.2 -0.8
v 0.8 2.3 -0.8
v 0.8 2.4 -0.8
v 0.9 2.2 -0.8
v 0.9 2.3 -0.8
v 0.1 2.2 -0.9
v 0.1 2.3 -0.9
v 0.2 2.2 -0.9
v 0.2 2.3 -0.9
v 0.3 2.2 -0.9
v 0.3 2.3 -0.9
v 0.4 2.2 -0.9
v 0.4 2.3 -0.9
v 0.5 2.2 -0.9
v 0.5 2.3 -0.9
v 0.6 2.2 -0.9
v 0.6 2.3 -0.9
v 0.7 2.2 -0.9
v 0.7 2.3 -0.9
v 0.8 2.2 -0.9
v 0.8 2.3 -0.9
v -0.4 2.2 0.6
v -0.3 2.2 0.6
v 0 2.2 0.6
v 0.1 2.2 0.6
v 0.4 2.2 0.6
v 0.5 2.2 0.6
v 0.8 2.2 0.6
v 0.9 2.2 0.6
v 1.2 2.2 0.6
v 1.3 2.2 0.6
v -0.4 2.2 0.5
v -0.3 2.2 0.5
v 0 2.2 0.5
v 0.1 2.2 0.5
v 0.4 2.2 0.5
v 0.5 2.2 0.5
v 0.8 2.2 0.5
v 0.9 2.2 0.5
v 1.2 2.2 0.5
v 1.3 2.2 0.5
v -0.4 2.2 0.2
v -0.3 2.2 0.2
v 0 2.2 0.2
v 0.1 2.2 0.2
v 0.4 2.2 0.2
v 0.5 2.2 0.2
v 0.8 2.2 0.2
v 0.9 2.2 0.2
v 1.2 2.2 0.2
v 1.3 2.2 0.2
v -0.4 2.2 0.0999999
v -0.3 2.2 0.0999999
v -0.1 2.2 0.0999999
v 0 2.2 0.0999999
v 0.1 2.2 0.0999999
v 0.4 2.2 0.0999999
v 0.5 2.2 0.0999999
v 0.8 2.2 0.0999999
v 0.9 2.2 0.0999999
v 1 2.2 0.0999999
v 1.2 2.2 0.0999999
v 1.3 2.2 0.0999999
v -0.1 2.2 -5.96046e-08
v 0 2.2 -5.96046e-08
v 0.9 2.2 -5.96046e-08
v 1 2.2 -5.96046e-08
v -0.1 2.2 -0.4
v 0 2.2 -0.4
v 0.1 2.2 -0.4
v 0.2 2.2 -0.4
v 0.3 2.2 -0.4
v 0.4 2.2 -0.4
v 0.5 2.2 -0.4
v 0.6 2.2 -0.4
v 0.7 2.2 -0.4
v 0.8 2.2 -0.4
v 0.9 2.2 -0.4
v 1 2.2 -0.4
v -0.1 2.2 -0.5
v 0 2.2 -0.5
v 0.1 2.2 -0.5
v 0.2 2.2 -0.5
v 0.3 2.2 -0.5
v 0.4 2.2 -0.5
v 0.5 2.2 -0.5
v 0.6 2.2 -0.5
v 0.7 2.2 -0.5
v 0.8 2.2 -0.5
v 0.9 2.2 -0.5
v 1 2.2 -0.5
v 0 2.2 -0.8
v 0.1 2.2 -0.8
v 0.2 2.2 -0.8
v 0.3 2.2 -0.8
v 0.4 2.2 -0.8
v 0.5 2.2 -0.8
v 0.6 2.2 -0.8
v 0.7 2.2 -0.8
v 0.8 2.2 -0.8
v 0.9 2.2 -0.8
v 0.1 2.2 -0.9
v 0.2 2.2 -0.9
v 0.3 2.2 -0.9
v 0.4 2.2 -0.9
v 0.5 2.2 -0.9
v 0.6 2.2 -0.9
v 0.7 2.2 -0.9
v 0.8 2.2 -0.9
v -0.4 2.3 0.6
v -0.3 2.3 0.6
v 0 2.3 0.6
v 0.1 2.3 0.6
v 0.4 2.3 0.6
v 0.5 2.3 0.6
v 0.8 2.3 0.6
v 0.9 2.3 0.6
v 1.2 2.3 0.6
v 1.3 2.3 0.6
v -0.4 2.3 0.5
v -0.3 2.3 0.5
v 0 2.3 0.5
v 0.1 2.3 0.5
v 0.4 2.3 0.5
v 0.5 2.3 0.5
v 0.8 2.3 0.5
v 0.9 2.3 0.5
v 1.2 2.3 0.5
v 1.3 2.3 0.5
v -0.4 2.3 0.2
v -0.3 2.3 0.2
v 0 2.3 0.2
v 0.1 2.3 0.2
v 0.4 2.3 0.2
v 0.5 2.3 0.2
v 0.8 2.3 0.2
v 0.9 2.3 0.2
v 1.2 2.3 0.2
v 1.3 2.3 0.2
v -0.4 2.3 0.0999999
v -0.3 2.3 0.0999999
v -0.1 2.3 0.0999999
v 0 2.3 0.0999999
v 0.1 2.3 0.0999999
v 0.4 2.3 0.0999999
v 0.5 2.3 0.0999999
v 0.8 2.3 0.0999999
v 0.9 2.3 0.0999999
v 1 2.3 0.0999999
v 1.2 2.3 0.0999999
v 1.3 2.3 0.0999999
v -0.1 2.3 -5.96046e-08
v 0 2.3 -5.96046e-08
v 0.9 2.3 -5.96046e-08
v 1 2.3 -5.96046e-08
v -0.1 2.3 -0.4
v 0 2.3 -0.4
v 0.1 2.3 -0.4
v 0.2 2.3 -0.4
v 0.3 2.3 -0.4
v 0.4 2.3 -0.4
v 0.5 2.3 -0.4
v 0.6 2.3 -0.4
v 0.7 2.3 -0.4
v 0.8 2.3 -0.4
v 0.9 2.3 -0.4
v 1 2.3 -0.4
v -0.1 2.3 -0.5
v 0 2.3 -0.5
v 0.1 2.3 -0.5
v 0.2 2.3 -0.5
v 0.3 2.3 -0.5
v 0.4 2.3 -0.5
v 0.5 2.3 -0.5
v 0.6 2.3 -0.5
v 0.7 2.3 -0.5
v 0.8 2.3 -0.5
v 0.9 2.3 -0.5
v 1 2.3 -0.5
v 0 2.3 -0.8
v 0.1 2.3 -0.8
v 0.2 2.3 -0.8
v 0.3 2.3 -0.8
v 0.4 2.3 -0.8
v 0.5 2.3 -0.8
v 0.6 2.3 -0.8
v 0.7 2.3 -0.8
v 0.8 2.3 -0.8
v 0.9 2.3 -0.8
v 0.1 2.3 -0.9
v 0.2 2.3 -0.9
v 0.3 2.3 -0.9
v 0.4 2.3 -0.9
v 0.5 2.3 -0.9
v 0.6 2.3 -0.9
v 0.7 2.3 -0.9
v 0.8 2.3 -0.9
v 0.1 2.4 -0.5
v 0.2 2.4 -0.5
v 0.3 2.4 -0.5
v 0.4 2.4 -0.5
v 0.5 2.4 -0.5
v 0.6 2.4 -0.5
v 0.7 2.4 -0.5
v 0.8 2.4 -0.5
v 0.1 2.4 -0.8
v 0.2 2.4 -0.8
v 0.3 2.4 -0.8
v 0.4 2.4 -0.8
v 0.5 2.4 -0.8
v 0.6 2.4 -0.8
v 0.7 2.4 -0.8
v 0.8 2.4 -0.8
v 0 2.6 -5.96046e-08
v 0.9 2.6 -5.96046e-08
v 0 2.6 -0.4
v 0.9 2.6 -0.4
v -0.3 2.7 0.5
v 0 2.7 0.5
v 0.1 2.7 0.5
v 0.4 2.7 0.5
v 0.5 2.7 0.5
v 0.8 2.7 0.5
v 0.9 2.7 0.5
v 1.2 2.7 0.5
v -0.3 2.7 0.2
v 0 2.7 0.2
v 0.1 2.7 0.2
v 0.4 2.7 0.2
v 0.5 2.7 0.2
v 0.8 2.7 0.2
v 0.9 2.7 0.2
v 1.2 2.7 0.2

# faces
f 5/3/1 2/3/1 1/3/1
f 6/3/1 2/3/1 5/3/1
f 7/3/1 4/3/1 3/3/1
f 8/3/1 4/3/1 7/3/1
f 11/3/1 10/3/1 9/3/1
f 12/3/1 10/3/1 11/3/1
f 13/3/1 12/3/1 11/3/1
f 14/3/1 12/3/1 13/3/1
f 19/4/1 16/4/1 15/4/1
f 20/4/1 16/4/1 19/4/1
f 21/4/1 18/4/1 17/4/1
f 22/4/1 18/4/1 21/4/1
f 31/3/1 24/3/1 23/3/1
f 32/3/1 24/3/1 31/3/1
f 33/3/1 26/3/1 25/3/1
f 34/3/1 26/3/1 33/3/1
f 35/5/1 28/5/1 27/5/1
f 36/5/1 28/5/1 35/5/1
f 37/2/1 30/2/1 29/2/1
f 38/2/1 30/2/1 37/2/1
f 39/5/1 36/5/1 35/5/1
f 40/5/1 36/5/1 39/5/1
f 41/4/1 40/4/1 39/4/1
f 42/4/1 40/4/1 41/4/1
f 49/3/1 44/3/1 43/3/1
f 50/3/1 44/3/1 49/3/1
f 51/1/1 46/1/1 45/1/1
f 52/1/1 46/1/1 51/1/1
f 53/1/1 48/1/1 47/1/1
f 54/1/1 48/1/1 53/1/1
f 55/1/1 53/1/1 52/1/1
f 56/1/1 53/1/1 55/1/1
f 57/3/1 50/3/1 49/3/1
f 58/3/1 50/3/1 57/3/1
f 63/1/1 60/1/1 59/1/1
f 64/1/1 60/1/1 63/1/1
f 65/1/1 62/1/1 61/1/1
f 66/1/1 62/1/1 65/1/1
f 67/1/1 65/1/1 64/1/1
f 68/1/1 65/1/1 67/1/1
f 73/3/1 70/3/1 69/3/1
f 74/3/1 70/3/1 73/3/1
f 75/3/1 72/3/1 71/3/1
f 76/3/1 72/3/1 75/3/1
f 83/3/1 78/3/1 77/3/1
f 84/3/1 78/3/1 83/3/1
f 85/1/1 80/1/1 79/1/1
f 86/1/1 80/1/1 85/1/1
f 87/1/1 82/1/1 81/1/1
f 88/1/1 82/1/1 87/1/1
f 89/1/1 87/1/1 86/1/1
f 90/1/1 87/1/1 89/1/1
f 91/3/1 84/3/1 83/3/1
f 92/3/1 84/3/1 91/3/1
f 97/1/1 94/1/1 93/1/1
f 98/1/1 94/1/1 97/1/1
f 99/1/1 96/1/1 95/1/1
f 100/1/1 96/1/1 99/1/1
f 101/1/1 99/1/1 98/1/1
f 102/1/1 99/1/1 101/1/1
f 107/3/1 104/3/1 103/3/1
f 108/3/1 104/3/1 107/3/1
f 109/3/1 106/3/1 105/3/1
f 110/3/1 106/3/1 109/3/1
f 117/3/1 112/3/1 111/3/1
f 118/3/1 112/3/1 117/3/1
f 119/4/1 114/4/1 113/4/1
f 120/4/1 114/4/1 119/4/1
f 121/4/1 116/4/1 115/4/1
f 122/4/1 116/4/1 121/4/1
f 123/3/1 118/3/1 117/3/1
f 124/3/1 118/3/1 123/3/1
f 129/3/1 126/3/1 125/3/1
f 130/3/1 126/3/1 129/3/1
f 131/3/1 128/3/1 127/3/1
f 132/3/1 128/3/1 131/3/1
f 133/3/2 134/3/2 137/3/2
f 137/3/2 134/3/2 138/3/2
f 135/3/2 136/3/2 139/3/2
f 139/3/2 136/3/2 140/3/2
f 141/3/2 142/3/2 147/3/2
f 147/3/2 142/3/2 148/3/2
f 143/4/2 144/4/2 149/4/2
f 149/4/2 144/4/2 150/4/2
f 145/4/2 146/4/2 151/4/2
f 151/4/2 146/4/2 152/4/2
f 147/3/2 148/3/2 153/3/2
f 153/3/2 148/3/2 154/3/2
f 155/3/2 156/3/2 159/3/2
f 159/3/2 156/3/2 160/3/2
f 157/3/2 158/3/2 161/3/2
f 161/3/2 158/3/2 162/3/2
f 163/1/2 164/1/2 167/1/2
f 167/1/2 164/1/2 168/1/2
f 165/1/2 166/1/2 169/1/2
f 169/1/2 166/1/2 170/1/2
f 168/1/2 169/1/2 171/1/2
f 171/1/2 169/1/2 172/1/2
f 173/3/2 174/3/2 179/3/2
f 179/3/2 174/3/2 180/3/2
f 175/1/2 176/1/2 181/1/2
f 181/1/2 176/1/2 182/1/2
f 177/1/2 178/1/2 183/1/2
f 183/1/2 178/1/2 184/1/2
f 182/1/2 183/1/2 185/1/2
f 185/1/2 183/1/2 186/1/2
f 179/3/2 180/3/2 187/3/2
f 187/3/2 180/3/2 188/3/2
f 189/3/2 190/3/2 193/3/2
f 193/3/2 190/3/2 194/3/2
f 191/3/2 192/3/2 195/3/2
f 195/3/2 192/3/2 196/3/2
f 197/1/2 198/1/2 201/1/2
f 201/1/2 198/1/2 202/1/2
f 199/1/2 200/1/2 203/1/2
f 203/1/2 200/1/2 204/1/2
f 202/1/2 203/1/2 205/1/2
f 205/1/2 203/1/2 206/1/2
f 207/3/2 208/3/2 213/3/2
f 213/3/2 208/3/2 214/3/2
f 209/1/2 210/1/2 215/1/2
f 215/1/2 210/1/2 216/1/2
f 211/1/2 212/1/2 217/1/2
f 217/1/2 212/1/2 218/1/2
f 216/1/2 217/1/2 219/1/2
f 219/1/2 217/1/2 220/1/2
f 213/3/2 214/3/2 221/3/2
f 221/3/2 214/3/2 222/3/2
f 223/3/2 224/3/2 231/3/2
f 231/3/2 224/3/2 232/3/2
f 225/3/2 226/3/2 233/3/2
f 233/3/2 226/3/2 234/3/2
f 227/5/2 228/5/2 235/5/2
f 235/5/2 228/5/2 236/5/2
f 229/2/2 230/2/2 237/2/2
f 237/2/2 230/2/2 238/2/2
f 235/5/2 236/5/2 239/5/2
f 239/5/2 236/5/2 240/5/2
f 239/4/2 240/4/2 241/4/2
f 241/4/2 240/4/2 242/4/2
f 243/4/2 244/4/2 247/4/2
f 247/4/2 244/4/2 248/4/2
f 245/4/2 246/4/2 249/4/2
f 249/4/2 246/4/2 250/4/2
f 251/3/2 252/3/2 253/3/2
f 253/3/2 252/3/2 254/3/2
f 253/3/2 254/3/2 255/3/2
f 255/3/2 254/3/2 256/3/2
f 257/3/2 258/3/2 261/3/2
f 261/3/2 258/3/2 262/3/2
f 259/3/2 260/3/2 263/3/2
f 263/3/2 260/3/2 264/3/2
f 267/3/3 266/3/3 265/3/3
f 268/3/3 266/3/3 267/3/3
f 271/3/3 270/3/3 269/3/3
f 272/3/3 270/3/3 271/3/3
f 275/3/3 274/3/3 273/3/3
f 276/3/3 274/3/3 275/3/3
f 279/3/3 278/3/3 277/3/3
f 280/3/3 278/3/3 279/3/3
f 283/3/3 282/3/3 281/3/3
f 284/3/3 282/3/3 283/3/3
f 288/3/3 286/3/3 285/3/3
f 288/3/3 287/3/3 286/3/3
f 289/3/3 287/3/3 288/3/3
f 290/3/3 287/3/3 289/3/3
f 294/3/3 292/3/3 291/3/3
f 294/3/3 293/3/3 292/3/3
f 295/3/3 293/3/3 294/3/3
f 296/3/3 293/3/3 295/3/3
f 300/3/3 298/3/3 297/3/3
f 300/3/3 299/3/3 298/3/3
f 301/3/3 299/3/3 300/3/3
f 302/3/3 299/3/3 301/3/3
f 306/3/3 304/3/3 303/3/3
f 306/3/3 305/3/3 304/3/3
f 307/3/3 305/3/3 306/3/3
f 308/3/3 305/3/3 307/3/3
f 311/3/3 310/3/3 309/3/3
f 312/3/3 310/3/3 311/3/3
f 315/3/3 314/3/3 313/3/3
f 316/3/3 314/3/3 315/3/3
f 319/3/3 318/3/3 317/3/3
f 320/3/3 318/3/3 319/3/3
f 323/3/3 322/3/3 321/3/3
f 324/3/3 322/3/3 323/3/3
f 327/3/3 326/3/3 325/3/3
f 328/3/3 326/3/3 327/3/3
f 331/4/3 330/4/3 329/4/3
f 332/4/3 330/4/3 331/4/3
f 335/4/3 334/4/3 333/4/3
f 336/4/3 334/4/3 335/4/3
f 341/5/3 338/5/3 337/5/3
f 341/5/3 339/5/3 338/5/3
f 342/5/3 339/5/3 341/5/3
f 343/4/3 340/4/3 339/4/3
f 343/5/3 339/5/3 342/5/3
f 344/4/3 340/4/3 343/4/3
f 347/4/3 346/4/3 345/4/3
f 348/4/3 346/4/3 347/4/3
f 351/4/3 350/4/3 349/4/3
f 352/4/3 350/4/3 351/4/3
f 355/2/3 354/2/3 353/2/3
f 356/2/3 354/2/3 355/2/3
f 359/1/3 357/1/3 356/1/3
f 360/1/3 357/1/3 359/1/3
f 361/2/3 359/2/3 358/2/3
f 362/2/3 359/2/3 361/2/3
f 365/1/3 363/1/3 362/1/3
f 366/1/3 363/1/3 365/1/3
f 367/2/3 365/2/3 364/2/3
f 368/2/3 365/2/3 367/2/3
f 371/1/3 369/1/3 368/1/3
f 372/1/3 369/1/3 371/1/3
f 373/2/3 371/2/3 370/2/3
f 374/2/3 371/2/3 373/2/3
f 377/1/3 375/1/3 374/1/3
f 378/1/3 375/1/3 377/1/3
f 379/2/3 377/2/3 376/2/3
f 380/2/3 377/2/3 379/2/3
f 381/3/4 382/3/4 383/3/4
f 383/3/4 382/3/4 384/3/4
f 385/3/4 386/3/4 387/3/4
f 387/3/4 386/3/4 388/3/4
f 389/3/4 390/3/4 391/3/4
f 391/3/4 390/3/4 392/3/4
f 393/3/4 394/3/4 395/3/4
f 395/3/4 394/3/4 396/3/4
f 397/3/4 398/3/4 399/3/4
f 399/3/4 398/3/4 400/3/4
f 401/3/4 402/3/4 404/3/4
f 402/3/4 403/3/4 404/3/4
f 404/3/4 403/3/4 405/3/4
f 405/3/4 403/3/4 406/3/4
f 407/3/4 408/3/4 410/3/4
f 408/3/4 409/3/4 410/3/4
f 410/3/4 409/3/4 411/3/4
f 411/3/4 409/3/4 412/3/4
f 413/3/4 414/3/4 416/3/4
f 414/3/4 415/3/4 416/3/4
f 416/3/4 415/3/4 417/3/4
f 417/3/4 415/3/4 418/3/4
f 419/3/4 420/3/4 422/3/4
f 420/3/4 421/3/4 422/3/4
f 422/3/4 421/3/4 423/3/4
f 423/3/4 421/3/4 424/3/4
f 425/3/4 426/3/4 427/3/4
f 427/3/4 426/3/4 428/3/4
f 429/3/4 430/3/4 431/3/4
f 431/3/4 430/3/4 432/3/4
f 433/3/4 434/3/4 435/3/4
f 435/3/4 434/3/4 436/3/4
f 437/3/4 438/3/4 439/3/4
f 439/3/4 438/3/4 440/3/4
f 441/3/4 442/3/4 443/3/4
f 443/3/4 442/3/4 444/3/4
f 445/4/4 446/4/4 447/4/4
f 447/4/4 446/4/4 448/4/4
f 449/4/4 450/4/4 451/4/4
f 451/4/4 450/4/4 452/4/4
f 453/5/4 454/5/4 457/5/4
f 454/5/4 455/5/4 457/5/4
f 457/5/4 455/5/4 458/5/4
f 458/5/4 455/5/4 460/5/4
f 459/5/4 460/5/4 461/5/4
f 460/5/4 455/5/4 462/5/4
f 461/5/4 460/5/4 462/5/4
f 462/5/4 455/5/4 464/5/4
f 463/5/4 464/5/4 465/5/4
f 464/5/4 455/5/4 466/5/4
f 465/5/4 464/5/4 466/5/4
f 466/5/4 455/5/4 468/5/4
f 467/5/4 468/5/4 469/5/4
f 468/5/4 455/5/4 470/5/4
f 469/5/4 468/5/4 470/5/4
f 470/5/4 455/5/4 472/5/4
f 471/5/4 472/5/4 473/5/4
f 472/5/4 455/5/4 474/5/4
f 473/5/4 472/5/4 474/5/4
f 455/4/4 456/4/4 475/4/4
f 474/5/4 455/5/4 475/5/4
f 475/4/4 456/4/4 476/4/4
f 477/4/4 478/4/4 479/4/4
f 479/4/4 478/4/4 480/4/4
f 481/4/4 482/4/4 483/4/4
f 483/4/4 482/4/4 484/4/4
f 485/2/4 486/2/4 487/2/4
f 487/2/4 486/2/4 488/2/4
f 488/1/4 489/1/4 491/1/4
f 491/1/4 489/1/4 492/1/4
f 490/2/4 491/2/4 493/2/4
f 493/2/4 491/2/4 494/2/4
f 494/1/4 495/1/4 497/1/4
f 497/1/4 495/1/4 498/1/4
f 496/2/4 497/2/4 499/2/4
f 499/2/4 497/2/4 500/2/4
f 500/1/4 501/1/4 503/1/4
f 503/1/4 501/1/4 504/1/4
f 502/2/4 503/2/4 505/2/4
f 505/2/4 503/2/4 506/2/4
f 506/1/4 507/1/4 509/1/4
f 509/1/4 507/1/4 510/1/4
f 508/2/4 509/2/4 511/2/4
f 511/2/4 509/2/4 512/2/4
f 513/1/4 514/1/4 515/1/4
f 515/1/4 514/1/4 516/1/4
f 517/1/4 518/1/4 519/1/4
f 519/1/4 518/1/4 520/1/4
f 521/1/4 522/1/4 523/1/4
f 523/1/4 522/1/4 524/1/4
f 525/1/4 526/1/4 527/1/4
f 527/1/4 526/1/4 528/1/4
f 539/3/5 530/3/5 529/3/5
f 540/3/5 530/3/5 539/3/5
f 541/3/5 532/3/5 531/3/5
f 542/3/5 532/3/5 541/3/5
f 543/3/5 534/3/5 533/3/5
f 544/3/5 534/3/5 543/3/5
f 545/3/5 536/3/5 535/3/5
f 546/3/5 536/3/5 545/3/5
f 547/3/5 538/3/5 537/3/5
f 548/3/5 538/3/5 547/3/5
f 550/3/5 541/3/5 540/3/5
f 551/3/5 541/3/5 550/3/5
f 552/3/5 543/3/5 542/3/5
f 553/3/5 543/3/5 552/3/5
f 554/3/5 545/3/5 544/3/5
f 555/3/5 545/3/5 554/3/5
f 556/3/5 547/3/5 546/3/5
f 557/3/5 547/3/5 556/3/5
f 559/3/5 550/3/5 549/3/5
f 560/3/5 550/3/5 559/3/5
f 562/3/5 552/3/5 551/3/5
f 563/3/5 552/3/5 562/3/5
f 564/3/5 554/3/5 553/3/5
f 565/3/5 554/3/5 564/3/5
f 566/3/5 556/3/5 555/3/5
f 567/3/5 556/3/5 566/3/5
f 569/3/5 558/3/5 557/3/5
f 570/3/5 558/3/5 569/3/5
f 571/4/5 562/4/5 561/4/5
f 572/4/5 562/4/5 571/4/5
f 573/4/5 568/4/5 567/4/5
f 574/4/5 568/4/5 573/4/5
f 576/5/5 573/5/5 572/5/5
f 577/5/5 573/5/5 576/5/5
f 578/5/5 573/5/5 577/5/5
f 579/5/5 573/5/5 578/5/5
f 580/5/5 573/5/5 579/5/5
f 581/5/5 573/5/5 580/5/5
f 582/5/5 573/5/5 581/5/5
f 583/5/5 573/5/5 582/5/5
f 584/5/5 573/5/5 583/5/5
f 585/5/5 573/5/5 584/5/5
f 587/4/5 576/4/5 575/4/5
f 588/4/5 576/4/5 587/4/5
f 589/1/5 578/1/5 577/1/5
f 590/1/5 578/1/5 589/1/5
f 591/1/5 580/1/5 579/1/5
f 592/1/5 580/1/5 591/1/5
f 593/1/5 582/1/5 581/1/5
f 594/1/5 582/1/5 593/1/5
f 595/1/5 584/1/5 583/1/5
f 596/1/5 584/1/5 595/1/5
f 597/4/5 586/4/5 585/4/5
f 598/4/5 586/4/5 597/4/5
f 599/2/5 596/2/5 595/2/5
f 599/2/5 594/2/5 593/2/5
f 599/2/5 597/2/5 596/2/5
f 599/2/5 595/2/5 594/2/5
f 599/2/5 592/2/5 591/2/5
f 599/2/5 593/2/5 592/2/5
f 599/2/5 590/2/5 589/2/5
f 599/2/5 591/2/5 590/2/5
f 599/2/5 589/2/5 588/2/5
f 600/2/5 597/2/5 599/2/5
f 601/2/5 597/2/5 600/2/5
f 602/2/5 597/2/5 601/2/5
f 603/2/5 597/2/5 602/2/5
f 604/2/5 597/2/5 603/2/5
f 605/2/5 597/2/5 604/2/5
f 606/2/5 597/2/5 605/2/5
f 607/2/5 597/2/5 606/2/5
f 608/2/5 597/2/5 607/2/5
f 609/1/5 601/1/5 600/1/5
f 610/1/5 601/1/5 609/1/5
f 611/1/5 603/1/5 602/1/5
f 612/1/5 603/1/5 611/1/5
f 613/1/5 605/1/5 604/1/5
f 614/1/5 605/1/5 613/1/5
f 615/1/5 607/1/5 606/1/5
f 616/1/5 607/1/5 615/1/5
f 617/3/6 618/3/6 627/3/6
f 627/3/6 618/3/6 628/3/6
f 619/3/6 620/3/6 629/3/6
f 629/3/6 620/3/6 630/3/6
f 621/3/6 622/3/6 631/3/6
f 631/3/6 622/3/6 632/3/6
f 623/3/6 624/3/6 633/3/6
f 633/3/6 624/3/6 634/3/6
f 625/3/6 626/3/6 635/3/6
f 635/3/6 626/3/6 636/3/6
f 637/3/6 638/3/6 647/3/6
f 647/3/6 638/3/6 648/3/6
f 639/3/6 640/3/6 650/3/6
f 650/3/6 640/3/6 651/3/6
f 641/3/6 642/3/6 652/3/6
f 652/3/6 642/3/6 653/3/6
f 643/3/6 644/3/6 654/3/6
f 654/3/6 644/3/6 655/3/6
f 645/3/6 646/3/6 657/3/6
f 657/3/6 646/3/6 658/3/6
f 649/4/6 650/4/6 659/4/6
f 659/4/6 650/4/6 660/4/6
f 655/4/6 656/4/6 661/4/6
f 661/4/6 656/4/6 662/4/6
f 663/4/6 664/4/6 675/4/6
f 675/4/6 664/4/6 676/4/6
f 665/1/6 666/1/6 677/1/6
f 677/1/6 666/1/6 678/1/6
f 667/1/6 668/1/6 679/1/6
f 679/1/6 668/1/6 680/1/6
f 669/1/6 670/1/6 681/1/6
f 681/1/6 670/1/6 682/1/6
f 671/1/6 672/1/6 683/1/6
f 683/1/6 672/1/6 684/1/6
f 673/4/6 674/4/6 685/4/6
f 685/4/6 674/4/6 686/4/6
f 676/2/6 677/2/6 687/2/6
f 687/2/6 677/2/6 688/2/6
f 678/2/6 679/2/6 689/2/6
f 689/2/6 679/2/6 690/2/6
f 680/2/6 681/2/6 691/2/6
f 691/2/6 681/2/6 692/2/6
f 682/2/6 683/2/6 693/2/6
f 693/2/6 683/2/6 694/2/6
f 684/2/6 685/2/6 695/2/6
f 695/2/6 685/2/6 696/2/6
f 688/1/6 689/1/6 697/1/6
f 697/1/6 689/1/6 698/1/6
f 690/1/6 691/1/6 699/1/6
f 699/1/6 691/1/6 700/1/6
f 692/1/6 693/1/6 701/1/6
f 701/1/6 693/1/6 702/1/6
f 694/1/6 695/1/6 703/1/6
f 703/1/6 695/1/6 704/1/6
f 705/1/6 706/1/6 713/1/6
f 713/1/6 706/1/6 714/1/6
f 707/1/6 708/1/6 715/1/6
f 715/1/6 708/1/6 716/1/6
f 709/1/6 710/1/6 717/1/6
f 717/1/6 710/1/6 718/1/6
f 711/1/6 712/1/6 719/1/6
f 719/1/6 712/1/6 720/1/6
f 721/4/6 722/4/6 723/4/6
f 723/4/6 722/4/6 724/4/6
f 725/3/6 726/3/6 733/3/6
f 733/3/6 726/3/6 734/3/6
f 727/3/6 728/3/6 735/3/6
f 735/3/6 728/3/6 736/3/6
f 729/3/6 730/3/6 737/3/6
f 737/3/6 730/3/6 738/3/6
f 731/3/6 732/3/6 739/3/6
f 739/3/6 732/3/6 740/3/6
