# MagicaVoxel @ Ephtracy

# group
o 

# material
mtllib 7878787878.mtl
usemtl palette

# normals
vn -1 0 0
vn 1 0 0
vn 0 0 1
vn 0 0 -1
vn 0 -1 0
vn 0 1 0

# texcoords
vt 0.154297 0.5
vt 0.771484 0.5
vt 0.904297 0.5
vt 0.990234 0.5
vt 0.994141 0.5

# verts
v -0.4 2.2 1.6
v -0.4 2.2 1.5
v -0.4 2.2 1.3
v -0.4 2.2 1.2
v -0.4 2.2 1
v -0.4 2.2 0.9
v -0.4 2.3 1.6
v -0.4 2.3 1.5
v -0.4 2.3 1.3
v -0.4 2.3 1.2
v -0.4 2.3 1
v -0.4 2.3 0.9
v -0.3 2.2 1.8
v -0.3 2.2 1.6
v -0.3 2.2 1.5
v -0.3 2.2 1.3
v -0.3 2.2 1.2
v -0.3 2.2 1
v -0.3 2.2 0.9
v -0.3 2.2 0.7
v -0.3 2.3 1.8
v -0.3 2.3 1.6
v -0.3 2.3 1.5
v -0.3 2.3 1.3
v -0.3 2.3 1.2
v -0.3 2.3 1
v -0.3 2.3 0.9
v -0.3 2.3 0.7
v -0.3 2.4 1.6
v -0.3 2.4 1.5
v -0.3 2.4 1.3
v -0.3 2.4 1.2
v -0.3 2.4 1
v -0.3 2.4 0.9
v -0.2 2.3 1.5
v -0.2 2.3 1.4
v -0.2 2.3 1.3
v -0.2 2.3 1.2
v -0.2 2.3 1
v -0.2 2.4 1.5
v -0.2 2.4 1.4
v -0.2 2.4 1.3
v -0.2 2.4 1.2
v -0.2 2.4 1
v -0.1 2.2 0.7
v -0.1 2.2 0.6
v -0.1 2.3 0.9
v -0.1 2.3 0.8
v -0.1 2.3 0.7
v -0.1 2.3 0.6
v -0.1 2.4 0.9
v -0.1 2.4 0.7
v 0.1 2.2 0.7
v 0.1 2.2 0.6
v 0.1 2.3 0.9
v 0.1 2.3 0.8
v 0.1 2.3 0.7
v 0.1 2.3 0.6
v 0.1 2.4 0.9
v 0.1 2.4 0.7
v 0.3 2.2 0.7
v 0.3 2.2 0.6
v 0.3 2.3 0.9
v 0.3 2.3 0.8
v 0.3 2.3 0.7
v 0.3 2.3 0.6
v 0.3 2.4 0.9
v 0.3 2.4 0.7
v 0.5 2.2 0.7
v 0.5 2.2 0.6
v 0.5 2.3 0.9
v 0.5 2.3 0.8
v 0.5 2.3 0.7
v 0.5 2.3 0.6
v 0.5 2.4 0.9
v 0.5 2.4 0.7
v 0 2.2 0.7
v 0 2.2 0.6
v 0 2.3 0.9
v 0 2.3 0.8
v 0 2.3 0.7
v 0 2.3 0.6
v 0 2.4 0.9
v 0 2.4 0.7
v 0.2 2.2 0.7
v 0.2 2.2 0.6
v 0.2 2.3 0.9
v 0.2 2.3 0.8
v 0.2 2.3 0.7
v 0.2 2.3 0.6
v 0.2 2.4 0.9
v 0.2 2.4 0.7
v 0.4 2.2 0.7
v 0.4 2.2 0.6
v 0.4 2.3 0.9
v 0.4 2.3 0.8
v 0.4 2.3 0.7
v 0.4 2.3 0.6
v 0.4 2.4 0.9
v 0.4 2.4 0.7
v 0.6 2.2 0.7
v 0.6 2.2 0.6
v 0.6 2.3 1.6
v 0.6 2.3 1.5
v 0.6 2.3 1.4
v 0.6 2.3 1.3
v 0.6 2.3 1.2
v 0.6 2.3 1.1
v 0.6 2.3 1
v 0.6 2.3 0.9
v 0.6 2.3 0.7
v 0.6 2.3 0.6
v 0.6 2.4 1.6
v 0.6 2.4 1.5
v 0.6 2.4 1.4
v 0.6 2.4 1.3
v 0.6 2.4 1.2
v 0.6 2.4 1.1
v 0.6 2.4 1
v 0.6 2.4 0.9
v 0.6 2.4 0.7
v 0.7 2.2 1.8
v 0.7 2.2 1.4
v 0.7 2.2 1.3
v 0.7 2.2 1.1
v 0.7 2.2 1
v 0.7 2.2 0.7
v 0.7 2.3 1.8
v 0.7 2.3 1.4
v 0.7 2.3 1.3
v 0.7 2.3 1.1
v 0.7 2.3 1
v 0.7 2.3 0.7
v 0.7 2.4 1.4
v 0.7 2.4 1.3
v 0.7 2.4 1.1
v 0.7 2.4 1
v 0.8 2.2 1.4
v 0.8 2.2 1.3
v 0.8 2.2 1.1
v 0.8 2.2 1
v 0.8 2.3 1.4
v 0.8 2.3 1.3
v 0.8 2.3 1.1
v 0.8 2.3 1
v -0.3 2.2 1.8
v -0.3 2.3 1.8
v 0.7 2.2 1.8
v 0.7 2.3 1.8
v -0.4 2.2 1.6
v -0.4 2.3 1.6
v -0.3 2.2 1.6
v -0.3 2.3 1.6
v -0.3 2.4 1.6
v -0.2 2.3 1.6
v -0.2 2.4 1.6
v 0.6 2.3 1.6
v 0.6 2.4 1.6
v 0.6 2.3 1.4
v 0.6 2.4 1.4
v 0.7 2.2 1.4
v 0.7 2.3 1.4
v 0.7 2.4 1.4
v 0.8 2.2 1.4
v 0.8 2.3 1.4
v -0.4 2.2 1.3
v -0.4 2.3 1.3
v -0.3 2.2 1.3
v -0.3 2.3 1.3
v -0.3 2.4 1.3
v -0.2 2.3 1.3
v -0.2 2.4 1.3
v 0.6 2.3 1.1
v 0.6 2.4 1.1
v 0.7 2.2 1.1
v 0.7 2.3 1.1
v 0.7 2.4 1.1
v 0.8 2.2 1.1
v 0.8 2.3 1.1
v -0.4 2.2 1
v -0.4 2.3 1
v -0.3 2.2 1
v -0.3 2.3 1
v -0.3 2.4 1
v -0.2 2.3 1
v -0.2 2.4 1
v -0.4 2.2 1.5
v -0.4 2.3 1.5
v -0.3 2.2 1.5
v -0.3 2.3 1.5
v -0.3 2.4 1.5
v -0.2 2.3 1.5
v -0.2 2.4 1.5
v 0.6 2.3 1.3
v 0.6 2.4 1.3
v 0.7 2.2 1.3
v 0.7 2.3 1.3
v 0.7 2.4 1.3
v 0.8 2.2 1.3
v 0.8 2.3 1.3
v -0.4 2.2 1.2
v -0.4 2.3 1.2
v -0.3 2.2 1.2
v -0.3 2.3 1.2
v -0.3 2.4 1.2
v -0.2 2.3 1.2
v -0.2 2.4 1.2
v 0.6 2.3 1
v 0.6 2.4 1
v 0.7 2.2 1
v 0.7 2.3 1
v 0.7 2.4 1
v 0.8 2.2 1
v 0.8 2.3 1
v -0.4 2.2 0.9
v -0.4 2.3 0.9
v -0.3 2.2 0.9
v -0.3 2.3 0.9
v -0.3 2.4 0.9
v -0.2 2.3 0.9
v -0.2 2.4 0.9
v -0.1 2.3 0.9
v -0.1 2.4 0.9
v 0 2.3 0.9
v 0 2.4 0.9
v 0.1 2.3 0.9
v 0.1 2.4 0.9
v 0.2 2.3 0.9
v 0.2 2.4 0.9
v 0.3 2.3 0.9
v 0.3 2.4 0.9
v 0.4 2.3 0.9
v 0.4 2.4 0.9
v 0.5 2.3 0.9
v 0.5 2.4 0.9
v -0.3 2.2 0.7
v -0.3 2.3 0.7
v -0.1 2.2 0.7
v -0.1 2.3 0.7
v -0.1 2.4 0.7
v 0 2.2 0.7
v 0 2.3 0.7
v 0 2.4 0.7
v 0.1 2.2 0.7
v 0.1 2.3 0.7
v 0.1 2.4 0.7
v 0.2 2.2 0.7
v 0.2 2.3 0.7
v 0.2 2.4 0.7
v 0.3 2.2 0.7
v 0.3 2.3 0.7
v 0.3 2.4 0.7
v 0.4 2.2 0.7
v 0.4 2.3 0.7
v 0.4 2.4 0.7
v 0.5 2.2 0.7
v 0.5 2.3 0.7
v 0.5 2.4 0.7
v 0.6 2.2 0.7
v 0.6 2.3 0.7
v 0.6 2.4 0.7
v 0.7 2.2 0.7
v 0.7 2.3 0.7
v -0.1 2.2 0.6
v -0.1 2.3 0.6
v 0 2.2 0.6
v 0 2.3 0.6
v 0.1 2.2 0.6
v 0.1 2.3 0.6
v 0.2 2.2 0.6
v 0.2 2.3 0.6
v 0.3 2.2 0.6
v 0.3 2.3 0.6
v 0.4 2.2 0.6
v 0.4 2.3 0.6
v 0.5 2.2 0.6
v 0.5 2.3 0.6
v 0.6 2.2 0.6
v 0.6 2.3 0.6
v -0.3 2.2 1.8
v 0.7 2.2 1.8
v -0.2 2.2 1.7
v 0.6 2.2 1.7
v -0.4 2.2 1.6
v -0.3 2.2 1.6
v -0.4 2.2 1.5
v -0.3 2.2 1.5
v 0.7 2.2 1.4
v 0.8 2.2 1.4
v -0.4 2.2 1.3
v -0.3 2.2 1.3
v 0.7 2.2 1.3
v 0.8 2.2 1.3
v -0.4 2.2 1.2
v -0.3 2.2 1.2
v 0.7 2.2 1.1
v 0.8 2.2 1.1
v -0.4 2.2 1
v -0.3 2.2 1
v 0.7 2.2 1
v 0.8 2.2 1
v -0.4 2.2 0.9
v -0.3 2.2 0.9
v -0.2 2.2 0.8
v 0.6 2.2 0.8
v -0.3 2.2 0.7
v -0.1 2.2 0.7
v 0 2.2 0.7
v 0.1 2.2 0.7
v 0.2 2.2 0.7
v 0.3 2.2 0.7
v 0.4 2.2 0.7
v 0.5 2.2 0.7
v 0.6 2.2 0.7
v 0.7 2.2 0.7
v -0.1 2.2 0.6
v 0 2.2 0.6
v 0.1 2.2 0.6
v 0.2 2.2 0.6
v 0.3 2.2 0.6
v 0.4 2.2 0.6
v 0.5 2.2 0.6
v 0.6 2.2 0.6
v -0.3 2.3 1.8
v 0.7 2.3 1.8
v -0.2 2.3 1.7
v 0.6 2.3 1.7
v -0.4 2.3 1.6
v -0.3 2.3 1.6
v -0.2 2.3 1.6
v 0.6 2.3 1.6
v -0.4 2.3 1.5
v -0.3 2.3 1.5
v -0.2 2.3 1.5
v 0.6 2.3 1.5
v -0.2 2.3 1.4
v 0.6 2.3 1.4
v 0.7 2.3 1.4
v 0.8 2.3 1.4
v -0.4 2.3 1.3
v -0.3 2.3 1.3
v -0.2 2.3 1.3
v 0.6 2.3 1.3
v 0.7 2.3 1.3
v 0.8 2.3 1.3
v -0.4 2.3 1.2
v -0.3 2.3 1.2
v -0.2 2.3 1.2
v 0.6 2.3 1.2
v 0.6 2.3 1.1
v 0.7 2.3 1.1
v 0.8 2.3 1.1
v -0.4 2.3 1
v -0.3 2.3 1
v -0.2 2.3 1
v 0.6 2.3 1
v 0.7 2.3 1
v 0.8 2.3 1
v -0.4 2.3 0.9
v -0.3 2.3 0.9
v -0.2 2.3 0.9
v -0.1 2.3 0.9
v 0 2.3 0.9
v 0.1 2.3 0.9
v 0.2 2.3 0.9
v 0.3 2.3 0.9
v 0.4 2.3 0.9
v 0.5 2.3 0.9
v 0.6 2.3 0.9
v -0.2 2.3 0.8
v -0.1 2.3 0.8
v 0 2.3 0.8
v 0.1 2.3 0.8
v 0.2 2.3 0.8
v 0.3 2.3 0.8
v 0.4 2.3 0.8
v 0.5 2.3 0.8
v -0.3 2.3 0.7
v -0.1 2.3 0.7
v 0 2.3 0.7
v 0.1 2.3 0.7
v 0.2 2.3 0.7
v 0.3 2.3 0.7
v 0.4 2.3 0.7
v 0.5 2.3 0.7
v 0.6 2.3 0.7
v 0.7 2.3 0.7
v -0.1 2.3 0.6
v 0 2.3 0.6
v 0.1 2.3 0.6
v 0.2 2.3 0.6
v 0.3 2.3 0.6
v 0.4 2.3 0.6
v 0.5 2.3 0.6
v 0.6 2.3 0.6
v -0.3 2.4 1.6
v -0.2 2.4 1.6
v 0.6 2.4 1.6
v -0.3 2.4 1.5
v -0.2 2.4 1.5
v 0.6 2.4 1.5
v -0.2 2.4 1.4
v -0.1 2.4 1.4
v 0 2.4 1.4
v 0.1 2.4 1.4
v 0.2 2.4 1.4
v 0.3 2.4 1.4
v 0.4 2.4 1.4
v 0.5 2.4 1.4
v 0.6 2.4 1.4
v 0.7 2.4 1.4
v -0.3 2.4 1.3
v -0.2 2.4 1.3
v -0.1 2.4 1.3
v 0 2.4 1.3
v 0.1 2.4 1.3
v 0.2 2.4 1.3
v 0.3 2.4 1.3
v 0.4 2.4 1.3
v 0.5 2.4 1.3
v 0.6 2.4 1.3
v 0.7 2.4 1.3
v -0.3 2.4 1.2
v -0.2 2.4 1.2
v -0.1 2.4 1.2
v 0 2.4 1.2
v 0.1 2.4 1.2
v 0.2 2.4 1.2
v 0.3 2.4 1.2
v 0.4 2.4 1.2
v 0.5 2.4 1.2
v 0.6 2.4 1.2
v 0.6 2.4 1.1
v 0.7 2.4 1.1
v -0.3 2.4 1
v -0.2 2.4 1
v 0.6 2.4 1
v 0.7 2.4 1
v -0.3 2.4 0.9
v -0.2 2.4 0.9
v -0.1 2.4 0.9
v 0 2.4 0.9
v 0.1 2.4 0.9
v 0.2 2.4 0.9
v 0.3 2.4 0.9
v 0.4 2.4 0.9
v 0.5 2.4 0.9
v 0.6 2.4 0.9
v -0.1 2.4 0.7
v 0 2.4 0.7
v 0.1 2.4 0.7
v 0.2 2.4 0.7
v 0.3 2.4 0.7
v 0.4 2.4 0.7
v 0.5 2.4 0.7
v 0.6 2.4 0.7

# faces
f 7/1/1 2/1/1 1/1/1
f 8/1/1 2/1/1 7/1/1
f 9/1/1 4/1/1 3/1/1
f 10/1/1 4/1/1 9/1/1
f 11/1/1 6/1/1 5/1/1
f 12/1/1 6/1/1 11/1/1
f 21/5/1 14/5/1 13/5/1
f 22/5/1 14/5/1 21/5/1
f 23/5/1 16/5/1 15/5/1
f 24/5/1 16/5/1 23/5/1
f 25/5/1 18/5/1 17/5/1
f 26/5/1 18/5/1 25/5/1
f 27/5/1 20/5/1 19/5/1
f 28/5/1 20/5/1 27/5/1
f 29/1/1 23/1/1 22/1/1
f 30/1/1 23/1/1 29/1/1
f 31/1/1 25/1/1 24/1/1
f 32/1/1 25/1/1 31/1/1
f 33/1/1 27/1/1 26/1/1
f 34/1/1 27/1/1 33/1/1
f 40/3/1 36/3/1 35/3/1
f 41/2/1 37/2/1 36/2/1
f 41/3/1 36/3/1 40/3/1
f 42/2/1 37/2/1 41/2/1
f 43/3/1 39/3/1 38/3/1
f 44/3/1 39/3/1 43/3/1
f 49/1/1 46/1/1 45/1/1
f 50/1/1 46/1/1 49/1/1
f 51/1/1 48/1/1 47/1/1
f 51/1/1 49/1/1 48/1/1
f 52/1/1 49/1/1 51/1/1
f 57/1/1 54/1/1 53/1/1
f 58/1/1 54/1/1 57/1/1
f 59/1/1 56/1/1 55/1/1
f 59/1/1 57/1/1 56/1/1
f 60/1/1 57/1/1 59/1/1
f 65/1/1 62/1/1 61/1/1
f 66/1/1 62/1/1 65/1/1
f 67/1/1 64/1/1 63/1/1
f 67/1/1 65/1/1 64/1/1
f 68/1/1 65/1/1 67/1/1
f 73/1/1 70/1/1 69/1/1
f 74/1/1 70/1/1 73/1/1
f 75/1/1 72/1/1 71/1/1
f 75/1/1 73/1/1 72/1/1
f 76/1/1 73/1/1 75/1/1
f 77/1/2 78/1/2 81/1/2
f 81/1/2 78/1/2 82/1/2
f 79/1/2 80/1/2 83/1/2
f 80/1/2 81/1/2 83/1/2
f 83/1/2 81/1/2 84/1/2
f 85/1/2 86/1/2 89/1/2
f 89/1/2 86/1/2 90/1/2
f 87/1/2 88/1/2 91/1/2
f 88/1/2 89/1/2 91/1/2
f 91/1/2 89/1/2 92/1/2
f 93/1/2 94/1/2 97/1/2
f 97/1/2 94/1/2 98/1/2
f 95/1/2 96/1/2 99/1/2
f 96/1/2 97/1/2 99/1/2
f 99/1/2 97/1/2 100/1/2
f 101/1/2 102/1/2 111/1/2
f 111/1/2 102/1/2 112/1/2
f 103/4/2 104/4/2 113/4/2
f 104/3/2 105/3/2 114/3/2
f 113/4/2 104/4/2 114/4/2
f 114/3/2 105/3/2 115/3/2
f 106/2/2 107/2/2 116/2/2
f 107/3/2 108/3/2 117/3/2
f 116/2/2 107/2/2 117/2/2
f 117/3/2 108/3/2 118/3/2
f 109/4/2 110/4/2 119/4/2
f 110/1/2 111/1/2 120/1/2
f 119/4/2 110/4/2 120/4/2
f 120/1/2 111/1/2 121/1/2
f 122/5/2 123/5/2 128/5/2
f 128/5/2 123/5/2 129/5/2
f 124/5/2 125/5/2 130/5/2
f 130/5/2 125/5/2 131/5/2
f 126/5/2 127/5/2 132/5/2
f 132/5/2 127/5/2 133/5/2
f 129/1/2 130/1/2 134/1/2
f 134/1/2 130/1/2 135/1/2
f 131/1/2 132/1/2 136/1/2
f 136/1/2 132/1/2 137/1/2
f 138/1/2 139/1/2 142/1/2
f 142/1/2 139/1/2 143/1/2
f 140/1/2 141/1/2 144/1/2
f 144/1/2 141/1/2 145/1/2
f 148/5/3 147/5/3 146/5/3
f 149/5/3 147/5/3 148/5/3
f 152/1/3 151/1/3 150/1/3
f 153/1/3 151/1/3 152/1/3
f 155/1/3 154/1/3 153/1/3
f 156/1/3 154/1/3 155/1/3
f 157/4/3 156/4/3 155/4/3
f 158/4/3 156/4/3 157/4/3
f 162/1/3 160/1/3 159/1/3
f 163/1/3 160/1/3 162/1/3
f 164/1/3 162/1/3 161/1/3
f 165/1/3 162/1/3 164/1/3
f 168/1/3 167/1/3 166/1/3
f 169/1/3 167/1/3 168/1/3
f 171/1/3 170/1/3 169/1/3
f 172/1/3 170/1/3 171/1/3
f 176/1/3 174/1/3 173/1/3
f 177/1/3 174/1/3 176/1/3
f 178/1/3 176/1/3 175/1/3
f 179/1/3 176/1/3 178/1/3
f 182/1/3 181/1/3 180/1/3
f 183/1/3 181/1/3 182/1/3
f 185/1/3 184/1/3 183/1/3
f 186/1/3 184/1/3 185/1/3
f 187/1/4 188/1/4 189/1/4
f 189/1/4 188/1/4 190/1/4
f 190/1/4 191/1/4 192/1/4
f 192/1/4 191/1/4 193/1/4
f 194/1/4 195/1/4 197/1/4
f 197/1/4 195/1/4 198/1/4
f 196/1/4 197/1/4 199/1/4
f 199/1/4 197/1/4 200/1/4
f 201/1/4 202/1/4 203/1/4
f 203/1/4 202/1/4 204/1/4
f 204/1/4 205/1/4 206/1/4
f 206/1/4 205/1/4 207/1/4
f 208/1/4 209/1/4 211/1/4
f 211/1/4 209/1/4 212/1/4
f 210/1/4 211/1/4 213/1/4
f 213/1/4 211/1/4 214/1/4
f 215/1/4 216/1/4 217/1/4
f 217/1/4 216/1/4 218/1/4
f 218/1/4 219/1/4 220/1/4
f 220/1/4 219/1/4 221/1/4
f 220/4/4 221/4/4 222/4/4
f 222/4/4 221/4/4 223/4/4
f 224/4/4 225/4/4 226/4/4
f 226/4/4 225/4/4 227/4/4
f 228/4/4 229/4/4 230/4/4
f 230/4/4 229/4/4 231/4/4
f 232/4/4 233/4/4 234/4/4
f 234/4/4 233/4/4 235/4/4
f 236/5/4 237/5/4 238/5/4
f 238/5/4 237/5/4 239/5/4
f 239/1/4 240/1/4 242/1/4
f 242/1/4 240/1/4 243/1/4
f 241/5/4 242/5/4 244/5/4
f 244/5/4 242/5/4 245/5/4
f 245/1/4 246/1/4 248/1/4
f 248/1/4 246/1/4 249/1/4
f 247/5/4 248/5/4 250/5/4
f 250/5/4 248/5/4 251/5/4
f 251/1/4 252/1/4 254/1/4
f 254/1/4 252/1/4 255/1/4
f 253/5/4 254/5/4 256/5/4
f 256/5/4 254/5/4 257/5/4
f 257/1/4 258/1/4 260/1/4
f 260/1/4 258/1/4 261/1/4
f 259/5/4 260/5/4 262/5/4
f 262/5/4 260/5/4 263/5/4
f 264/1/4 265/1/4 266/1/4
f 266/1/4 265/1/4 267/1/4
f 268/1/4 269/1/4 270/1/4
f 270/1/4 269/1/4 271/1/4
f 272/1/4 273/1/4 274/1/4
f 274/1/4 273/1/4 275/1/4
f 276/1/4 277/1/4 278/1/4
f 278/1/4 277/1/4 279/1/4
f 282/5/5 281/5/5 280/5/5
f 283/5/5 281/5/5 282/5/5
f 285/5/5 282/5/5 280/5/5
f 286/1/5 285/1/5 284/1/5
f 287/5/5 282/5/5 285/5/5
f 287/1/5 285/1/5 286/1/5
f 288/5/5 281/5/5 283/5/5
f 291/5/5 282/5/5 287/5/5
f 292/1/5 289/1/5 288/1/5
f 292/5/5 288/5/5 283/5/5
f 293/1/5 289/1/5 292/1/5
f 294/1/5 291/1/5 290/1/5
f 295/5/5 282/5/5 291/5/5
f 295/1/5 291/1/5 294/1/5
f 296/5/5 292/5/5 283/5/5
f 299/5/5 282/5/5 295/5/5
f 300/1/5 297/1/5 296/1/5
f 300/5/5 296/5/5 283/5/5
f 301/1/5 297/1/5 300/1/5
f 302/1/5 299/1/5 298/1/5
f 303/5/5 282/5/5 299/5/5
f 303/1/5 299/1/5 302/1/5
f 304/4/5 283/4/5 282/4/5
f 304/5/5 282/5/5 303/5/5
f 305/5/5 300/5/5 283/5/5
f 305/4/5 283/4/5 304/4/5
f 306/5/5 304/5/5 303/5/5
f 306/5/5 305/5/5 304/5/5
f 307/5/5 305/5/5 306/5/5
f 308/5/5 305/5/5 307/5/5
f 309/5/5 305/5/5 308/5/5
f 310/5/5 305/5/5 309/5/5
f 311/5/5 305/5/5 310/5/5
f 312/5/5 305/5/5 311/5/5
f 313/5/5 305/5/5 312/5/5
f 314/5/5 300/5/5 305/5/5
f 314/5/5 305/5/5 313/5/5
f 315/5/5 300/5/5 314/5/5
f 316/1/5 308/1/5 307/1/5
f 317/1/5 308/1/5 316/1/5
f 318/1/5 310/1/5 309/1/5
f 319/1/5 310/1/5 318/1/5
f 320/1/5 312/1/5 311/1/5
f 321/1/5 312/1/5 320/1/5
f 322/1/5 314/1/5 313/1/5
f 323/1/5 314/1/5 322/1/5
f 324/5/6 325/5/6 326/5/6
f 326/5/6 325/5/6 327/5/6
f 324/5/6 326/5/6 329/5/6
f 326/4/6 327/4/6 330/4/6
f 329/5/6 326/5/6 330/5/6
f 327/5/6 325/5/6 331/5/6
f 330/4/6 327/4/6 331/4/6
f 328/1/6 329/1/6 332/1/6
f 332/1/6 329/1/6 333/1/6
f 331/5/6 325/5/6 335/5/6
f 333/5/6 334/5/6 336/5/6
f 335/5/6 325/5/6 337/5/6
f 337/5/6 325/5/6 338/5/6
f 333/5/6 336/5/6 341/5/6
f 341/5/6 336/5/6 342/5/6
f 338/1/6 339/1/6 344/1/6
f 344/1/6 339/1/6 345/1/6
f 340/1/6 341/1/6 346/1/6
f 346/1/6 341/1/6 347/1/6
f 343/5/6 344/5/6 349/5/6
f 349/5/6 344/5/6 350/5/6
f 350/5/6 344/5/6 351/5/6
f 347/5/6 348/5/6 354/5/6
f 354/5/6 348/5/6 355/5/6
f 351/1/6 352/1/6 357/1/6
f 357/1/6 352/1/6 358/1/6
f 353/1/6 354/1/6 359/1/6
f 359/1/6 354/1/6 360/1/6
f 356/5/6 357/5/6 369/5/6
f 360/5/6 361/5/6 370/5/6
f 361/4/6 362/4/6 370/4/6
f 370/4/6 362/4/6 371/4/6
f 363/4/6 364/4/6 372/4/6
f 372/4/6 364/4/6 373/4/6
f 365/4/6 366/4/6 374/4/6
f 374/4/6 366/4/6 375/4/6
f 367/4/6 368/4/6 376/4/6
f 376/4/6 368/4/6 377/4/6
f 370/5/6 371/5/6 378/5/6
f 360/5/6 370/5/6 378/5/6
f 378/5/6 371/5/6 379/5/6
f 372/5/6 373/5/6 380/5/6
f 380/5/6 373/5/6 381/5/6
f 374/5/6 375/5/6 382/5/6
f 382/5/6 375/5/6 383/5/6
f 376/5/6 377/5/6 384/5/6
f 384/5/6 377/5/6 385/5/6
f 369/5/6 357/5/6 386/5/6
f 386/5/6 357/5/6 387/5/6
f 379/1/6 380/1/6 388/1/6
f 388/1/6 380/1/6 389/1/6
f 381/1/6 382/1/6 390/1/6
f 390/1/6 382/1/6 391/1/6
f 383/1/6 384/1/6 392/1/6
f 392/1/6 384/1/6 393/1/6
f 385/1/6 386/1/6 394/1/6
f 394/1/6 386/1/6 395/1/6
f 396/1/6 397/1/6 399/1/6
f 397/4/6 398/4/6 400/4/6
f 399/1/6 397/1/6 400/1/6
f 400/4/6 398/4/6 401/4/6
f 400/3/6 401/3/6 402/3/6
f 402/3/6 401/3/6 403/3/6
f 403/3/6 401/3/6 404/3/6
f 404/3/6 401/3/6 405/3/6
f 405/3/6 401/3/6 406/3/6
f 406/3/6 401/3/6 407/3/6
f 407/3/6 401/3/6 408/3/6
f 408/3/6 401/3/6 409/3/6
f 409/3/6 401/3/6 410/3/6
f 402/2/6 403/2/6 413/2/6
f 403/3/6 404/3/6 414/3/6
f 413/2/6 403/2/6 414/2/6
f 404/2/6 405/2/6 415/2/6
f 414/3/6 404/3/6 415/3/6
f 405/3/6 406/3/6 416/3/6
f 415/2/6 405/2/6 416/2/6
f 406/2/6 407/2/6 417/2/6
f 416/3/6 406/3/6 417/3/6
f 407/3/6 408/3/6 418/3/6
f 417/2/6 407/2/6 418/2/6
f 408/2/6 409/2/6 419/2/6
f 418/3/6 408/3/6 419/3/6
f 409/3/6 410/3/6 420/3/6
f 419/2/6 409/2/6 420/2/6
f 410/1/6 411/1/6 421/1/6
f 420/3/6 410/3/6 421/3/6
f 421/1/6 411/1/6 422/1/6
f 412/1/6 413/1/6 423/1/6
f 413/3/6 414/3/6 424/3/6
f 423/1/6 413/1/6 424/1/6
f 414/2/6 415/2/6 425/2/6
f 424/3/6 414/3/6 425/3/6
f 415/3/6 416/3/6 426/3/6
f 425/2/6 415/2/6 426/2/6
f 416/2/6 417/2/6 427/2/6
f 426/3/6 416/3/6 427/3/6
f 417/3/6 418/3/6 428/3/6
f 427/2/6 417/2/6 428/2/6
f 418/2/6 419/2/6 429/2/6
f 428/3/6 418/3/6 429/3/6
f 419/3/6 420/3/6 430/3/6
f 429/2/6 419/2/6 430/2/6
f 420/2/6 421/2/6 431/2/6
f 430/3/6 420/3/6 431/3/6
f 431/2/6 421/2/6 432/2/6
f 427/3/6 428/3/6 433/3/6
f 428/3/6 429/3/6 433/3/6
f 431/3/6 432/3/6 433/3/6
f 430/3/6 431/3/6 433/3/6
f 429/3/6 430/3/6 433/3/6
f 426/3/6 427/3/6 433/3/6
f 425/3/6 426/3/6 433/3/6
f 424/3/6 425/3/6 433/3/6
f 424/3/6 433/3/6 436/3/6
f 433/1/6 434/1/6 437/1/6
f 436/3/6 433/3/6 437/3/6
f 437/1/6 434/1/6 438/1/6
f 435/1/6 436/1/6 439/1/6
f 436/4/6 437/4/6 440/4/6
f 439/1/6 436/1/6 440/1/6
f 440/4/6 437/4/6 441/4/6
f 441/4/6 437/4/6 442/4/6
f 442/4/6 437/4/6 443/4/6
f 443/4/6 437/4/6 444/4/6
f 444/4/6 437/4/6 445/4/6
f 445/4/6 437/4/6 446/4/6
f 446/4/6 437/4/6 447/4/6
f 447/4/6 437/4/6 448/4/6
f 441/1/6 442/1/6 449/1/6
f 449/1/6 442/1/6 450/1/6
f 443/1/6 444/1/6 451/1/6
f 451/1/6 444/1/6 452/1/6
f 445/1/6 446/1/6 453/1/6
f 453/1/6 446/1/6 454/1/6
f 447/1/6 448/1/6 455/1/6
f 455/1/6 448/1/6 456/1/6
